<?xml version="1.0" standalone="no"?>
<!DOCTYPE svg PUBLIC "-//W3C//DTD SVG 1.1//EN" "http://www.w3.org/Graphics/SVG/1.1/DTD/svg11.dtd" >
<svg xmlns="http://www.w3.org/2000/svg" xmlns:xlink="http://www.w3.org/1999/xlink" version="1.1">
<metadata>
Created by FontForge 20170731 at Mon Apr 20 00:47:19 2009
 By Aleksey,,,
Copyright (c) 2008 by E. V. Norat II. All rights reserved.  Permission to use this font is only granted for non-commerical; non-profit; private and/or personal purposes. Commercial use of this font is prohibited.
</metadata>
<defs>
<font id="TELETYPE1945-1985" horiz-adv-x="600" >
  <font-face 
    font-family="TELETYPE 1945-1985"
    font-weight="400"
    font-stretch="squinchy"
    units-per-em="1000"
    panose-1="2 0 5 9 0 0 0 2 0 4"
    ascent="750"
    descent="-250"
    x-height="700"
    cap-height="713"
    bbox="-2 -17 600 721"
    underline-thickness="50"
    underline-position="-150"
    unicode-range="U+0020-007E"
  />
<missing-glyph horiz-adv-x="601" 
 />
    <glyph glyph-name=".notdef" horiz-adv-x="601" 
 />
    <glyph glyph-name=".null" horiz-adv-x="0" 
 />
    <glyph glyph-name="nonmarkingreturn" horiz-adv-x="601" 
 />
    <glyph glyph-name="space" unicode=" " horiz-adv-x="601" 
 />
    <glyph glyph-name="space" unicode="&#xa0;" horiz-adv-x="601" 
 />
    <glyph glyph-name="exclam" unicode="!" horiz-adv-x="601" 
d="M244 244q-5 1 -4.5 3.5t5.5 2.5h4v-3q-3 3 0 3l4 157l2 6t1 7q0 3 -3 3v10h5q1 -1 5 1q8 9 9 23t1 25q0 2 -3.5 2t-5.5 -2q0 -8 -0.5 -22t-5.5 -19h-3q-1 0 -2 -1l-1 66l-85 -80q-2 -2 -8.5 -4.5t-14 -3t-15.5 0.5t-14 5q-9 8 -12.5 23.5t9.5 35.5q38 36 68 65
q13 12 24.5 24t21.5 21l21 21q2 4 7 9.5t10.5 11t10.5 9.5t8 5h-2q3 0 5.5 -5l5.5 -11t6 -11.5t6 -5.5q2 0 3.5 5t1.5 10.5t-1 10t-3 5.5q-5 0 -6.5 2.5t-6.5 4.5h5q11 0 20.5 -5.5t17.5 -12.5t15 -14.5t13 -10.5l116 -114q-1 0 5 -5t11.5 -13t6.5 -19t-9 -23
q-9 -11 -17.5 -14t-16.5 -1.5t-16 5.5t-16 9l-74 71v-102q0 -9 -3 -18t-5 -18q-6 -28 -14 -57.5t-9 -57.5q0 -4 9 -3.5t10 4.5q1 28 4.5 56.5t8.5 56.5q0 1 1 2l-5 -257q2 -12 12 -17q-2 -4 -2 -7q-5 1 -9 5q0 -5 -3.5 -12.5t-10 -15t-16 -12.5t-21.5 -5q-17 0 -27 5.5
t-15 13.5t-6.5 16t-1.5 14l-5 34q3 -6 4 -9q3 -3 7 -2.5t3 4.5q-7 11 -7 22t-2 22l-2 75h-4zM340 55q1 5 5.5 5t4.5 -5v-2q-1 -5 -5.5 -4.5t-4.5 5.5v1z" />
    <glyph glyph-name="numbersign" unicode="#" horiz-adv-x="601" 
d="M247 405q1 5 3.5 4.5t2.5 -5.5v-4h-3q3 3 3 0l100 -1l6 -2t7 -1q3 0 3 3h10v-5q-1 -2 1 -5q9 -8 23 -9t25 -1q2 0 2 3.5t-2 5.5q-8 0 -22 0.5t-19 5.5v3q0 1 -1 2l66 1l-96 105q-2 2 -4.5 8.5t-3 14t0.5 15.5t5 14q8 9 23.5 12.5t35.5 -9.5q40 -44 73 -78q14 -15 27 -29
t23.5 -24.5l17 -17l6.5 -6.5q4 -2 9.5 -7t11 -10.5t9.5 -10.5t5 -8v2q0 -3 -5 -5.5l-11 -5.5t-11.5 -6t-5.5 -6q0 -2 5 -3.5t10.5 -1.5t10 1t5.5 3q0 5 2.5 6.5t4.5 6.5v-5q0 -11 -5.5 -20.5t-12.5 -18t-14.5 -15t-10.5 -12.5l-131 -132q0 1 -5 -5t-13 -11.5t-19 -7t-23 9.5
q-11 9 -14 17.5t-1.5 16.5t5.5 16t9 16l88 90h-102q-9 0 -18 3t-18 5q-14 3 -19.5 6.5t-9.5 6.5t-9.5 5t-19.5 2q-4 0 -3.5 -9t4.5 -10q14 0 19 -1t9 -2t9 -2.5t19 -4.5q1 0 2 -1l-252 3q-12 -2 -17 -12q-4 2 -7 2q1 5 5 9q-5 0 -12.5 3.5t-15 10t-12.5 16t-5 21.5
q0 17 5.5 27t13.5 15t16 6.5t14 1.5l34 5q-6 -3 -9 -4q-3 -3 -2.5 -7t4.5 -3q11 7 22 7t22 2l127 1v4zM6 310q5 -1 5 -5.5t-5 -4.5h-2q-5 1 -4.5 5.5t5.5 4.5h1z" />
    <glyph glyph-name="dollar" unicode="$" horiz-adv-x="601" 
d="M83 443l3 3l-19 18q-8 8 -15 18t-10 22q-2 4 -5 1.5t-3 -6.5q1 -2 1.5 -4t1.5 -5l-20 27q-4 4 -9 11t-6.5 16.5t1.5 20t15 22.5q9 9 19.5 11.5t20 2t17 -3.5t11.5 -6q0 6 3 10q2 -2 6 -4q-4 -11 4 -20l202 -202h-2q-12 8 -17.5 11.5t-9.5 6t-9 6.5t-15 13q-3 2 -10 -4
t-4 -8q10 -10 16 -13t11.5 -4.5t12.5 -4t19 -10.5q8 -5 16.5 -8.5t14.5 -11.5l75 -76v128q0 18 12 36t40 15q16 -1 25.5 -9.5t14.5 -18t6.5 -17t1.5 -6.5v-213q-2 -6 -1.5 -16t-0.5 -21t-4 -21.5t-11 -18.5l-3 -3q2 4 1.5 7.5t2.5 6.5q1 2 -2 6t-6.5 8t-7.5 6t-6 1
q-2 -3 -0.5 -8.5t3.5 -11.5t3.5 -11.5t-0.5 -7.5q-1 -2 0.5 0t1.5 1q-3 -1 -9 -2.5t-13.5 -2t-14.5 -0.5t-11 1h-220q-18 0 -28 6t-15.5 14.5t-7 17.5t-1.5 15q0 14 7 23t16 14.5t17.5 7.5t11.5 2h125l-54 58q1 0 2 1l2 2q8 0 18 -10l15 -15q3 -1 6 1.5t1 4.5
q-8 8 -18.5 17.5t-22.5 9.5q-4 0 -4 -2l-2.5 -2.5l-1.5 -1.5l-7 7q1 2 0 5q-2 2 -5.5 3.5t-5.5 3.5l-158 160q-2 0 -2 3l2 -3l-3 -2q-3 -4 -5 -2.5t0 5.5zM51 611l-1 1q-3 3 0 6.5t7 0.5l1 -1q3 -3 0 -6.5t-7 -0.5z" />
    <glyph glyph-name="percent" unicode="%" horiz-adv-x="601" 
d="M247 403h4l-1 126q2 11 2 22t7 22q1 4 -3 4.5t-7 -2.5q-1 -3 -4 -9l5 34q0 6 1.5 14t6.5 16t15 13.5t27 5.5q12 0 21.5 -5t16 -12.5t10 -15t3.5 -12.5q4 4 9 5q0 -3 2 -7q-10 -5 -12 -17l5 -251q-1 1 -1 2q-3 14 -4.5 19t-2.5 9t-2 9t-1 19q-1 4 -10 4.5t-9 -3.5
q0 -14 2 -19.5t5 -9.5t6.5 -9.5t6.5 -19.5q2 -9 5 -18t3 -18v-102l74 71q8 4 16 8.5t16 6t16.5 -2t17.5 -13.5q10 -12 9 -23t-6.5 -19t-11.5 -13t-5 -5l-116 -114q-6 -3 -13 -10.5t-15 -14.5t-17.5 -12.5t-20.5 -5.5h-5q5 2 6.5 4.5t6.5 2.5q2 1 3 5.5t1 10t-1.5 10.5
t-3.5 5q-3 0 -6 -5.5t-6 -11.5l-5.5 -11t-5.5 -5h2q-3 1 -8 5t-10.5 9.5t-10.5 11t-7 9.5q-10 9 -21 20q-10 9 -21.5 20.5l-24.5 24.5l-68 66q-13 20 -9.5 35.5t12.5 23.5q6 4 14 5t15.5 0.5t14 -3t8.5 -4.5l85 -80l1 66q1 -1 2 -1h3q5 -5 5.5 -19t0.5 -22q2 -2 5.5 -2
t3.5 2q0 11 -1 25t-9 23q-4 2 -5 1h-5v10q3 0 3 3q0 4 -1 7l-2 6l-1 100q-3 0 0 3v-3h-4q-5 0 -5.5 2.5t4.5 3.5zM340 643v1q0 5 4.5 5.5t5.5 -4.5v-2q0 -5 -4.5 -5t-5.5 5z" />
    <glyph glyph-name="ampersand" unicode="&#x26;" horiz-adv-x="601" 
d="M351 405v-4l127 -1q11 -2 22 -2t22 -7q4 -1 4.5 3t-2.5 7q-3 1 -9 4l34 -5q6 0 14 -1.5t16 -6.5t13.5 -15t5.5 -27q0 -12 -5 -21.5t-12.5 -16t-15 -10t-12.5 -3.5q4 -4 5 -9q-3 0 -7 -2q-5 10 -17 12l-252 -3q1 1 2 1q14 3 19 4.5t9 2.5t9 2t19 1q4 1 4.5 10t-3.5 9
q-14 0 -19.5 -2t-9.5 -5t-9.5 -6.5t-19.5 -6.5q-9 -2 -18 -5t-18 -3h-102l88 -90q4 -8 8.5 -16t6 -16t-2 -16.5t-13.5 -17.5q-12 -11 -23 -9.5t-19 7t-13 11.5t-5 5l-131 132q-3 6 -10.5 12.5t-14.5 15t-12.5 18t-5.5 20.5v5q2 -5 4.5 -6.5t2.5 -6.5q1 -2 5.5 -3t10 -1
t10.5 1.5t5 3.5q0 3 -5.5 6t-11.5 6l-11 5.5t-5 5.5v-2q1 3 5 8t9.5 10.5t11 10.5t9.5 7l6 6.5t16.5 17t23.5 24.5t27 29l74 78q20 13 35.5 9.5t23.5 -12.5q4 -6 5 -14t0.5 -15.5t-3 -14t-4.5 -8.5l-96 -105l66 -1q-1 -1 -1 -2v-3q-5 -5 -19 -5.5t-22 -0.5q-2 -2 -2 -5.5
t2 -3.5q11 0 25 1t23 9q2 3 1 5v5h10q0 -3 3 -3q4 0 7 1l6 2l100 1q0 3 3 0h-3v4q0 5 2.5 5.5t3.5 -4.5zM592 310h1q5 0 5.5 -4.5t-4.5 -5.5h-2q-5 0 -5 4.5t5 5.5z" />
    <glyph glyph-name="parenleft" unicode="(" horiz-adv-x="601" 
d="M235 663q5 -10 5 -23q11 3 23 5t24 2q66 0 124 -27t102 -93q16 -25 28 -40.5t19.5 -33t11.5 -41t4 -64.5q0 -42 -2.5 -64t-9 -37.5t-18 -31t-29.5 -44.5l-2 -2q-1 -1 -1 -2q11 -5 7 -13t-15 -19l-4 -4q-9 -5 -12 -9.5t-11 -0.5q-5 -5 -13 -7.5t-13 -7.5q5 -10 3 -16
t-8.5 -9.5t-15.5 -5.5l-18 -4q-2 0 -6 2q-26 -14 -57 -18t-64 -4q-66 0 -118.5 27t-104.5 93q-21 27 -33.5 42.5t-19.5 31t-9 38.5t-2 65q0 41 3.5 64.5t12 41.5t21.5 36t32 48q13 20 27.5 33.5t30.5 23t33 17t34 15.5q-2 2 -4 3.5t-4 5.5q8 -5 13 -2t10 8q0 10 11 10
q5 2 8 5.5t4 6.5zM327 139q13 2 35 11t43 21t37 25t18 22q4 15 9 23.5t15 17.5q4 -1 6 -1q0 2 -2 9.5t0 11.5q3 7 3 12q4 18 7 25t4.5 9t2 1t1 -0.5t0 5t-0.5 17.5l-2 28v4q-2 18 -5.5 29.5t-14.5 27.5q-6 12 -11 21t-10.5 18t-12.5 17.5t-19 18.5q-5 5 -9 7t-8 3.5t-7.5 4
t-7.5 8.5q-5 9 -12 20t-24 11h-35v-427zM246 566q0 9 -10 6t-22.5 -11t-25 -18t-17.5 -16q-7 -2 -17.5 -10.5t-14.5 -13.5q-17 -25 -28 -36t-18.5 -21.5t-12 -27.5t-6.5 -54l-2 -37q1 -12 2.5 -20.5t4.5 -16.5t10 -17.5t21 -25.5q12 -14 17.5 -21t8.5 -11.5t5.5 -9
t8.5 -13.5q1 -3 6.5 -6l11 -6t10 -5.5t4.5 -3.5q4 -5 9.5 -5.5t8.5 -3.5q1 3 1 1.5t0.5 -4t2 -4.5t4.5 0l2 -2l2 -3q8 -5 18.5 -4.5t18.5 -1.5zM559 172q-7 -7 -6 -12.5t3 -12.5q-3 -4 -8 -8q-1 1 -2 1.5t-3 2.5q-9 7 -11 15t1.5 15t12 11t19.5 3q-1 -2 -1 -6.5v-6.5
q-2 -1 -3 -1t-2 -1zM450 630q-9 0 -13 7t-6 11q0 -2 4.5 -5l9 -6t6.5 -5t-1 -2zM471 642q2 0 3 0.5l3 1.5v-14q-1 1 -3 5.5t-3 6.5z" />
    <glyph glyph-name="parenright" unicode=")" horiz-adv-x="601" 
d="M235 657q3 -6 4.5 -10.5t1.5 -12.5q21 6 47 6q66 0 124 -26t102 -92q16 -24 28 -39.5t19.5 -32.5t11.5 -41t4 -64q0 -41 -2.5 -62.5t-9 -37t-18 -31.5t-29.5 -45q-1 0 -2 -1t-1 -2q11 -5 6.5 -12.5t-14.5 -18.5l-5 -4q-8 -5 -11 -9t-11 -2q-5 -5 -13 -7t-13 -7
q6 -9 4 -14.5t-8.5 -9.5t-16 -6t-19.5 -4q-2 0 -6 2q-26 -14 -57 -18t-63 -4q-66 0 -120 26t-104 91q-21 27 -33.5 43t-19.5 31.5t-9 38t-2 63.5q0 40 3.5 63.5t12 41.5t21.5 36t32 47q13 20 27.5 33.5t31 23t33.5 17t34 15.5q-2 2 -4 3t-4 5q13 -8 22 6q0 10 11 10
q5 2 8 5.5t4 6.5zM408 137q14 2 25 11t20 21t15.5 24t11.5 20q6 7 7.5 12.5t2.5 10.5t1.5 9.5t5.5 9.5q4 -1 6 -1q0 2 -1.5 9.5t0.5 12.5q2 4 3 6.5t1 5.5q6 25 8.5 30.5t2.5 6.5t-1.5 3.5t-1.5 22.5l-4 31v6q-2 17 -4.5 23.5t-12.5 20.5q-6 12 -4.5 13.5t3 1.5t0 1
t-13.5 12q-11 10 -14.5 16t-11.5 17q-2 4 -2.5 8.5t-2 8t-5 5.5t-11.5 2q-5 0 -11 11t-12 11v-402zM560 170q-7 -6 -6 -11.5t3 -12.5q-4 -4 -8 -7q-1 1 -6 4q-9 6 -10.5 14.5t2 15t12 11t19.5 3.5q-1 -4 -1 -7.5v-6.5q-2 -2 -3 -2t-2 -1zM452 624q-8 0 -13 7t-8 11
q1 -2 5.5 -5l9 -6t7 -5t-0.5 -2zM473 636q-1 0 5 2v-14q-1 1 -2.5 5.5t-2.5 6.5zM243 119q6 -6 20 -8.5t29 -2.5t27.5 2.5t15.5 6.5v451q0 9 -12.5 12.5t-29 3.5t-31.5 -3.5t-20 -9.5zM165 528q0 9 -13.5 -0.5t-30.5 -31.5t-32 -54.5t-17 -68.5l-2 -36q2 -12 1 -23t-0.5 -23
t5.5 -25t18 -28q12 -14 17 -18.5t8 -7t5.5 -5.5t8.5 -12q2 -2 7 -6t10.5 -8t10 -7.5t4.5 -4.5v359z" />
    <glyph glyph-name="asterisk" unicode="*" horiz-adv-x="601" 
d="M416 257l-3 -3l19 -18q8 -8 15 -18t10 -22q2 -4 5 -1.5t3 6.5q-1 2 -1.5 4t-1.5 5l20 -27q4 -4 9 -11t6.5 -16.5t-1.5 -20t-15 -22.5q-9 -9 -19.5 -11.5t-20 -2t-17 3.5t-11.5 6q0 -6 -3 -10q-2 2 -6 4q4 11 -4 20l-202 202h2q12 -8 17.5 -11.5t9.5 -6t9 -6.5t15 -13
q3 -2 10 4t4 8q-10 10 -16 13t-11.5 4.5t-12.5 4t-19 10.5q-8 5 -16.5 8.5t-14.5 11.5l-75 76v-128q0 -18 -12 -36t-40 -15q-16 1 -25.5 9.5t-14.5 18t-6.5 17t-1.5 6.5v213q1 6 1 16t1 21t4 21.5t11 18.5l3 3q-2 -4 -1.5 -7.5t-2.5 -6.5q-1 -2 2 -6t6.5 -8t7.5 -6.5t6 -0.5
q2 3 0.5 8.5t-3.5 11.5t-3.5 11.5t0.5 7.5q1 2 -0.5 0t-1.5 -1q3 1 9 2t13.5 2t14.5 1t11 -1h220q18 0 28 -6t15.5 -14.5t7 -17.5t1.5 -15q0 -14 -7 -23.5t-16 -14.5t-17.5 -7t-11.5 -2h-125l54 -58q-1 0 -2 -1l-2 -2q-8 0 -18 10l-15 15q-3 1 -6 -1.5t-1 -4.5
q8 -8 18.5 -17.5t22.5 -9.5q4 0 4 2l2.5 2.5l1.5 1.5l7 -7q-1 -3 0 -5q2 -2 5.5 -3.5t5.5 -3.5l158 -160q2 0 2 -3l-2 3l3 2q3 4 5 2.5t0 -5.5zM448 89l1 -1q3 -3 0 -6.5t-7 -0.5l-1 1q-3 3 0 6.5t7 0.5z" />
    <glyph glyph-name="plus" unicode="+" 
d="M187 405q1 5 4.5 4t5.5 -5l3 -4l-1 150q2 14 7 25q5 9 14.5 17t27.5 8q20 0 30 -7.5t14.5 -17t5.5 -17.5l1 -8l1 -150q2 -1 10 -1.5t17 -1t16.5 -0.5h10.5q4 0 4 3h14q-1 -1 -1 -4q-1 -3 2 -6q13 -9 32.5 -9.5t35.5 -1.5q4 1 4 4.5t-4 5.5h-13.5t-17 0.5t-16.5 2t-12 4.5
v2q0 1 -1 2l77 -1q-1 -5 3.5 -6t6.5 4q0 1 1 2q19 0 25 -12q-2 -2 -2 -4q0 -3 -4.5 -8.5t-9.5 -12t-10 -12.5t-5 -9q1 -5 4.5 -5t5.5 4q0 2 3 6t6.5 8.5t7 8.5t4.5 6l6 -18q3 -8 0.5 -16.5t-7.5 -16.5t-12.5 -13t-15.5 -5h-11q2 5 -2 6q-16 3 -25 3.5t-15.5 -1t-14 -4.5
t-20.5 -5h-12q-13 2 -32.5 0.5t-32.5 0.5v-149q-4 -13 -6.5 -21t-7 -13.5t-12.5 -9t-23 -7.5q-29 2 -40 11t-11 40v11.5v28v36v36v27v10.5h-148q-14 -2 -22 -11q-6 2 -10 2q3 6 7 9q-14 1 -20.5 18t-6.5 32q0 16 8 33t24 17h47q-4 -2 -7 -2.5t-6 -2.5q-5 -2 -4 -6.5t7 -3.5
q14 7 29.5 10t31.5 5h57v5v0z" />
    <glyph glyph-name="hyphen" unicode="-" 
d="M187 405q1 5 4.5 4t5.5 -5l3 -4h100q2 -1 10 -1.5t17 -1t16.5 -0.5h10.5q4 0 4 3h14q-1 -1 -1 -4q-1 -3 2 -6q13 -9 32.5 -9.5t35.5 -1.5q4 1 4 4.5t-4 5.5h-13.5t-17 0.5t-16.5 2t-12 4.5v2q0 1 -1 2l77 -1q-1 -5 3.5 -6t6.5 4q0 1 1 2q19 0 25 -12q-2 -2 -2 -4
q0 -3 -4.5 -8.5t-9.5 -12t-10 -12.5t-5 -9q1 -5 4.5 -5t5.5 4q0 2 3 6t6.5 8.5t7 8.5t4.5 6l6 -18q3 -8 0.5 -16.5t-7.5 -16.5t-12.5 -13t-15.5 -5h-11q2 5 -2 6q-16 3 -25 3.5t-15.5 -1t-14 -4.5t-20.5 -5h-12q-13 2 -32.5 0.5t-32.5 0.5h-100h-148q-14 -2 -22 -11
q-6 2 -10 2q3 6 7 9q-14 1 -20.5 18t-6.5 32q0 16 8 33t24 17h47q-4 -2 -7 -2.5t-6 -2.5q-5 -2 -4 -6.5t7 -3.5q14 7 29.5 10t31.5 5h57v5v0z" />
    <glyph glyph-name="period" unicode="." horiz-adv-x="700" 
d="M290 116q1 -2 1.5 -2.5t0.5 -2.5q4 2 8 2q13 0 24 -5t19 -18q7 -10 10 -14t3 -20q0 -8 -0.5 -12t-2 -7t-3.5 -6l-6 -9q2 -1 -2 -7h-1q-2 -1 -2 -2t-2 0q-1 -1 -2.5 -1t-2.5 -2q2 -4 -1 -4.5t-7 -1.5h-1q-8 -4 -23 -4q-13 0 -23 5t-19 17q-5 5 -7.5 8t-3.5 6t-1.5 7.5
t-0.5 12.5q0 16 3 20.5t10 15.5q5 8 11.5 11t13.5 6l-2 2q2 -1 4 1q0 2 2 2t2 2h1zM352 22v-4l-1 -1h-2q-4 3 -2 6t7 3q-1 -1 -1 -3zM332 110q-2 0 -2.5 1t-1.5 2q3 -3 4 -3zM337 112v-2l-2 2h2z" />
    <glyph glyph-name="slash" unicode="/" horiz-adv-x="601" 
d="M431 512q2 -4 0 -5.5t-5 2.5l-3 2l2 3q0 -3 -2 -3l-152 -234q-2 -2 -5.5 -3.5t-5.5 -3.5q-1 -3 0 -5l-7 -7l-1.5 1.5l-2.5 2.5q0 2 -4 2q-12 0 -22.5 -9.5t-18.5 -17.5q-2 -2 1 -4.5t6 -1.5l15 15t18 10l2 -2q1 -1 2 -1l-35 -68l-105 -155q-3 -5 -12 -11.5t-20.5 -11
t-21.5 -5.5t-14 4q0 1 1.5 -1t0.5 0q-2 2 -0.5 7.5t3.5 11.5t3.5 11.5t-0.5 8.5q-2 1 -6 -1t-7.5 -6t-6.5 -8t-2 -6q3 -3 2.5 -6.5t1.5 -7.5l-3 3q-8 8 -13.5 18t-8.5 20.5t-2.5 19.5t3.5 15l102 153l74 120q5 8 14 11.5t17 8.5q12 8 17.5 10.5t9.5 5t8.5 6t14.5 13.5
q3 2 0.5 6.5t-5.5 2.5q-10 -9 -15 -13t-9 -6.5t-9.5 -6t-17.5 -11.5h-2l191 289q8 9 4 20q4 2 6 4q3 -4 3 -10q4 3 11.5 6t17 3.5t20 -2t19.5 -11.5q12 -12 16.5 -25t4 -25t-4 -21.5t-7.5 -13.5l-20 -27q1 3 1.5 5t1.5 4q0 4 -3 6.5t-5 -1.5q-3 -12 -6 -28.5t-11 -24.5
l-16 -18zM378 669q-4 -3 -7 0.5t0 6.5l1 1q4 3 7 -0.5t0 -6.5z" />
    <glyph glyph-name="zero" unicode="0" 
d="M454 554l7 -21.5t15.5 -52.5t16 -66.5t7.5 -64.5q0 -138 -66 -239q-1 0 -1 -1q-1 -1 -1 -2q9 -4 10.5 -14t-7.5 -19l-4 -3q-8 -5 -15.5 -5t-13.5 2l-16 -16q5 -8 3.5 -16t-6.5 -13.5t-13.5 -6t-17.5 5.5q-1 0 -5 2q-23 -11 -46.5 -17.5t-50.5 -6.5q-50 0 -89.5 16
t-57.5 47l-32 -47q-15 -15 -30.5 -17t-26 8t-14 30t6.5 47l39 58q-26 46 -36 96t-10 111q0 140 65 239q11 17 16.5 27t10.5 16t12 11.5t20 13.5l-3.5 3.5l-3.5 3.5q12 -6 19 6q0 8 9 8q9 3 11 10l3 -1q2 -5 3.5 -9t1.5 -10q0 10 11.5 16.5t25.5 10.5t28 5t19 1q84 0 147 -63
l30 48q19 16 35.5 13.5t26.5 -15t12 -32t-7 -35.5q-2 -5 -8 -15t-12.5 -20t-11.5 -18t-6 -9zM471 111q-5 -5 -4.5 -10t2.5 -11q-4 -4 -7 -6q-1 1 -2 1t-3 2q-8 6 -9.5 12.5t1.5 12.5t10.5 9.5t16.5 2.5q-1 -2 -1 -5.5v-5.5q-1 -1 -2 -1t-2 -1zM71 631q-5 2 -6.5 5t-3.5 5
q2 -2 4.5 -5t5.5 -5zM87 650q1 0 5 2q0 -2 -1 -3.5t-1 -2.5q-2 2 -3 4zM153 131q7 -11 18 -21q5 -6 5 -13q6 -6 14 -12q1 7 12 14l2 -2l2 -2q7 -4 14.5 -6.5t15.5 -3.5v-6q3 1 5 2.5t5 2.5q8 0 13.5 1t10.5 3q2 -8 12 -9q12 1 26 12.5t26 25.5t19.5 28.5t5.5 22.5q8 9 10 20
t10 19q3 -1 5 -1q0 2 3 10q3 6 3 10q9 28 13 57t4 64l-13 17v4q-2 15 2.5 33t-4.5 31q-1 5 -1.5 11t-1.5 11zM342 559q-9 6 -19.5 8.5t-21.5 3.5q3 8 -1.5 16.5t-18.5 11.5q-9 0 -20 0.5t-22 0.5t-21 -2.5t-17 -8.5q-31 -2 -47 -20q-3 -1 -8 -8.5t-10.5 -16.5t-10 -17
t-6.5 -10q-7 -24 -13 -42.5t-10.5 -37t-7 -39.5t-2.5 -51v-19q13 -3 18 -18q1 -19 2.5 -37.5t4.5 -37.5z" />
    <glyph glyph-name="one" unicode="1" 
d="M382 -1h-47.5t-20.5 0.5t-19 0.5t-41 -1q0 1 -5 0.5t-5 0.5h-52q-21 0 -31.5 15.5t-10.5 32.5q0 18 14.5 34t35.5 16h52v100q-3 -3 -6 -3q-2 11 -5.5 21.5t-5.5 21.5q6 0 17 -3v163q-3 1 -3 2l3 143q-2 -1 -4 -1t-4 -2q0 2 -1 3.5t-1 2.5l-36 -10q-8 -2 -12 -2
q-42 0 -42 37q0 18 3.5 27.5t9.5 15.5t15 10.5t20 11.5q3 3 7.5 8.5t10 11t11.5 9t11 1.5q15 13 23.5 20t14.5 10t10.5 3.5t11.5 0.5q22 0 37 -9.5t15 -26.5v-539q6 -6 5.5 -11.5t4.5 -14.5q0 -4 2 -5q2 -4 2 -8t1 -7l11 23q-6 5 -8 10q10 3 13 11q0 5 -1 5q5 -1 9 -1.5
t9 -0.5q9 1 13 9h1q8 -9 6.5 -17t-7.5 -16q28 -2 35.5 -17t7.5 -33q0 -17 -11 -35.5t-31 -17.5l-22 1zM376 600q-11 7 -11 18l9 -1q3 -5 12 -6q-2 -4 -5 -6t-5 -5zM219 201q-8 5 -9 11.5t2 12.5q2 -6 3.5 -12t3.5 -12zM250 588q0 -1 7.5 -10t9.5 -11v7z" />
    <glyph glyph-name="two" unicode="2" 
d="M195 608q-5 -1 -17 -4t-25.5 -7.5t-24.5 -9.5t-14 -10q-12 -6 -17.5 -14.5t-18.5 -17.5v-11q0 -35 -39 -35t-39 35v31q0 20 20 43t55 46q14 9 36 17.5t47.5 14.5t52 10t48.5 4q48 0 95.5 -12.5t79.5 -39.5q33 -28 49.5 -68t16.5 -80q0 -18 -6 -34.5t-16.5 -33.5
t-25.5 -36t-33 -42q-13 -17 -33.5 -33t-45.5 -32.5t-52 -33.5t-52 -35q-23 -12 -39 -19.5t-28.5 -14l-25 -13t-27.5 -16.5q-5 -5 -9 -14.5t-6.5 -19t-3 -16.5t2.5 -7q0 -1 14 -1h30.5t31 -0.5t14.5 -1.5q5 -10 12.5 -12.5t21.5 -4.5l2.5 3t5.5 7t5.5 7.5t1.5 2.5l87 -10
q0 3 4.5 4.5t11 2.5t13.5 1.5t12 1.5q1 0 6 -0.5t11 -1.5t12 -0.5t8 2.5q7 16 14.5 26t31.5 10q28 0 39 -12.5t11 -26.5q0 -2 -0.5 -3t-0.5 -3q-3 -12 -5 -23.5t-5 -22.5l11 8q-5 -10 -1 -26t1 -27q-2 0 -11.5 2.5t-11.5 4.5q-2 1 -6 5q-12 -10 -26 -10h-85q0 -3 -3 -2
l-7.5 2.5t-9 2t-6.5 -4.5q-9 0 -14 3t-13 4q-5 0 -8.5 -2t-5 -3.5l-2 -2t-0.5 2.5l-132 -2q-2 7 -10.5 8t-21.5 -1q-5 -1 -8.5 -5.5t-4.5 -1.5h-76q-23 0 -31 6t-8 32v12v15t0.5 23t2 22.5t4.5 13.5q3 8 7.5 21.5t11 28.5t16.5 30t25 26q13 11 30.5 19.5t35 16.5t33.5 16
t27 17q-3 -1 -5.5 -1h-4.5q4 5 10 8.5t13 7t13.5 7t10.5 8.5q2 -3 5.5 -4t2.5 -4l5 4q-2 3 -3 5.5t1 6.5q6 7 13 10t13.5 5.5t13 6t12.5 11.5q3 0 8.5 3t11.5 6.5t11.5 6t7.5 0.5q21 25 35.5 40t23.5 26.5t13 22t4 25.5q0 25 -4 42t-24 34q-7 6 -22 7t-23 5q-9 10 -23 17
q-7 6 -20 11t-27 7.5t-26 0t-18 -11.5h-1q-7 0 -12.5 -1t-11.5 -3zM139 405q7 3 15 2q-10 -10 -18 -18.5t-16 -16.5q-2 2 -2 9q2 9 7.5 14t13.5 10zM217 448q2 2 4.5 5t5.5 6q-3 -9 -8 -18.5t-10 -19.5q-4 1 -5 4q-1 0 -1.5 0.5t-1.5 0.5t-2 1q2 6 7 9q9 3 6 11q4 0 5 1z
" />
    <glyph glyph-name="three" unicode="3" 
d="M288 437q8 -4 16 -3t16 4q4 -16 -8 -23q24 7 41 23q17 13 36 27.5t21 34.5q-7 2 -5 8.5t1 14.5q0 11 -1.5 17t-6 9.5t-12.5 5t-21 3.5q-14 7 -16 18t9 18q-8 3 -21 7.5t-27 8t-28 6t-24 2.5q-14 0 -34 -3t-40.5 -7.5t-40 -11t-32.5 -13.5q1 -4 -0.5 -6t-1.5 -5
q-4 -14 -18.5 -12.5t-28.5 0.5q-2 1 -4.5 1t-4.5 1q-10 -5 -20 -5q-15 0 -24 14.5t-9 28.5t15 25q9 7 60 37q19 9 43.5 16t50 11.5t49 7t41.5 2.5q24 0 50.5 -3.5t51 -10.5t46 -17.5t35.5 -23.5q58 -50 58 -128q0 -19 -8.5 -35.5t-21.5 -32t-29 -29t-31 -26.5q1 -2 2 -3
t1 -3h-7q-10 -5 -8.5 -12.5t12.5 -9.5q1 0 2.5 0.5t5.5 0.5q-2 -5 -6 -8q42 -26 64.5 -61.5t22.5 -86.5q0 -45 -18.5 -83.5t-51.5 -67.5q-70 -59 -185 -59q-29 0 -59 5t-62 14q-33 10 -60.5 22.5t-48.5 29.5q-15 12 -15 25q0 7 3.5 18t9 21t13 17.5t15.5 7.5q12 0 25 -8
q2 -2 12 -7q38 -23 73.5 -38t82.5 -15q20 0 36.5 1.5t30.5 6.5q-5 3 -7 8q6 3 11.5 3.5t10 1.5t7.5 5t5 13v3q1 -2 2.5 -1.5t2.5 -1.5q7 -8 5 -18q8 4 14.5 8.5t13.5 9.5q10 9 18.5 17t14.5 16.5t9 18.5t3 25q0 16 -2.5 28t-8 21t-14 16.5t-20.5 15.5q-4 -7 -11 -10
t-13.5 -2t-12 5.5t-7.5 13.5q0 -4 -0.5 -4t-2.5 14l-1 2q-21 7 -44 8q-1 -2 -1 -6q-3 3 -0.5 3.5t6 -1t6.5 -4.5t2 -7q0 -5 -1 -9q-6 0 -12 6l-9 3t-12 4.5t-10.5 5t-4.5 4.5q-20 1 -28.5 10.5t-8.5 26.5t13 32.5t33 15.5q18 0 28 3t24 7q-4 1 -7 2t-7 3q-10 7 -10 17v2l4 2
t4 3q4 -2 6 -2zM469 39q-8 5 -10.5 12t1.5 12q1 -2 2 -3l2 -2q2 -2 4.5 -3t6.5 -3h11q-1 -8 -5 -17q-8 0 -12 4z" />
    <glyph glyph-name="four" unicode="4" 
d="M345 501q-1 12 10.5 20.5t26.5 10t27.5 -5.5t12.5 -26q1 -6 1 -27.5v-54.5v-76v-92l25 1q2 7 3 7.5t2.5 -1.5t5 -4.5t10.5 -2.5q10 0 16 1.5t9.5 1t4.5 -4.5t1 -16q0 -5 0.5 -19t-0.5 -20q-3 -10 -7 -10.5t-16 -0.5h-33q-6 -3 -11 -2t-7.5 0.5t-3.5 -4.5t1 -15v-45
q4 -5 5 -10q0 -3 2 -3q2 -2 -4 -8.5t-4 -9.5q0 -1 1.5 -8t3.5 -7q-1 -3 0.5 -2.5t4.5 2.5t7.5 3t8.5 -1v-5l23 -1q19 -1 23 -8.5t4 -24.5t-4 -25t-23 -8h-145q-20 0 -23 8t-3 25t3 25.5t23 8.5h19v94q-9 3 -14 13q-4 2 -5 8h-289q-16 0 -27 10t-11 24v17q1 8 2.5 11.5
t2.5 5.5l34 55q-1 0 -2 1q-10 6 -11 13.5t3.5 13.5t13 8.5t19.5 -1.5l183 339q11 18 28.5 20t31.5 -6t19.5 -23t-7.5 -30l-108 -219q2 -2 2.5 -3l1.5 -3v-3q-4 -22 -25 -24l-25 -27q-1 -4 -1.5 -10t-4.5 -8l-40 -72q2 -3 2.5 -5.5t2.5 -4.5v-2q0 -1 -0.5 -1.5t-0.5 -1.5
q2 -2 7.5 -3t5.5 -3h104q-1 0 0 1q1 0 2 1q5 5 17 2t17 2q4 4 14.5 4.5t22 -0.5t21.5 -3t13 -5q4 7 -1.5 18t-3.5 19q4 5 2 15.5t4 10.5v30v156zM242 384q1 -2 2 -4.5t1 -5.5q-5 3 -13 -2q-6 -5 -9 -10.5t-6 -13.5q-1 1 -2.5 2t-3.5 3q-10 6 -10.5 14t4.5 14t15 7.5t22 -4.5
zM477 126q5 -7 5 -14t-4 -12.5t-10.5 -8.5t-13.5 0q11 -2 12.5 7.5t-9.5 12.5h-2q0 7 5 13q1 2 1.5 3.5t1.5 3.5q3 -1 6.5 -2t7.5 -3z" />
    <glyph glyph-name="five" unicode="5" 
d="M81 687q19 5 41.5 8.5t46 4.5t45.5 -2t39 -11q7 1 17 4.5t9 8.5l172 -2q38 0 38 -36q0 -3 0.5 -14t0.5 -23.5v-23t-1 -12.5q-17 -1 -34 -0.5t-35 -1.5q-1 2 -2.5 10t-5.5 9h-52t-52 -2h-28.5t-29.5 -2q-7 0 -25.5 1t-39.5 1.5t-39 -0.5t-24 -5q-2 -2 -7.5 -1t-5.5 -1
q-2 -1 -3 -1t-3 -2h-3q-1 -2 -2.5 -4.5t-3.5 -6.5q1 -6 0.5 -20.5t-1 -31t-1 -31t0.5 -21.5q1 -5 4 -9.5t9 -6.5l11 7q11 10 32 16t43.5 9.5t43 4.5t31.5 1q53 0 102 -22.5t83 -58.5q15 -17 24.5 -38t15 -44t7 -47.5t1.5 -48.5q-3 -4 -3.5 -13.5t-2.5 -12.5
q8 -48 -16.5 -96.5t-84.5 -83.5q-12 -7 -20.5 -10t-22.5 -8q-11 -5 -24 -8.5t-24 -14.5q-12 -7 -23 -2.5t-15 14.5q-6 -2 -13.5 -3t-14.5 -1q-35 0 -69 6.5t-63.5 17.5t-53.5 26t-37 32q-7 9 -10 15.5t-3 16.5q0 15 12 26q8 8 18 11q0 8 6 13.5t19 5.5q11 -2 21 -8.5
t20 -14.5q3 -5 8 -9t5 -7q21 -13 41 -19.5t37 -9.5t31 -3.5t23 -0.5q21 0 37.5 0.5t30.5 3.5t26.5 9.5t25.5 18.5q11 9 14.5 18.5t10.5 20.5q-17 -2 -23 16q4 2 6 7v2q5 -4 11.5 -2t7.5 13q-2 19 -11 22l2 1q6 5 13.5 6t13.5 -1q1 3 1 7v9q0 35 -6.5 56t-27.5 44
q-10 9 -20 17q0 -17 -13 -23v8q-4 10 -12.5 10t-11.5 -11v-2q-11 9 -8 20t14 16q-14 6 -34 9.5t-38 3.5t-40.5 -1.5t-46.5 -6t-48 -12t-45 -18.5q-11 -8 -25 -8q-32 0 -32 38v278q0 12 11 25q2 2 5 3q1 -2 7.5 1t9.5 1h33q1 -3 -1 -8t3 -5zM477 63q1 -2 2 -4.5t1 -5.5
q-15 -3 -23 -10q3 4 3 10q5 2 7 6.5t-1 7.5q1 0 1 1t0.5 2t2 -0.5t7.5 -6.5zM446 30q-14 10 -8 24v-3q1 -8 6 -10t10 0q-4 -3 -8 -11zM277 584q-4 -2 -5 3.5t-4 6.5q7 -1 13.5 -1t14.5 -1z" />
    <glyph glyph-name="six" unicode="6" 
d="M479 69l-4 -0.5t-8 -2t-7.5 -5t-3.5 -10.5q0 -4 2 -6q-2 -4 -3.5 -6t-2.5 -5q-1 1 -7 3q-9 5 -11 13q-6 -3 -19 -3h-1q-62 -47 -159 -47q-129 0 -198 94q-29 40 -43 90t-14 110q0 192 109 297q58 55 137.5 82t195.5 27q21 0 31 -12.5t10 -29.5q0 -13 -8 -25.5t-25 -12.5
q-42 0 -73 -2.5t-63 -11.5q2 -7 1 -9q-1 -3 -5 -1.5t-9.5 1t-12.5 -5t-13 -18.5q-2 -3 -5 -2.5t-6.5 3t-6.5 6t-5 5.5q-31 -14 -53.5 -29t-39 -35t-28 -45.5t-19.5 -59.5q-2 -5 -2.5 -11t0.5 -10.5t5.5 -5.5t13.5 4q56 37 130 37q52 0 95.5 -10t82.5 -39t51 -66t12 -92
q0 -42 -10 -66t-21 -44l1 -2q9 -11 4 -22t-16 -15q5 1 10 -0.5t11 -3.5v-1zM399 241q-2 2 2 4.5t2 5.5h-1q0 7 -1 13t-1 12q-8 19 -14 -1q0 -5 1 -10.5t2 -12.5q-8 12 -13.5 22.5t-7.5 22.5q-2 8 -5 16t3 11q-20 18 -50 24t-56 6q-33 0 -66 -7t-55 -33q-9 -11 -16 -18
t-11.5 -15.5t-7 -21t-4.5 -34.5q0 -12 4 -26.5t11 -29t17 -28t22 -22.5q24 -19 48 -27t53 -8h12q2 18 29 22q7 -1 12 -3.5t8 -4.5q6 -2 6 -3q7 2 12 8t11 11q0 1 1 1l-1 -1q2 2 4 3l1 1l4 2l5 5q4 -5 11.5 -5t11.5 8q2 7 4 7t3 9q8 14 13 26.5t5 31.5v8q-10 2 -13 6v10
q2 2 4.5 6t0.5 9zM451 74v-1q1 0 2 1h-2z" />
    <glyph glyph-name="seven" unicode="7" 
d="M63 696q6 0 12 2t11 2q2 -5 4.5 -10t9.5 -6h49q2 -2 9 -2q0 -1 4 -1l4.5 1.5t3.5 1.5h42q6 2 8 4.5t3 5.5q5 0 10.5 1t11.5 1q26 3 47 4t41 1t41.5 -0.5t48.5 -0.5h46q20 -2 25.5 -8t5.5 -22v-12t-0.5 -21t-1.5 -21t-2 -12l-81 -141l1 -1q11 -13 4.5 -25.5t-20.5 -12.5
l-48 -109q6 -4 7.5 -8.5t-2.5 -13.5q-21 -13 -32.5 -36t-17.5 -54t-7 -68t0 -79q-6 -11 -3.5 -15.5t-6.5 -1.5l10 -21q3 -6 -3 -9.5t-16 -5.5t-21 -2.5t-18 -0.5q-42 0 -42 35q0 2 1 5.5t1 6.5l1 92q-3 0 -2.5 9.5t2.5 21.5t4 23t2 15h4q4 2 5.5 4t1.5 4t0.5 5t2.5 6
q3 7 -1.5 13t-10.5 8q3 1 5 5t3.5 8t3 7.5t3.5 2.5q10 37 28.5 80t37 82t34.5 71t21 49q-4 0 1 7t11.5 15t11 15.5t0.5 9.5q2 1 -10.5 1.5t-27.5 0.5t-28 -0.5t-12 -1.5q2 -2 -2.5 -2.5t-7.5 -1.5q-7 2 -13.5 3.5t-14.5 3.5q-7 3 -11 2.5t-7 -2t-7 -3t-11 -0.5h-9t-13 -0.5
t-13 -0.5t-7 1h-77q-6 0 -4.5 -3t4.5 -7.5t5.5 -10.5t-1.5 -12t-17.5 -12t-41.5 -10q-17 -3 -30 9.5t-14 26.5l-1 61q10 27 17.5 44t25.5 14l18 -3q0 -1 2 -1zM160 696l7 1t15 1t14 -2t4 -8h-19.5t-30 0.5t-29.5 0.5h-19q3 3 10.5 5.5t16.5 4t17.5 1t13.5 -3.5z" />
    <glyph glyph-name="eight" unicode="8" 
d="M90 373q-2 4 -2 6q-80 52 -80 137q0 77 72 131q71 53 170 53q102 0 171 -53q36 -28 54 -60t18 -71q0 -87 -87 -141q8 0 20 -5q5 -7 4.5 -14t-3.5 -13q74 -54 74 -137l-3 -2q8 -48 -12.5 -84.5t-58.5 -62t-88.5 -39.5t-103.5 -18q-6 1 -15.5 1.5l-19 1t-16.5 2.5t-8 5
q-20 2 -33 7t-23.5 13t-21 18t-25.5 21q-73 57 -73 137q0 96 98 153v1q0 4 -2 8l-3 2zM374 287q-2 0 -3 0.5t-3 0.5q-16 14 -38.5 23.5t-51.5 11.5q-5 0 -7 -1q-28 1 -47.5 3t-35.5 -12q2 -2 4 -3l4 -2l-24 4q-2 -2 -5 -6.5t-5.5 -7.5t-4.5 -2t-2 10q-8 -1 -10.5 -10
t-6.5 -17q-7 -7 -9 -13t-8 -12q-5 -3 -8 -4t-5 -1t-4 -1.5t-4 -5.5t-2.5 -9t-1.5 -10q-1 -6 -4 -14t-4.5 -15.5t0.5 -14.5t11 -11q15 -10 20 -18t1 2q1 -6 2.5 -6.5l3 -1t3.5 -3.5t5 -15t19 -26.5t28 -19.5q5 -2 5 2.5t5 6.5l4 3q2 3 7 0t5 0q2 0 4 2q0 -6 10 -10h2
q27 -5 53 -3.5t47.5 10t37 23.5t20.5 38q5 5 9.5 9t10.5 10q6 9 0 15q8 19 4 38q-1 6 -2.5 11.5t-5.5 10.5q-2 31 -23 41zM147 414q11 -7 19 -1h7t8 -1q19 -8 38.5 -10.5t43.5 -2.5q2 1 3 1t3 1q2 -1 8 -1q29 0 52.5 8t34.5 26q4 4 11.5 10.5t14 12.5t11 12t3.5 11
q-2 5 0.5 10t0.5 10q2 8 -0.5 14.5t-4.5 13.5v6q-1 9 -9 17t-14 15q-1 2 -2.5 3.5t-2.5 3.5v2h-1q-6 4 -8 4q0 2 -2 2q-7 11 -23.5 16.5t-28.5 13.5q-8 5 -15 1q-5 0 -8 -3h-2q-14 10 -31 12t-37 -6l-4 -3q-3 5 -10 5q-29 -7 -58 -23t-44 -39q-5 -1 -4.5 -3.5t-1.5 -5.5
q-5 -8 -5 -17.5t2 -18.5q4 -32 16.5 -53t39.5 -43zM129 532q-5 -12 -7 -24t-2 -26q-2 -7 -3 -14.5t4 -15.5q-5 6 -7 9t-4 7t-4 9l-6 15q-1 2 -1 7.5t-0.5 12t-1 12.5t-2.5 9q6 8 11.5 16t15.5 16q-1 -7 3 -16.5t4 -16.5zM188 432q-2 2 -1.5 2.5t-0.5 1.5q4 -2 8.5 -3.5
t9.5 -3.5q1 0 1.5 -0.5t2.5 -0.5q8 -10 21 -11q4 -2 8 -3.5t9 -3.5q-21 -7 -43 6q-5 3 -8.5 7.5t-6.5 8.5zM179 88q-17 13 -29 28.5t-14 32.5l3 -3q6 -14 19 -28.5t21 -29.5zM479 680q5 -8 5 -19q-9 9 -21 15v8q5 0 8.5 -1t7.5 -3zM111 242q-5 -14 -6 -29.5t-9 -27.5
q-4 5 0 13t6 15q2 8 3.5 15t5.5 14zM150 275q11 11 25 17q-9 -8 -15 -16t-15 -15q-1 -1 -3 -1q2 4 4 7t4 8zM438 654q-5 5 -3 12q0 -1 1 -1h2v-11zM251 440q-4 1 -7 1t-6 2q5 0 8 2q2 -2 3.5 -2.5t3.5 -2.5h-2zM286 131q-5 -1 -8.5 -1h-6.5v2h13zM111 188q1 -1 3 -2
q0 -2 -0.5 -2t-0.5 -2q-1 2 -1 3t-1 3zM463 643v5q2 -2 2.5 -3t1.5 -2h-4zM135 248q0 -6 1 -10q-1 0 -1 1v9zM138 445q1 -2 2 -3t1 -2q-4 2 -3 2v3zM152 430l2 -1h-1zM114 212h-1q1 0 1 1v-1z" />
    <glyph glyph-name="nine" unicode="9" 
d="M21 631l4 0.5t8 2t7.5 5t3.5 10.5q0 4 -2 6q2 4 3.5 6t2.5 5q1 -1 7 -3q9 -5 11 -13q6 3 19 3h1q62 47 159 47q129 0 198 -94q29 -40 43 -90t14 -110q0 -192 -109 -297q-29 -27 -63 -47.5t-74.5 -34t-89 -20.5t-106.5 -7q-21 0 -31 12.5t-10 29.5q0 13 8 25.5t25 12.5
q42 0 73 2.5t63 11.5q-2 7 -1 9q1 3 5 1.5t9.5 -1t12.5 5t13 18.5q3 7 11 -0.5t12 -11.5q31 13 53.5 28.5t39 35.5t28 45.5t19.5 59.5q1 5 2 11t0 10.5t-5.5 5.5t-13.5 -4q-56 -37 -130 -37q-52 0 -95.5 10t-82.5 39t-51 66t-12 92q0 42 10 66t21 44l-1 2q-9 11 -4 22t16 15
q-5 -1 -10 0.5t-11 3.5v1zM101 459q2 -2 -2 -4.5t-2 -5.5h1q0 -7 1 -13t1 -12q8 -19 14 1q0 5 -1 10.5t-2 12.5q8 -12 13.5 -22.5t7.5 -22.5q2 -8 5 -16t-3 -11q20 -18 50 -24t56 -6q33 0 66 7t55 33q9 11 15.5 18t11 15.5t7.5 21t5 34.5q0 12 -4 26.5t-11 29t-17 28
t-22 22.5q-24 19 -48 27t-53 8h-12q-2 -18 -29 -22q-7 1 -12 3.5t-8 4.5q-6 2 -6 3q-7 -2 -12 -8t-11 -11q0 -1 -1 -1l1 1q-2 -2 -4 -3q0 -1 -1 -1q-1 -1 -2 -1t-2 -1l-5 -5q-4 5 -11.5 5t-11.5 -8q-2 -7 -4 -7t-3 -9q-8 -14 -13 -26.5t-5 -31.5v-8q10 -2 13 -6v-10
q-2 -2 -4.5 -6t-0.5 -9zM49 626v1q-1 0 -2 -1h2z" />
    <glyph glyph-name="at" unicode="@" horiz-adv-x="601" 
d="M84 257q-2 4 0 5.5t5 -2.5l3 -2l-2 -3q0 3 2 3l158 159q2 2 5.5 3.5t5.5 3.5q1 2 0 5l7 7l1.5 -1.5l2.5 -2.5q0 -2 4 -2q12 0 22.5 9.5t18.5 17.5q2 2 -1 4.5t-6 1.5l-15 -15t-18 -10l-2 2q-1 1 -2 1l54 58h-125q-3 0 -11.5 2t-17.5 7t-16 14.5t-7 23.5q0 6 1.5 15
t7 17.5t15.5 14.5t28 6h220q4 1 11 1t14.5 -1t13.5 -2t9 -2q0 -1 -1.5 1t-0.5 0q2 -2 0.5 -7.5t-3.5 -11.5t-3.5 -11.5t0.5 -8.5q2 -2 6 0.5t7.5 6.5t6.5 8t2 6q-3 3 -2.5 6.5t-1.5 7.5l3 -3q8 -8 11 -18.5t4 -21.5t0.5 -21t1.5 -16v-213q0 1 -1.5 -6.5t-6.5 -17t-14.5 -18
t-25.5 -9.5q-28 -3 -40 15t-12 36v128l-75 -76q-6 -8 -14.5 -11.5t-16.5 -8.5q-12 -8 -19 -10.5t-12.5 -4t-11.5 -4.5t-16 -13q-3 -2 4 -8t10 -4q10 9 15 13t9 6.5t9.5 6t17.5 11.5h2l-202 -201q-8 -9 -4 -20q-4 -2 -6 -4q-3 4 -3 10q-4 -3 -11.5 -6t-17 -3.5t-20 2
t-19.5 11.5q-12 12 -15 22.5t-1.5 20t6.5 16.5t9 11l20 27q-1 -3 -1.5 -5t-1.5 -4q0 -4 3 -6.5t5 1.5q3 12 10 22t15 18l19 18zM52 89q4 3 7 -0.5t0 -6.5l-1 -1q-4 -3 -7 0.5t0 6.5z" />
    <glyph glyph-name="A" unicode="A" horiz-adv-x="601" 
d="M125 160q-2 -5 -4.5 -12.5t-3.5 -15.5q2 -16 9 -12q3 -13 8 -16q8 -5 11 5q2 1 2 2t1 3q6 -8 6 -22q0 -2 -9 -4t-9 -4l-3 -6h36q26 0 26 -39t-26 -39h-43q0 5 -5 7q-15 0 -29 -0.5t-29 -1.5q-19 3 -30 13q-6 4 -9.5 -2.5t-1.5 -14.5h-4q-18 6 -18 38q0 39 26 39h26
q-2 79 7.5 160t29.5 162q5 11 6 24.5t3 27t6 26t15 22.5q0 3 -1 5.5t-2 4.5l93 189h11t5.5 -0.5l5 -1t10.5 -1.5q14 -2 29.5 0t29.5 4l1 -7h1q0 -1 2.5 -5t5.5 -9l8 -12q18 -25 35.5 -56t31.5 -65.5t23.5 -70.5t11.5 -70q-2 9 3 18t13 8q-2 -13 -3.5 -26.5t2.5 -22.5
q-2 0 -4.5 1.5t-4.5 3.5q0 1 0 -2t1 -6.5t1 -6v-2.5q20 -45 24 -117.5t6 -172.5l17 -2q14 -2 20 -10.5t6 -28.5q0 -39 -26 -39h-56q0 5 -2 8.5t-7 3.5q-8 -1 -17 -3t-17.5 -4t-14.5 -3.5t-7 -1.5h-20q-26 0 -26 39t26 39h1q-2 2 -2 3q-4 4 -5 8.5t-3 9.5q9 -1 16.5 2
t11.5 17l1 -1q5 -11 3 -22t-7 -17h27q0 5 1 8.5t2 8.5q2 4 4.5 7.5t4.5 6.5l-16 106q-3 -2 -6 0q-4 0 -9 4q-6 4 -9 13l-199 1l-6 -19v1q0 1 -0.5 1t-0.5 1h-1q-5 4 -7 -1l-3 -3l-1 -2v-5q-1 -7 2.5 -14t0.5 -14q-9 0 -9 -11v-7zM250 582q-3 -2 -3 -6v-2q0 -2 -2 -8q0 6 1 8
q0 6 -3.5 6.5t-4.5 -4.5q-6 0 -7 -6q0 -1 -1 -1q-9 -23 -25.5 -54t-21.5 -66q-2 -5 -3.5 -10.5t-3.5 -10.5q-1 -3 -3.5 -11t-5.5 -17.5t-4 -19.5t1 -17q-13 -29 -7 -39t23 -8h99q10 -1 25.5 5.5t20.5 14.5q4 -7 13 -14q6 -1 9 6t-2 15q-4 8 -4.5 15.5t-3.5 16.5
q-2 8 -0.5 21.5t-6.5 27.5q-1 0 -3 9.5t-4 21.5l-6 32q-2 18 -4.5 27.5t-5.5 16.5t-8.5 15t-13.5 23q-3 10 -8.5 10t-8.5 -9q-5 11 -11 18t-13 12q-5 2 -6.5 -3t2.5 -8zM215 440q1 4 2 7.5t1 6.5q0 -3 1 -4q-1 -3 -2 -5.5t-2 -4.5zM246 381v-1h2q0 -1 -0.5 -1t-0.5 -1l-1 -1
l-2 2v2q1 1 1 3zM211 384q-1 -2 -3 -3q2 1 2 4zM346 317v-1h5z" />
    <glyph glyph-name="B" unicode="B" 
d="M90 93v48t-1 48q9 36 6.5 69.5t-6.5 70.5q0 5 -0.5 9.5t-0.5 9.5v86l-1 1q0 3 0.5 5t0.5 6q-4 4 -4 6v103q-11 16 -21 31.5t-14 35.5h-16q-32 0 -32 39q0 38 32 38h21q10 -5 16 -6.5t11.5 -0.5t11.5 3.5t17 4.5q2 1 8 0.5t13 -1.5t12 -1.5t5 1.5h131q87 0 137 -54
q48 -51 48 -130q0 -92 -51 -143q86 -46 86 -172q0 -91 -49 -145q-55 -55 -154 -55h-264q-32 0 -32 39q0 38 32 38h27v1l3 3t4 3v4q3 3 5 7v-4q3 -13 10.5 -12t8.5 14zM164 239q-1 -28 -1.5 -50.5t-0.5 -51.5q0 -6 3 -8.5t5 -2.5q-2 -8 -3 -13.5t-5 -12.5q5 -5 3.5 -8.5
t0.5 -9.5v-5h105q34 0 56 7q26 5 49.5 24.5t28.5 53.5v5h3q2 8 2.5 16t0.5 17q0 21 -4.5 33t-11.5 26q-8 -8 -12 -8q-1 -1 -1 -2t-2 -3q-2 7 1 12t-2 2q-2 2 -5 4.5t-4 3.5q-8 4 -10 -2q0 8 4 14.5t12 7.5q0 4 1 6q-1 1 -3 1.5t-4 2.5q-2 0 -2.5 -1t-2.5 -1h-5q-11 2 -18 11
q-15 5 -41.5 4t-49.5 -1h-84q0 -5 5 -10.5t5 -10.5q-5 2 -8.5 -3.5t-0.5 -14.5t6 -21q-10 0 -10 -11zM314 410q1 -2 1 -4q66 25 66 108q0 7 5 15t3 16q-6 -7 -16 -6q5 -11 1.5 -20.5t-9.5 -13.5q2 4 2 9v27q-1 9 -7 10q-5 9 -8 18t4 14q-1 0 -1 1l-1 2l-3 3q-12 -11 -23 0
q-9 9 -9 20q-26 12 -61 12l-86 1q-1 -37 -12 -73v-61q2 -8 0 -13.5t0 -13.5q7 -16 10.5 -31.5t10.5 -29.5l77 -1h12.5t10.5 1q3 11 12.5 15t20.5 -5zM230 127q-10 8 -9 19t9 17q3 -9 8.5 -16t14.5 -9q4 0 5 1q-1 -12 -9 -17.5t-19 5.5zM344 115q10 14 19 26t23 20
q-5 -17 -16 -28t-26 -18zM329 507q0 -5 2 -7q-1 1 -3 4q-6 5 -7.5 11.5t0 12.5t5.5 10.5t10 5.5q-2 -1 -4 -3t-3 -7v-27zM256 161q-5 3 -6 5l6 -4v-1z" />
    <glyph glyph-name="C" unicode="C" horiz-adv-x="601" 
d="M146 466q-2 -11 -13.5 -14t-18.5 -1q-6 -26 -10 -55t-4 -60v-2q1 -2 2.5 -4.5t3.5 -6.5q0 -10 2 -19l4 -18q-2 -14 -5 -27.5t1 -27.5q3 -15 6.5 -26t9 -20t12.5 -18t17 -21q0 -2 -0.5 -2.5t-0.5 -1.5q8 -9 17 -17l8 -8q2 -2 6 -2q20 -12 42 -13.5t48 -1.5q12 0 21.5 -0.5
t19.5 0.5q1 8 10 19l26 18t29 12q14 0 20 -11q9 7 20 11.5t25 16.5q8 7 17 7q7 0 13.5 -5t11.5 -13t8.5 -17t3.5 -16q0 -19 -15 -31q-34 -27 -57 -44t-37 -23q-48 -24 -116 -24q-61 0 -108 21.5t-85 74.5q-18 23 -33 49.5t-24 54.5q-7 0 -13 5q-11 10 -9 22t13 17
q-5 23 -6.5 46.5t-1.5 48.5q0 72 19 133.5t54 112.5q74 116 197 116q61 0 107 -25q0 4 3 4t7.5 -1.5t9.5 -3t10 -1.5l20 20l22 7q17 0 27 -9.5t10 -28.5v-8q0 -19 -1 -32.5t-3 -28.5q-3 -17 -6 -18.5t-6 0.5t-5 1t-3 -19l-18 -6q-2 -1 -10 -3.5t-19 8.5q-5 5 -8.5 2.5
t-2.5 2.5q-3 4 -5.5 7.5t-5.5 5.5q-20 21 -53.5 23t-69.5 2q-32 0 -56 -10.5t-47 -32.5q-1 -2 -1.5 -3.5t-3.5 -3.5q-10 -12 -14.5 -20t-5.5 -16.5t-1 -19.5t-1 -28zM320 561q4 -5 4.5 -10.5t0.5 -11.5q-5 2 -10.5 2h-10.5q-6 -2 -9 -6t-2 -9q-7 7 -7 16t4.5 15.5t12.5 8.5
t17 -5zM127 229q-2 0 -2 5l2 -3v-2z" />
    <glyph glyph-name="D" unicode="D" 
d="M500 350q0 -42 -5 -78t-13 -68q-7 0 -9 -1q-4 -8 -6 -11q8 0 12 1q-17 -59 -50 -102q-30 -38 -70.5 -60t-90.5 -28q-6 1 -18.5 4t-17.5 10q3 0 6 0.5t6 0.5q4 2 3 7.5t-6 5.5q-1 -2 -5 -2q0 -3 -4 -3h-6q-1 0 -1.5 -1t-2.5 -2h1l1 1q0 -1 -1 -1.5t-1 -1.5q3 -16 14 -21
h-76q-6 -1 -11.5 -1.5t-9.5 1.5h-106q-32 0 -32 39q0 37 32 37h1l1 9q2 -2 6 -4t6 -4q2 3 5 4l6 2q-5 3 -9.5 6t-9.5 7q2 3 5 6t5 7q5 5 0.5 9t0.5 3v12q3 2 3 10q0 51 5 99t6 98q3 16 4 35.5t-6 33.5l-1 2v10v15.5t-0.5 11.5t-1.5 11.5t-2 15.5q0 2 -1 3.5t-2 3.5
q0 15 -4 24v85q-3 0 -4 3q-4 3 -6 7q-8 -2 -6.5 0.5t-0.5 16.5h-1q-32 0 -32 37q0 17 7.5 30t20.5 15q10 2 23.5 2t36 -0.5t57 -1.5t88.5 0q64 1 114 -27.5t86 -78.5q67 -94 67 -244zM228 605q-7 5 -12.5 9t-11.5 9h-3q-7 -1 -12 -4q5 -2 9 -5.5t9 -7.5h-8.5t-7.5 1l-20 1h7
q1 -11 -3 -23.5t-9 -24.5q-11 5 -14 -10q0 -20 -5.5 -40.5t-6.5 -40.5q2 -17 12 -12v-164q-6 -5 -6 -10v-35q0 -9 6 -11v-22q-2 -2 -2.5 -3t-1.5 -2q-5 -17 -4 -35t2 -38q0 -8 6 -10v-50l74 -1q20 0 38 3q-3 3 -4 8v5q9 -3 17.5 -9t16.5 -12l8 2q2 0 3 0.5t2 0.5
q-8 5 -16 12t-16 12q6 0 10 5q1 7 -1 13q2 -1 3.5 -2.5t4.5 -2.5h-4l-2 1q5 -3 6 -4v3q3 -3 4 -7q-1 1 -2 1l2 -3v1v1q3 -3 3.5 -7.5t0.5 -9.5q18 6 31 14.5t22.5 20.5t17.5 27t16 33q5 1 9 2t9 2q0 6 4 12q-8 0 -17 -3q5 13 8.5 30t6.5 33q9 12 8.5 30.5t1.5 36.5
q9 28 8.5 47t-5 34t-10 29.5t-6.5 34.5q0 1 2 2q-12 30 -28 50t-35 36t-40 29t-43 29q-1 -2 -3.5 -3t-4.5 -2q-5 -1 -8.5 -1t-7.5 -2l-1 -2l-1 -2q-2 1 -6 1zM22 59q2 2 8.5 2.5t15.5 0.5v2v3q-1 2 -1 6l1 1q-9 1 -17.5 0.5t-13.5 -6.5q-2 -5 1.5 -8.5t5.5 -0.5zM388 406v-3
q0 -10 10 -10h1l1 -1q-4 -8 -11 -11t-16 5zM332 52q0 1 0.5 2.5t-0.5 2.5q-3 -1 -7.5 -1t-8.5 -1q4 -3 6 -3q4 1 5 3q3 3 5 -3zM186 634q-4 1 -12 1h-10l4 -2q5 1 10 1h10h-2zM264 106q0 -2 2 -4q-1 0 -1.5 0.5t-2.5 0.5q0 1 1 1.5t1 1.5zM389 410q0 2 5 5l-6 -9z" />
    <glyph glyph-name="E" unicode="E" horiz-adv-x="599" 
d="M237 98q11 -1 22.5 -2t23.5 -3q11 -2 19.5 -2.5t19.5 -0.5h9t9 1q4 1 11.5 0.5t14.5 0t13 2t8 6.5q1 3 1 11q10 8 14 9t6 -1t3.5 -5.5t7.5 -3.5h5v2q3 15 12 18v16q0 39 33 39q32 0 32 -39l-1 -107q0 -16 -9.5 -27.5t-22.5 -11.5h-326l1 1q-2 12 -8 14t-13.5 -0.5
t-15.5 -7t-13 -6.5q-1 -1 -3 -1h-58q-32 0 -32 39q0 37 32 37h22q4 13 12.5 23t18.5 18v55q4 -2 9 0.5t6 12.5q0 62 -0.5 123t-3.5 125q-2 21 -2.5 43t-8.5 42v75q-7 -2 -13 4t-8 17v-1q0 -3 -4 5h-25q-32 0 -32 38q0 39 32 39h87q2 -4 9 -5h1q20 0 40 1t40 7q8 2 14 5.5
t14 4.5h1q7 -5 8 -13h92q0 6 2.5 12t7.5 9.5t11 3.5t13 -6q6 -8 4 -19l61 5q6 0 16 -6t20 -15.5t17 -20t7 -18.5l3 -64q1 -20 -8 -29t-24 -9q-33 0 -33 38l2 12q-2 6 -2 5q-1 4 -0.5 4.5t0.5 0t-1 -1t-4 2.5q-3 0 -7 2q-8 0 -13 5q-8 6 -9 13l-52 -17q-2 0 -2.5 1.5
t-2.5 2.5q-7 6 -12.5 10.5t-12.5 6.5q-6 1 -11 -8t-11 -9q-12 0 -17.5 2t-7.5 3.5t-3.5 0.5t-6.5 -6q-2 -5 -9 -2t-6 1q-1 -1 -1 -3v-2h-28q-2 -2 -6 4t-5 5q-2 -3 -3 -6.5t-3 -6.5q-2 -14 -4 -26t-3 -23q-3 -26 -1.5 -51.5t3.5 -51.5q8 -4 12.5 -10.5t9.5 -14.5v-5l25 2
q23 -2 35.5 16.5t20.5 51.5q5 22 30 22q32 0 32 -38v-177q0 -39 -32 -39t-32 39v18q-12 -2 -20 15q-2 5 -3.5 8l-3.5 7l-67 -2q1 -1 1 -5q-1 -19 -13 -24q0 -3 -0.5 -6t-0.5 -5q-1 -7 -6 -10v-55q9 3 14 3q-8 -22 -5.5 -53t10.5 -52q-2 -5 -2.5 -8t-2.5 -7q3 -5 8.5 -5
t11 1.5t10 1.5t7.5 -4l-10 2q-4 -11 9 -13zM307 117q-8 6 -9 15t4 16l1 -3q3 -1 4 -4q1 0 1.5 -0.5t2.5 -0.5h2q3 -17 12 -26q-9 -6 -18 3zM216 173q-1 3 -1 8v10q3 -3 7 -1l-2 -10t-4 -7zM218 214h-2q0 2 1 4zM187 173h3q-1 1 -3 2v-2z" />
    <glyph glyph-name="F" unicode="F" 
d="M351 407q3 -13 5.5 -4.5t4.5 21.5v7q2 0 3 1v-26q2 0 0.5 -5t-3 -12t-3 -13t0.5 -8q8 -15 10.5 -22t-8.5 -6l-1 -49q-2 -38 -31 -38q-32 0 -32 38v14q-6 3 -18 15.5t-31 20.5h-53q2 -8 5 -14t-4 -11q-2 -4 -2.5 -4.5t-2.5 -6.5q-6 -9 -15 -9v-48q0 -2 -0.5 -4.5
t-0.5 -4.5q-4 7 -10 4.5t-7 -11.5q0 -26 1 -50.5t1 -50.5q5 -15 13 -12q0 -2 -0.5 -2t-0.5 -2h5q13 -5 8.5 -17.5t-9.5 -21.5h56q31 0 31 -37q0 -39 -31 -39h-70q-3 1 -6 4q-25 7 -47.5 4.5t-46.5 -4.5q-3 0 -4.5 -1.5t-3.5 -2.5h-21q-32 0 -32 39l32 37l23 3q0 7 1 11
q4 10 3.5 19.5t-2 19t-2.5 19.5t4 21q3 5 8 9v122q0 4 1 6q0 56 1.5 110t1.5 111q-1 2 -1.5 4t-2.5 3v33q-2 3 -3 5t-2 5q-4 5 -7 11t-8 13q-5 2 -11 7q-2 1 1.5 2.5t8 4t8.5 4.5t4 5l-24 -3q-32 0 -32 38q0 39 32 39h60q-3 -5 -1 -10.5t10 -6.5q15 1 30 5.5t31 6.5q3 0 6 5
h131q0 8 4 15q0 -6 4 -11q7 -5 11.5 1t2.5 13h14q6 3 7 5q13 -7 11 -23h112q13 0 22.5 -11t9.5 -28v-12q-4 3 -8 0.5t-6 -9.5v-3q0 -6 2 -8q0 -2 0.5 -0.5t1 3.5l0.5 2v-6q-2 -11 -4 -12.5t-2 -1t2.5 1.5t11.5 -4l1 -7q0 -10 -2.5 -14t-7 -5.5t-11 -1t-14.5 0.5h-11.5
t-5.5 1.5t-4.5 5.5t-7.5 13l-11 19q-13 2 -20 0t-19 3q-14 3 -28 2.5t-28 -0.5q-5 1 -8.5 -1.5t-6 -5t-4 -3t-1.5 3.5h-21q-16 11 -38 13q-8 1 -16 1.5t-15 -2.5q-5 -1 -9.5 -3t-7.5 -3q-7 -3 -16.5 -1t-7.5 -2q-1 -3 0.5 -7t2.5 -8.5t0.5 -8.5t-3.5 -5q-3 -2 2.5 -6.5
t3.5 -8.5q-2 -12 -1.5 -23t-3.5 -22l-4 -4l-4 -4v-35q2 -9 3 -18t2 -17q3 -2 5 -5.5t5 -8.5q0 2 0 -0.5t2 -4.5q1 -4 3 -6t4 -5q1 -2 -4 -4.5t-4 -4.5h66q9 -2 16 1.5t12 8.5t8.5 9.5t6.5 5.5h1v28q0 38 32 38q12 0 23 -9q13 -6 13 -18t1 -17q0 -5 -0.5 -8.5t1.5 -8.5
q-12 5 -16 -10v-31zM188 313q1 0 2 2q-2 0 -2.5 -1t0.5 -1zM194 316q-1 -1 -2 -1h2v1zM188 434h-1h1z" />
    <glyph glyph-name="G" unicode="G" 
d="M459 119q0 -4 6 -14.5t13.5 -21.5t13.5 -19t8 -7v-24q0 -25 -13 -28t-33 2t-44 11.5t-45 0.5q-29 -10 -55.5 -14.5t-46.5 -4.5q-115 0 -189 102q-75 97 -75 243q0 78 16 140.5t48 111.5q67 103 186 103h33t37.5 -1.5t34 -4.5t24.5 -8q10 -6 18 -8.5t13 -3t8.5 -0.5
t6.5 -2q3 -3 5.5 -1t5 5t4.5 5.5t5 1.5q8 14 27 14q29 0 29 -35v-28q-4 2 -10 -4q2 -8 5 -16t3.5 -16.5t-2 -17.5t-11.5 -19q1 -10 6.5 -11.5t8.5 3.5v-11q0 -16 -14.5 -22t-28.5 -6q-15 0 -24 12q-7 6 -14.5 8.5t-7.5 11.5v7q-5 0 -8 4q-10 6 -16.5 11.5t-13 9.5t-15 6.5
t-21.5 2.5q-1 0 -1 1v2l-8 3q-2 1 -3 -1t-2.5 -5.5t-3 -6.5t-3.5 -2q-4 12 -11.5 14.5t-15.5 2.5q-4 1 -9 2.5t-10 1.5q-3 1 -4.5 -0.5l-3 -3t-4.5 -1t-8 5.5q-5 -1 -13 -1t-15 -4q-5 0 -8.5 0.5t-8.5 0.5q0 11 -6.5 13.5t-9.5 -6.5q-4 -8 -8.5 -8t-9.5 -6q-1 -1 -1 -3v-2
q-9 -5 -17.5 -11.5t-12.5 -14.5q-2 -1 -2 -1.5t-2 -0.5q-3 -2 -11 -2q-10 -7 -6 -16l-6 -6t-5 -7q-8 -11 -8 -19t6 -24v-1q-10 -30 -14.5 -65.5t-4.5 -76.5q5 -7 8 -19l5 -20q2 -10 0 -14t-8 -6l3 -17q5 -6 7 -13q3 -3 6.5 -11.5t8.5 -18l10 -19t11 -13.5q8 -17 1 -29
q4 -3 6 -9q15 -19 27 -31t24.5 -18.5t28 -8.5t37.5 -2q15 0 26.5 -1t21 -1.5t18 1t19.5 6.5q-3 5 2 7t7 10q11 0 12 5t-0.5 11.5t-3 12t4.5 6.5h1v54q5 25 -10 34.5t-34 14.5l-54 -2q-15 0 -21.5 17.5t-6.5 35.5q0 37 29 37h81q1 0 3 -1q2 -7 9 -7q11 0 25 -3h4
q6 -8 16 -11.5t20.5 -2t18.5 7.5t10 16v1h10q30 0 30 -37q0 -18 -5 -26.5t-10 -22.5l-6 -15q3 -5 0 -5.5t-9 -7.5v-1q-1 -4 -2 -7t-1 -6q-2 -8 -6 -12l10 -47q-3 2 -7 -0.5t-5 -10.5v-21zM362 471q4 -5 4.5 -10.5t0.5 -10.5q-8 5 -13 -3t-1 -15q-8 -2 -14 5q-11 9 -8.5 22
t12.5 16v-2q1 -11 8.5 -11.5t9.5 10.5zM194 571q2 3 8 3q-5 -2 -7.5 -3.5t-7.5 -3.5l4 3z" />
    <glyph glyph-name="H" unicode="H" 
d="M38 700q11 -8 15.5 -6.5t16.5 6.5q11 3 20 -0.5t21 -1.5h19l4 2h54q31 0 31 -39q0 -19 -1 -28t-16 -9h-38q-5 -5 -10 -8.5t-12 -5.5v-65q2 -2 2.5 -5t2.5 -6v-3v-2h1q8 -19 0 -32q4 -2 3 -6.5t1 -10.5q0 -7 -2 -10t-4 -4.5t-3 -3.5t1 -8q5 3 2.5 3t5.5 -5q2 4 1 3
t-2.5 -5t-1 -9.5t5.5 -9.5q3 -7 -3 -15.5t-8 -15.5h188q-2 5 -2.5 12.5t1.5 14.5q2 10 10 17l1 1q2 3 4 4v1q1 4 3 3q4 2 6 2v126q-3 6 -5.5 9.5t-5.5 7.5q-2 2 -2.5 2t-2.5 1q-9 -6 -10 1t-3 20h-13q-31 0 -31 39t31 39h156q31 0 31 -39t-31 -39l6 4q-7 -21 -20 -36v-21
q-2 -5 -2.5 -10t-0.5 -12q-4 2 -8 -0.5t-5 -8.5l12 -31v-8v-13.5v-14v-7.5q0 -47 -3 -87t1 -86q0 -2 -0.5 -2t-0.5 -1v-1v-134q1 -9 7 -10v-34q5 -2 9.5 -2.5t9.5 -0.5q8 -3 1.5 -12t-7.5 -17q31 0 31 -38q0 -39 -31 -39h-159q-31 0 -31 39q0 36 31 38l23 1q4 13 9 17.5
t14 8.5v201h-2q-2 -11 -2.5 -16t-10.5 5q-7 7 -8 13h-19q-12 2 -21 7q1 2 1.5 -1t-1 -7t-3.5 -8t-5 -3q-33 -1 -49.5 -2.5t-37.5 -2.5q-3 0 -5 4.5t-3 9t-1 7.5t0 1q-2 -2 -2 -3h-40q7 -8 6 -24t-9 -21l-1 -26q3 0 6 -4q5 -12 3.5 -23t-9.5 -16v-73q10 0 19.5 -6t14.5 -20
q2 -6 4 -17h24q15 0 16 -10.5t1 -29.5q0 -39 -31 -39h-159q-31 0 -31 39q0 38 31 38l12 1q2 6 7 10v106q4 20 2.5 46.5t-0.5 47.5q0 22 1 40.5t1 36.5t-1 37t-3 40v158q-9 4 -9 8.5t-5 13.5h-5q-31 0 -31 39q0 27 16 34q0 -2 3 -0.5t6.5 3t7.5 2.5t5 0zM184 184q9 -3 13 -10
t3.5 -14.5t-5 -14.5t-13.5 -8h-3q-10 1 -14.5 8.5t-4.5 16t5.5 15.5t15.5 7h3zM149 304q-1 0 -1 1z" />
    <glyph glyph-name="I" unicode="I" horiz-adv-x="599" 
d="M260 204q-1 0 -1 3l-7 366q-11 -3 -20 4t-17 17q-8 6 -9 11h-77q-19 0 -24 17t-5 37q0 39 38 39l38 2q1 7 9 13q12 -11 31 -12q3 1 -3 1.5t-14 1.5t-15 2.5t-7 3.5q5 -2 9 -2.5t9 -0.5q8 -1 16 -9h27q0 -4 6 -5q-4 -5 -4 -10q23 -1 45.5 -1.5t46.5 -0.5h1q5 2 6 7t-1 10
h125q37 0 37 -39q0 -20 -13.5 -37t-32.5 -17l-90 4q-3 -8 -9 -14t-12 -14l9 -49q3 5 5 7q-6 -16 2 -35q-5 1 -7 7l9 -89q-9 -2 -11 -11q0 -41 -1 -79t-2 -75.5t-1 -75.5t2 -79q2 -13 12 -12.5t12 13.5q0 2 -0.5 4t-0.5 4q2 -3 3.5 -5t2.5 -4q6 -6 15 -4l2 -10q2 -9 14 -10
q8 -1 13.5 -3t10.5 -3t9 1t9 8l11 5q19 0 29 -16.5t10 -35.5q0 -39 -37 -39h-28q-6 -9 -18 -12h-15q-15 1 -20 12h-4q-2 0 -6 -2h-1h1q-2 -2 -5 -2h-1q-9 -2 -12 0t-4.5 2.5t-3.5 1.5h-169q-9 7 -10.5 8.5t-2 1t-3 -2.5t-13.5 -3q-4 0 -6 -1.5t-4 -2.5q-38 0 -38 39
q0 19 8.5 35.5t27.5 16.5h73q15 28 50 36v13q-1 0 -2.5 1t-3.5 1q-13 5 -15 19q-5 3 -6 4l-2 2q2 8 3 14.5t-2 13.5q-4 3 -4 4q6 4 11 6q3 -10 10 -9.5t10 7.5l1 -1v4q0 1 0.5 1t0.5 2zM188 111q-3 3 -5 5.5t-3 7.5q5 2 10.5 2.5t12.5 3.5q10 5 18 16q4 -9 3 -18t-6.5 -15
t-13 -7t-16.5 5zM382 501q-2 7 -3.5 15.5t0.5 16.5v1q0 -11 13 -12h1q0 -16 -11 -21zM312 698q-7 -4 -12 -4l-1 4h13zM377 151q5 -10 6 -17q-2 4 -3.5 7.5t-2.5 9.5zM187 147q1 3 7 7l-2 -3q-1 -1 -2.5 -1.5t-2.5 -2.5z" />
    <glyph glyph-name="J" unicode="J" 
d="M200 77q23 3 49.5 11t46.5 25q4 2 2.5 4.5t-4.5 5t-5.5 5t0.5 5.5l-2 2q4 3 8 3h7t5.5 2t3.5 9q4 -3 6 -3q3 8 5.5 16.5t4.5 18.5q2 1 6 7q7 47 4 91.5t-4 89.5l-3 6v11q-3 5 -4 14v7q-2 8 -2 15.5t-1 14.5q2 11 7 15v35q-5 7 -7 21q0 2 0.5 3t0.5 3q3 -8 10.5 -6.5
t9.5 13.5q-5 19 -3 31.5t4.5 22.5t2 19.5t-12.5 22.5q-6 6 -11 6t-5 -7q-6 0 -11 -7l-26 8q-34 0 -34 37q0 19 7 31.5t24 12.5h15q2 -4 9 -7h17l-4 0.5l-4 0.5h17q8 2 10 10l88 -2q6 3 4 6.5t-5.5 5t-5.5 0.5t3 -6l2 -2q0 -1 1 -1h37q34 0 34 -38q0 -18 -7 -31t-24 -13
l-19 -2q-5 -4 -9.5 -7t-8.5 -5v-199q-1 -27 1.5 -51t4 -47.5t-0.5 -48t-12 -51.5q2 -6 1 -15.5t4 -9.5q-2 -9 -3 -17t-4 -16q8 -5 10 -9q-13 -5 -16 -16.5t-8 -23.5v-8q-4 0 -6 1q-5 -10 -11 -18.5t-13 -16.5q1 -10 0 -20q-7 -9 -15.5 -13t-18.5 -8l-9 -4.5t-3 0.5
q-10 -6 -19 -1q-38 -18 -91 -18q-55 0 -109 23q-14 7 -31 15t-31 21t-24 31.5t-11 45.5q-13 3 -14 22v7q1 14 14 20q3 32 34 32q17 0 34.5 -7.5t17.5 -25.5v-12q5 -12 2 -16.5t-6.5 -7.5t-3 -7.5t12.5 -17.5q5 0 7 3q3 -3 11 -7q0 -10 11 -12q14 -2 26.5 -9t29.5 -10
q2 -6 10 -8z" />
    <glyph glyph-name="K" unicode="K" 
d="M142 410q1 -8 4.5 -10.5t7.5 -0.5q2 -6 5.5 -8.5t9.5 2.5q4 6 6 18q0 4 -2 8q3 0 5.5 0.5t4.5 0.5q6 0 9 -1l6 7q5 2 9 4.5t8 6.5q4 -1 8 3q6 7 13.5 16.5t18.5 20.5q2 0 2 2q2 3 3.5 4.5t2.5 3.5q10 7 19.5 20t18.5 26.5t17.5 24.5t16.5 15q4 3 7.5 10.5t5 15t0.5 12
t-5 1.5h-1q-3 2 -6 2h-5.5t-4 1.5t-2.5 6.5v2q-11 2 -15.5 17t-4.5 32q0 6 1 9q4 0 7 5q2 0 3.5 3t3.5 5q5 5 11 5q-2 -10 9 -15q14 2 19 3.5t19 1.5q6 2 14.5 3.5t6.5 6.5h73q29 0 29 -39q0 -38 -29 -38h-14l-94 -133q-11 -21 -26 -36.5t-29.5 -27t-26.5 -19t-18 -10.5
q-1 -11 -5 -16q2 -2 8.5 -5t13.5 -6.5t13 -8t7 -7.5v-4q0 -1 0.5 -2t0.5 -3q14 -15 29 -31t26 -39l87 -187l28 -12q13 -5 21.5 -11.5t8.5 -25.5q0 -39 -30 -39h-47q-6 0 -11 4q-2 -1 -4 -2.5t-4 -1.5q-5 0 -8.5 -0.5t-8.5 -0.5q-9 1 -13.5 7.5t-4.5 15.5q-8 9 -10 22t-2 27
q1 11 10 20l-34 78q-4 -3 -9 -2.5t-10 5.5q-10 8 -8.5 20.5t9.5 17.5l-12 29q-13 32 -30 49q-2 14 -13 10q-3 7 -11 16t-17.5 16.5t-18.5 11t-13 0.5q-5 -3 -5 -9q-6 3 -10 15l-9 3l-25 -31q1 -4 0.5 -7t-0.5 -7q-3 -5 0 -13t7 -17t8 -17.5t3 -13.5h-2q-2 5 -6 7.5t-9 -2.5
q-7 -15 -7.5 -29t-0.5 -29q0 -7 3 -10v-57q20 -6 27 -13.5t5 -23.5h27q15 0 21.5 -15t6.5 -34q0 -39 -30 -39h-175q-29 0 -29 39q0 9 2.5 21.5t4.5 17.5q8 0 14 1t11 3q-4 -12 9 -16q5 1 6 3t1 4t0.5 4t4.5 2q9 3 8 6.5t-10 5.5v10q3 1 3 3q4 -3 8.5 -1t6.5 12q0 4 1 15
t1.5 25t1 29t0.5 27q-1 33 -1.5 63.5t-0.5 60.5v61v66q-1 4 2 8t5 8.5t1 10t-9 11.5v102q-4 -2 -8 -2h-7q-16 3 -19 20l-7 3q-29 0 -29 38q0 25 13 34q4 -2 9 -1q2 2 4 2t4 1q1 0 2 -1q22 0 43 3q5 -2 9 -2h9q15 -2 31.5 -1.5t32.5 4.5h44q30 0 30 -39q0 -38 -30 -38h-30
q0 -14 -11 -22q-4 -1 -7 -1.5t-6 -0.5v-156q11 -9 9 -21q-4 5 -8.5 2.5t-6.5 -11.5v-3zM213 464q-5 -7 -11 -10q0 2 -0.5 3.5t-0.5 2.5q6 -2 10 3zM277 540q-2 -5 -4.5 -9t-4.5 -7q1 2 1 6zM243 496q-1 -1 -0.5 -1t-1.5 -2q1 3 2 3l1 3zM220 393v4l-2 -3z" />
    <glyph glyph-name="L" unicode="L" 
d="M96 693q6 2 7 7h47q-2 -12 10 -16h34q11 5 9 16h88q30 0 30 -39q0 -14 -4 -27.5t-11 -16.5q1 -2 1 -2.5t1 -2.5v-4q-1 -11 -5.5 -17.5t-10.5 -8t-11.5 2t-8.5 11.5q5 5 4 11.5t-7 10.5q-14 0 -27.5 -2.5t-15.5 -2.5h-2q-3 8 -11 7q-17 -3 -27 -22q-2 -1 -6 -1v-1v-13
q-2 -5 -3.5 -6t-1.5 -8q0 -8 5 -10v-320q3 0 5.5 -2t5.5 -4q8 -13 3 -27t-14 -14v-63q2 2 5.5 1.5t8.5 -1.5l3.5 -3.5t5.5 -4.5q21 -12 7 -26q0 -1 2 -3h17q2 -5 8 -6q26 1 49.5 2t49.5 1q3 2 4 3h43v1q10 2 14 0t7 -4t6.5 -2t12.5 6q10 -4 13 9q1 8 0.5 10t-1.5 2t-2.5 1.5
t-2.5 7.5q-1 3 1.5 6t4.5 5t3.5 3t-0.5 0v10q8 20 28 20q31 0 31 -37v-20q8 0 13 -5q7 -14 2 -28t-15 -14v-22q0 -15 -9 -26.5t-22 -11.5h-117q-8 -4 -17 -4q-4 0 -10 4h-45q-10 -17 -25 -4h-1h-8q-5 0 -11 4h-3q-4 -9 -14 -12q-9 0 -18.5 -2t-18.5 -2q-8 1 -12 5.5t-6 10.5
h-130q-31 0 -31 38q0 12 3 21q2 -5 8 -5q8 0 14.5 7t10.5 15l-4 -1q4 16 15 25q9 4 18 11v-8q2 -11 10 -11t10 13v13t1 12v30q4 53 1.5 105.5t-1.5 103.5q0 22 -1.5 43t-3.5 43q-1 19 5.5 38t3.5 38q-1 6 -4 7v29q-2 1 -3.5 3t-3.5 4q-3 4 -1.5 5.5t3.5 2t3 1.5t-3 4
q-2 0 -4 7t-4 7q-8 1 -11.5 1.5t-5.5 7.5h-25q-15 0 -23 14.5t-8 33.5q0 29 17 37q2 -3 8 -5h71zM212 596q2 0 3 1h1v-2q-1 0 -2 0.5t-2 0.5z" />
    <glyph glyph-name="M" unicode="M" 
d="M476 310q0 -3 0.5 -17t0.5 -29.5t0.5 -28.5t1.5 -16v-50q-1 -3 -1.5 -5t-1.5 -4q-2 -9 -2 -18v-18q0 -5 1.5 -7.5t3.5 -4.5v-25l10 -12q13 -1 12 -9t-1 -27q0 -38 -27 -38h-137q-27 0 -27 38t27 38h25q9 6 11.5 24t-5.5 36q-2 5 0.5 10.5t4.5 11.5v4q0 10 1 14q2 5 2.5 9
t2.5 9q-2 2 -4 13l2 52t1 53q2 12 7 16v23q-8 -14 -19 0q-6 7 -6.5 16t2.5 15.5t9.5 9t13.5 -3.5l2 93q-5 0 -12 9q0 2 -2 2q-2 -4 -5 -11.5t-6.5 -16t-7.5 -15t-8 -8.5q-3 -1 -8 -1l-45 -116q-2 -10 -10 -18q-11 -9 -15 -9h-30q-4 0 -15 9q-9 10 -10 17l-54 115q-1 1 -2 3
q-5 13 -5 17.5t-6 18.5q1 9 -2 12.5t-7 0t-6 -15t2 -33.5q-3 -3 -4 -10l2 -32t2 -31v-53q-3 4 -6.5 1.5t-4.5 -10.5v-28t-0.5 -21.5t-0.5 -22v-27.5q0 -13 -0.5 -28t10.5 -19q5 -5 2 -13.5t-1 -18.5q2 -5 3 -12.5t2 -12.5q2 -2 2 -4q1 -2 2 -4.5t2 -4.5q5 -8 6 -14h13
q27 0 27 -38t-27 -38h-134q-27 0 -27 38q0 20 0.5 34t14.5 14h7q1 7 7 11q2 3 2.5 18.5t0.5 40v56v65.5l2 122l1 15.5t2.5 34.5t3 34.5l1.5 15.5l10 87q-8 8 -11.5 17.5t-8.5 21.5q-7 4 -19.5 15.5t-12.5 25.5q0 22 11.5 27.5t34.5 5.5h63q4 0 14 -10q8 -7 10 -15l71 -138
q7 1 15 -6q5 -11 3 -22.5t-7 -16.5l15 -34q0 -8 4.5 -16t5.5 -17q1 -11 6.5 -12.5t7.5 6.5q5 -6 11 0q3 2 6.5 9.5t6.5 17t5.5 20.5t3.5 20l1 14q2 12 2.5 13t1 -0.5t2.5 -1t6 11.5q2 5 5 12t5 9l51 128q4 11 11 17q8 10 14 10l80 1q13 0 23.5 -8t10.5 -34q0 -17 -8.5 -24.5
t-15.5 -15.5q-4 -4 -4.5 -7t-0.5 -7q-3 -6 -4 -9.5t-6 -7.5q-5 -3 -11 -1l13 -86q0 -1 1 -16t2.5 -33t2.5 -34t1 -17zM338 288q2 -3 1 -2l-3.5 3.5t-5.5 5t-5 2.5q-8 4 -13 -1.5t-3 -11.5q-3 7 -0.5 14t9 11.5t15.5 5t19 -5.5q8 -11 6.5 -20.5t-7.5 -16.5q2 12 -11 16h-2z
M315 275q-2 2 -4 3t-2 3l5 -3v-3h1zM153 454q0 -1 0.5 -1.5t0.5 -2.5zM34 101v-1q1 1 0 1z" />
    <glyph glyph-name="N" unicode="N" 
d="M138 159q1 -13 2 -17.5t3 -9.5q-6 -3 -8.5 -11.5t6.5 -9.5q3 -1 5 -4.5t3.5 -8t3.5 -8.5t5 -5q1 -3 6 -3q6 -2 5.5 0.5t4.5 2.5q3 2 3 0t6 1q15 0 23.5 -14t8.5 -33q0 -39 -30 -39l-155 1q-30 0 -30 39q0 19 6.5 33t21.5 14l-2 8l17 16q1 0 0.5 6.5t-1.5 14t-1.5 14.5
t0.5 8q4 10 5 25.5t0 33.5l-2 36t-1 33q-2 8 -2.5 15t-4.5 2q-1 4 -1 7.5v6.5q1 10 1 18t2 17q0 13 0.5 25.5t1.5 24.5q0 2 0.5 2.5t0.5 2.5q2 7 -1 13q1 45 1.5 88.5t0.5 88.5q2 9 1 11.5t-2.5 3t-3.5 0.5t-3 4l-3 1.5t-3 2.5l-1 -5q-15 0 -21 15t-6 34q0 38 28 39l3 -5
q6 -4 6.5 -4.5l0.5 -0.5l1 1t7 0q5 2 12.5 3.5t4.5 6.5h82q1 0 5.5 -3.5t9.5 -8.5t10.5 -9.5t7.5 -5.5l200 -454q2 7 0.5 25.5t-3 39t-2 37.5t4.5 23v15q1 12 0.5 15.5t-2 5.5t-2 5.5t1.5 14.5q3 16 3 24.5t-1.5 16.5t-3.5 17.5t-3 27.5q0 3 1 13t1.5 21t1 19.5t-1.5 8.5
l-8 25q-3 0 3 5t4 6t-1.5 5.5t2 8.5t2 6.5t-1.5 -0.5l-13 -16q-3 3 -3 5t1 4.5l2 5t-1 6.5h-29q-30 0 -30 38q0 20 7.5 35t22.5 15h14q-3 -11 9 -15q1 -1 4 -1q1 0 -1 3t-4 6.5t-4 6.5t-1 3q23 7 41.5 2.5t41.5 -6.5q3 1 6 4h35q15 0 22 -15t7 -35q0 -38 -29 -38h-7
q-3 0 -2 -1.5t2.5 -3t2.5 -3.5t-1 -4l-2 -563q0 -16 -4 -24t-10.5 -11t-16 -2.5t-20.5 0.5h-18q-5 0 -14 6q-8 6 -12 13l-220 537q-2 -1 -3 -2t-3 -1h-8v-110q2 1 0 -1.5t-5 -5.5t-5 -7t1 -6q4 -8 8.5 -14t7 -9.5t1.5 -3.5t-8 3v-228l6 -6q-2 -2 -2 -3.5t-1 -2.5zM29 210
q0 4 -2.5 8t-4 8t-0.5 8t6 9q1 -2 3 -2q-1 -7 -1.5 -15t-0.5 -16zM385 149v7q-3 0 -3 2zM156 89v4l2 -4h-2z" />
    <glyph glyph-name="O" unicode="O" 
d="M182 674q1 -2 5.5 1.5t9 8t8.5 8t4 0.5q9 3 21 5.5t23 2.5q28 0 51 -2t44 -9t42 -20t46 -35q42 -38 53 -84t11 -100v-101q0 -25 2.5 -49.5t-2.5 -47.5q1 -33 -8.5 -65.5t-20.5 -64.5q-13 -15 -23 -26q-5 -5 -9 -9.5t-7 -8.5q-4 -4 -7 -8q-10 -7 -21.5 -16t-22 -16.5
t-18.5 -12.5t-11 -3q-1 0 -5 2q-23 -11 -46.5 -17.5t-50.5 -6.5t-55 8t-52.5 19t-43 23t-25.5 21t-19.5 26t-24.5 40.5t-21 52.5t-9 62q0 11 -0.5 31.5t-1 43t-0.5 43t2 30.5l-1 49q0 39 11 75.5t32 67.5t53 54t74 35l-3.5 3.5l-3.5 3.5q12 -6 19 6q0 8 9 8q5 2 7 -1.5
t3 -0.5zM200 91q1 7 12 14l2 -2l2 -2q7 -4 15 -2t16 1v-6q3 1 5 2.5t5 2.5q8 0 13.5 1t10.5 3q2 -8 12 -9q12 4 26 12.5t25.5 17.5t18 17t4.5 13q11 3 15 13t4.5 21.5t1 21.5t4.5 14q3 -1 5 -1q0 2 3 10q3 6 3 10q2 7 1.5 9.5t-2 3.5t-2.5 3.5t0 11.5l-1 50l8 45v4
q-2 15 -4 31.5t-11 29.5q-1 8 4 9.5t3 9.5q2 29 -3.5 57t-25.5 56q-9 8 -21 11t-24 4q1 4 -3 7.5t-11 6t-15 4t-15 3.5q-9 0 -20 0.5t-22 0.5t-21 -2.5t-17 -8.5q-14 -1 -27 -2t-24 -8q-3 -2 -9 -11t-12.5 -19.5t-12 -20t-7.5 -11.5q-11 -16 -12.5 -28.5t0 -25t4 -27.5
t-0.5 -36v-53l-13 -19q3 -1 5 -14.5t3.5 -30t2.5 -31.5t2 -18q1 -29 5.5 -46.5t14 -29t24.5 -20.5t37 -22q5 -2 5 -6v-7q6 -6 14 -12zM42 669q-5 -5 -4.5 -10t2.5 -11q-4 -4 -7 -6q-1 1 -2 1t-3 2q-8 6 -9.5 12.5t1.5 12.5t10.5 9.5t16.5 2.5q-1 -2 -1 -5.5v-5.5
q-1 -1 -2 -1t-2 -1zM396 683q-5 2 -6.5 5t-3.5 5q2 -2 4.5 -5t5.5 -5zM421 689q1 0 5 2q0 -2 -1 -3.5t-1 -2.5q-2 2 -3 4z" />
    <glyph glyph-name="P" unicode="P" 
d="M223 93q16 0 24.5 -17t8.5 -37q0 -38 -32 -38h-193q-14 0 -21.5 15.5t-9.5 29.5q2 5 4.5 9t5.5 8q1 -1 1 3t-0.5 9t-0.5 9t3 3q11 4 13 12.5t-3 10.5l-6 2q-3 1 -1.5 1.5t2.5 1.5h12q-2 3 -2 9q9 3 9 10q3 3 4 5v-22q-10 -3 -7 -8.5t10.5 -9t16 -4.5t8.5 5
q0 15 -1.5 28.5t-0.5 36.5q2 14 2 28v28v1l-1 1v25q3 35 2.5 70.5t-2.5 71.5v110q-1 -2 -2 -2.5t-2 -2.5q-1 8 -1 14.5v14.5q-3 10 -10 10t-9 -11v-23q-7 7 -7.5 16t3.5 15.5t11.5 9t16.5 -3.5v55q-3 2 -5.5 2.5t-4.5 2.5l-1 1q-2 2 -2.5 2t-0.5 2h-1l-3 4q-4 3 -8.5 6.5
t-9.5 7.5q-5 6 -6 11l8 -9q-28 0 -32 27q6 0 10 9q0 5 2.5 13.5t7.5 8.5q12 3 8 16q3 -3 8 -4q20 0 33 1.5t25 3.5t25 3t33 1q3 1 11 0t17 -2.5t15.5 -2t6.5 2.5h73q100 0 159 -56q64 -58 64 -158q0 -99 -63 -159q-58 -58 -148 -58h-8q-1 -6 -9 -3.5t-16 0.5q-4 0 -7 -2
t-6 -5t-5.5 -5t-5.5 0q-7 -7 -15 -6q6 -14 2 -26l-3 5v1q-1 0 -1 1t-1 3q-4 6 -8 6h-1q-4 2 -7.5 4t-7.5 4q-1 0 -1 0.5t-1 0.5q3 4 7.5 6.5t10.5 0.5q-5 5 -7 16h-27v-42q-2 2 -3 3.5t-3 3.5q-5 1 -6 -2.5t0 -9t4 -12t6 -10.5q-5 -23 -7.5 -39t-1.5 -37q2 -13 10 -13t9 14
v1q1 -1 4 -9q0 -2 1 -4q6 -8 10.5 -8t6.5 -10v-1zM326 367q0 -7 4 -5t10 7q5 5 7 7.5t4 4t4.5 3.5t7.5 7q3 -10 14 -3q20 29 23.5 60t-0.5 71q-1 6 -2 14t-6 7q-6 22 -20 30q-5 2 -11 -2q-5 7 -11 11t-13 9q-13 4 -16.5 6t-6 3.5t-8.5 2t-24 0.5h-35l-5.5 0.5t-12 0.5h-11.5
t-5 -1q-26 -1 -38 -5t-16 -12.5t-3.5 -23t-0.5 -35.5q0 -10 5 -15q-3 -24 -2.5 -48.5t0.5 -44.5q0 -8 5 -16q0 -2 0.5 -4t0.5 -4q3 -8 -1.5 -13.5t0.5 -7.5q1 -1 7 -1.5t13.5 -1t13.5 -1l6 -0.5q11 -12 18 -8t20 5l3.5 1t7.5 2l8 2l4 1l36 -4zM189 612q2 3 4 5.5t5 5.5h-12
q3 -6 3 -11zM191 213q-3 2 -5 7l2 1q2 -1 4 -3l4 -4v-5q-2 0 -5 4z" />
    <glyph glyph-name="Q" unicode="Q" 
d="M182 674q1 -2 5.5 1.5t9 8t8.5 8t4 0.5q9 3 21 5.5t23 2.5q28 0 51.5 -2.5t45.5 -10t43 -21t44 -35.5q38 -37 50.5 -80t12.5 -101v-101q0 -25 2.5 -51t-2.5 -49q1 -60 -22 -127l-8 -10q-8 -10 -22 -19l44 -41q4 -1 6 -7t2 -13.5t-3.5 -14.5t-10.5 -9q-6 -5 -17 -5.5
t-22.5 2t-20.5 6.5t-12 7l-30 30q-1 0 -6.5 -4t-12 -8.5t-12 -8t-6.5 -3.5q-23 -11 -46.5 -17.5t-50.5 -6.5t-54 6t-51 16t-42.5 23t-28.5 26q-9 12 -21.5 29.5t-24 40.5t-20 50.5t-8.5 57.5q0 11 -0.5 29t-1 37.5t-0.5 37.5t2 28v69q0 40 10.5 76.5t31.5 67t53 53t74 34.5
l-3.5 3.5l-3.5 3.5q12 -6 19 6q0 6 7 6q5 2 8 -0.5t4 0.5zM200 91q1 7 12 14l2 -2l2 -2q7 -4 15 -2t16 1v-6q3 1 5 2.5t5 2.5q8 0 13.5 1t10.5 3q2 -8 12 -9q5 2 12 3.5t12.5 3.5t7.5 4.5t-3 6.5l-36 30q-11 10 -8 24.5t12 21.5q6 5 20.5 10.5t31.5 -6.5l37 -34q4 -3 7 -1.5
t4.5 5t1.5 7t-3 3.5l2 52q3 -1 5 -1q0 2 3 10q3 6 3 10q2 7 1.5 9.5t-2 3.5t-2.5 3.5t0 11.5v50l8 45v4q-2 15 -4 32t-11 30q-1 7 3.5 8.5t3.5 9.5q3 33 -4 61t-26 51q-11 9 -23 12t-22 3q1 4 -3 7.5t-10.5 6t-14.5 4.5t-15 4q-9 0 -20 0.5t-22 0.5t-21 -2.5t-17 -8.5
q-7 0 -16 0.5t-17 0.5t-15.5 -1.5t-11.5 -6.5q-3 -1 -7.5 -10.5t-9.5 -20.5t-9 -21.5t-6 -12.5q-11 -16 -12.5 -28.5t0 -25t4 -27.5t-0.5 -36v-53l-13 -19q3 -1 5 -14.5t3.5 -30t2.5 -31.5t2 -18q1 -29 5.5 -46.5t14 -29t24.5 -20.5t37 -22q5 -2 5 -6v-7q6 -6 14 -12z
M42 669q-5 -5 -4.5 -10t2.5 -11q-4 -4 -7 -6q-1 1 -2 1t-3 2q-8 6 -9.5 12.5t1.5 12.5t10.5 9.5t16.5 2.5q-1 -2 -1 -5.5v-5.5q-1 -1 -2 -1t-2 -1zM405 677q-5 2 -6.5 5t-3.5 5q2 -2 4.5 -5t5.5 -5zM430 683q1 0 5 2q0 -2 -1 -3.5t-1 -2.5q-2 2 -3 4z" />
    <glyph glyph-name="R" unicode="R" 
d="M51 70q6 2 7.5 7.5t-1.5 9.5q1 1 -3.5 2t-10 2t-10 2t-3.5 1q6 2 7.5 9t-2.5 11q3 2 6.5 3.5t6.5 2.5v9q4 -2 3.5 3t-0.5 12q-1 57 -0.5 109.5t-2.5 107.5v170q-4 10 -4 19.5t1.5 19t3.5 19.5t3 22v1h-24q-29 0 -29 38q0 19 6.5 34.5t20.5 15.5h14q1 -8 9 -11h46
q5 2 6 4.5t2 6.5h17q3 5 7 8.5t11 3.5h14q5 -2 7.5 -5t5.5 -7h135q36 0 69 -15.5t57 -38.5q56 -49 56 -146q0 -108 -75 -157v-4q0 -4 -11 -7.5t-24 -7.5t-24 -8t-11 -8q4 -3 10 -6t12 -6.5t10.5 -8.5t4.5 -12q0 -9 -3 -15q7 -14 14 -28.5t15 -31.5q-4 -7 -1 -16.5t8.5 -19
t11 -17.5t7.5 -12q3 -7 7 -7l18 -37l20 -15q10 -8 19 -13t9 -24q0 -38 -28 -38h-50q-5 0 -14 6l-6.5 6.5t-4.5 5.5l-42 90q-7 -6 -17 3q-8 9 -7 18.5t6 17.5l-37 78q-9 19 -14 31t-10.5 20t-12 13t-18.5 10h-107l1 -196q1 -4 5 -6q4 -4 8.5 -5t8.5 -2.5t7.5 -4.5t6.5 -10h-1
q27 0 27 -37q0 -38 -27 -38h-145q-28 0 -28 38q0 31 17 35q1 0 1 -0.5t1 -0.5h1h2q7 -2 15 -2.5t14 -0.5zM131 548q1 -29 2 -57.5t2 -57.5q0 -8 3 -9l-1 -46l71 3q3 0 13.5 -0.5t22.5 -1.5t23 -1h14q60 8 89.5 39.5t29.5 82.5q-5 9 -5 18t-5 17q-3 9 -5.5 17.5t-7.5 16.5
l-3 4q-1 2 -6 7q-1 0 -1 0.5t-1 0.5l-9.5 9.5t-6.5 11.5q-2 10 -8.5 10t-8.5 -11v-3q-14 11 -29 16q-2 -18 -16 -21h-8q-5 0 -14.5 3t-20 6.5l-19.5 6.5t-13 3h-75v-54q-5 -2 -7 -10zM288 159q5 -12 3 -24t-9 -16q4 9 4.5 20t0.5 21zM261 154q2 6 9 9v-19q-3 4 -9 10z" />
    <glyph glyph-name="S" unicode="S" 
d="M258 107l-1 1q8 0 13 2.5t9 5.5q4 -8 3 -15t-3 -12q15 1 27 1.5t22.5 2t20 5t18.5 10.5q5 5 10 9t9 9q-2 2 -3 2q-9 6 -10 14.5t3.5 15t13 9.5t18.5 -2q3 8 8.5 16.5t5.5 18.5q0 8 -1 15t-3 13q-11 -5 -21 0.5t-12 19.5v10t1 10q-11 8 -24.5 20t-33.5 18q-8 5 -14 3.5
t-14 4.5q-5 2 -14 6t-16 9q-1 4 -7.5 3.5t-4.5 4.5h-2q-1 -1 -4 -3q-32 2 -69 8t-63 22q-6 0 -10 -6h-2q-10 7 -20.5 13.5t-22.5 11.5q-1 1 -1 1.5t-2 2.5q-5 5 -9 5q-41 42 -41 110q0 91 64 143q64 55 174 55q17 0 31 1t27.5 1t26.5 -3t27 -11q3 5 7.5 6t10 -0.5t11 -4
t9.5 -5.5q3 11 15 13.5t26 2.5q37 0 37 -36q-5 -2 -5 -9t2 -15.5t3.5 -17t-0.5 -14.5q1 -12 -0.5 -23t0.5 -22l2 -12q0 -9 -3 -12.5t-9 -3.5t-13.5 1.5t-16.5 1.5t-15 -1.5t-9.5 -1.5t-5 3.5t-1.5 12.5t-9.5 10t-14.5 9q-8 -12 -15 -11.5t-10 19.5l-16 9q1 5 3.5 8.5
t5.5 7.5q-2 1 -3 2q-24 17 -45.5 19.5t-52.5 2.5q-41 0 -72.5 -8.5t-53.5 -27.5q-26 -23 -35 -54l1 -2q0 -2 -0.5 -3t-0.5 -2q1 -2 1.5 -4t2.5 -4l-3 -3q-1 -3 -1.5 -6t-0.5 -8v-6.5t1 -7.5v-1q2 -10 10 -11t12 9q2 -2 4 -2.5t4 -2.5q0 -1 -0.5 -1.5t-0.5 -2.5
q1 -2 2.5 -4.5t2.5 -4.5v-4q0 -9 -4 -14t-9 -8q5 -5 15.5 -6.5t23 -2l25 -1t21.5 -4.5q-3 -3 -3 -5q-3 -11 4.5 -15t13.5 3h10q4 0 11 0.5t12 1.5t5.5 0.5t-8.5 -3.5q20 -11 45.5 -14t47.5 -11q15 -5 24.5 -11.5t18 -13t18.5 -13t26 -11.5q2 -10 10 -10q1 -3 5 -3
q5 -2 9 -2.5t7 -2.5q6 -3 12.5 -11.5t12.5 -19t11.5 -22t9.5 -21.5q2 -9 3 -19t1 -21q0 -98 -76 -152q-69 -49 -172 -49q-32 0 -60 0.5t-51 10.5q-6 2 -10 2h-5q-9 2 -17 2t-10 6l2 4l2 4v-2q-1 -6 -1 -9.5t-6.5 -1t-22.5 12.5l-48 30q1 1 -1 4t-5 7t-5.5 7.5t-2.5 5.5
q1 0 0 -2l-2.5 -5t-2.5 -5.5t0 -1.5q-5 4 -5.5 4t1.5 2.5t5.5 10t7.5 25.5q-6 8 -14 6l-2 32q-2 19 11 25.5t31 6.5t34.5 -5.5t16.5 -24.5q0 -16 13 -26.5t32 -17t40.5 -10t38.5 -6t25.5 -4t1.5 -4.5q-4 6 -6 10q5 -6 12 -2.5t8 11.5zM68 284q6 2 8.5 5.5t1.5 6.5h4
q0 -6 -3 -12t-7.5 -9t-11 -3t-13.5 5q-9 7 -9 16q5 -6 13.5 -7.5t16.5 -1.5zM104 332q3 3 9 5v-5l-1 -2q-4 2 -8 2zM99 267q-2 2 -4.5 3.5t-3.5 5.5l1 -2q4 -2 6.5 -5t6.5 -7q-1 2 -2.5 2.5t-3.5 2.5zM90 290q0 2 1 3v-1z" />
    <glyph glyph-name="T" unicode="T" 
d="M135 707q7 -9 25 -12.5t38.5 -5t40 -1t30.5 0.5q7 1 9 11h189q7 0 17.5 2.5t15.5 -2.5t2 -16.5t-2 -19.5q-1 0 -1 -1q-5 -15 -1.5 -39.5t2.5 -43.5q4 -7 1 -12t-9 -8t-12.5 -3.5t-9.5 1.5l-17.5 5l-17.5 5q3 12 0.5 15t-6.5 4t-7.5 2.5t-3.5 10.5q0 1 -4 2.5t-8 2.5
t-7.5 2l-3.5 1h-48q-12 -5 -24.5 -10.5t-22.5 -12.5l7 -4q4 -2 7 -4q-4 -6 -8 -7l-6 -5v-25q-5 -1 -7 -9q-1 -12 3 -24t4 -23q-3 0 -6 -1q0 -1 -1 -1q-5 -6 -5 -11.5t4 -7.5q2 -7 4 -12.5t4 -12.5q-1 -18 -0.5 -34.5t0.5 -33.5q0 -3 -3 -14.5t-5 -24t-1 -24t9 -15.5v-37
q1 -1 2 -1.5t3 -2.5q4 -8 4 -16q1 -1 2 -3q8 -12 3.5 -25t-14.5 -15v-85q12 -4 23 -7.5t21 -5.5q8 -2 3.5 -0.5t-2.5 -5.5l23 -2q17 0 24.5 -16t7.5 -34q0 -38 -33 -38l-12 2l-6 4q-14 1 -23 1.5t-17 0t-17 -1.5t-22 -4q-1 0 -6 0.5t-10.5 1t-10.5 0.5t-5 -1h-27h-18
t-17.5 -0.5t-25.5 -0.5q-5 0 -15.5 1.5t-11.5 -0.5q-23 6 -23 37q0 18 8.5 34t25.5 16h36q3 12 8.5 14.5t14.5 8.5q4 2 3 4.5t4 3.5v333v140l-5 4h-5q-7 2 -4.5 0.5t0.5 3.5q-4 3 -7.5 6t-5.5 7h-46q-3 -4 -5.5 -6.5t-5.5 -6.5q-16 -2 -25 -4.5t-14.5 -7t-7.5 -11.5t-3 -19
v-2v-1q-2 0 -7 -1.5t-11.5 -3t-12 -2.5t-6.5 1q-2 2 -5.5 2t-7.5 -0.5t-8 1t-7 6.5v3l-1 -1v1q1 30 0.5 57t-0.5 56q2 -12 12 -9.5t11 16.5l-4 16q3 1 5.5 2t4.5 1h91q1 10 11 16q0 -5 4 -9zM341 118q-11 8 -10 18t8 16q4 -11 13 -15.5t11 -11.5q1 -2 1.5 -2.5t1.5 -2.5
q-5 -7 -11.5 -8t-13.5 6zM447 528q-3 4 -9 6v2q6 0 12 1t11 3q4 -4 5 -6q-1 -3 -1.5 -5.5t-0.5 -6.5q-10 6 -17 6zM367 152q0 -1 1 -2q-3 1 -6 6q2 0 5 -4zM494 495l1 1v-1h-1z" />
    <glyph glyph-name="U" unicode="U" 
d="M437 463q10 -48 8.5 -99.5t-8.5 -102.5q1 -8 5 -10.5t8 -0.5q-1 -125 -52.5 -187.5t-147.5 -62.5q-43 0 -87 18.5t-70 53.5q-13 17 -20.5 28.5t-11 23.5t-4.5 29.5t-1 46.5q-2 1 -4 11t-4.5 21.5t-4 22t-1.5 14.5v3q-3 3 2.5 7.5t4.5 12.5v18.5v15t-0.5 15.5t-0.5 19
q1 3 0.5 9.5t-0.5 13v11.5t2 6v149l3 3q6 14 1.5 22t-6.5 14q1 3 1 10.5t1 9.5q6 10 8 16t-6 -2q-2 -2 -8 0.5t-8 -0.5q-5 4 -6.5 2.5t-8.5 4.5q-5 2 -2 1.5t2 -5.5q-4 3 -6 8q-7 4 -11.5 9t-4.5 18q0 38 29 38h3q0 5 3 2t8 0q0 -4 1 0.5t5 3.5q1 -1 2 -1q4 0 6 2h5
q7 -6 9 -7t4 -0.5t5 1.5t11 1q4 1 10.5 -0.5t12.5 -2.5t9.5 -1.5t0.5 2.5l26 -2q29 0 29 -38q0 -37 -27 -37h-4q-1 -3 8 -5t19.5 -3t18.5 -1.5t5 -1.5q-4 -1 -19 -2t-19 -2q-1 7 -8 7q-2 0 -2 -1q-2 0 -2 -0.5t-1 -0.5l-2 -4q-1 0 -1 -1v-2q-2 -2 -6 -2v-13q1 3 6 3v-82
q0 -6 3 -9q-3 -13 -9 -29l24 -64q-6 -2 -7 -10v-12q-1 -1 -1.5 -2.5t-1.5 -3.5v34q-2 10 -8.5 10t-8.5 -11q0 -50 1.5 -99t1.5 -100q0 -3 1.5 -6t4.5 -4q9 -11 5.5 -23.5t-9.5 -24.5t-9.5 -23.5t5.5 -20.5q0 -1 1 -1q6 -10 14 -17.5t20 -12.5q14 -1 1 13q-8 1 -12.5 7
t-7.5 13.5t-4.5 15t-4.5 12.5q8 -8 21 -20t28 -22.5t30 -18t28 -7.5q35 0 54 11t35 32q12 16 15 42.5t6 57.5q4 6 1 13v13q-2 -2 -6 -3q-1 2 -1 3.5t-1 2.5q0 1 0.5 1t0.5 2v31q-3 10 -9 10v9q-3 9 -10 9q-5 7 -5 17v8q3 17 14 21t18 -10l-2 255q-3 2 -4.5 6t-2.5 7
q-1 4 -2 7q-2 2 3 0t7 -2q-2 2 -3.5 5.5t-2.5 6.5l-2 -8q-29 0 -29 37q0 40 29 40l113 2q14 0 24 -10.5t10 -29.5l-8 -37q-2 -8 -7 -9.5t-10.5 -1t-11.5 1.5t-10 -2q-1 -2 -1 -10.5v-18.5t-0.5 -18t-1.5 -9v-83q-3 2 -7.5 0t-5.5 -10zM337 430q7 -14 3 -26t-13 -14
q-4 7 -6 14t-3 23q-2 4 -3 5q11 7 22 -2zM156 222q-1 35 -1.5 70.5t-1.5 72.5q2 -28 4.5 -54t4.5 -53v-16q1 -15 0 -29q-1 1 -1.5 2.5t-2.5 3.5t-2 3zM227 132q6 0 8 -4h1q9 -4 7.5 -14t-10.5 -8q-8 0 -11 4q-5 5 -3.5 11.5t6.5 8.5q2 0 2 2zM164 554q0 -11 -3 -14v41
q2 -2 3 -8v-19z" />
    <glyph glyph-name="V" unicode="V" 
d="M384 684q5 1 7.5 -0.5t8.5 -1.5q12 5 2 15h5.5t5.5 1l20 2q2 -1 4 -2.5t3 -2.5h35q10 0 15 -2.5t7.5 -11t2.5 -25.5v-46l-24 -10l-4 -30q-9 -73 -20.5 -136.5t-28.5 -125t-41.5 -126t-59.5 -138.5q-2 -4 -9.5 -14t-12.5 -14q-2 -2 -9 -4.5t-14.5 -5t-14.5 -4.5t-8 -2
q-13 0 -18.5 1t-7 2.5t-1 3t-1.5 3.5t-6.5 4t-9 3.5t-7.5 3t-3 3.5l3 18q2 0 -1 5t-7 11.5t-7.5 12.5t-3.5 9q-18 48 -32 89.5t-25 82t-21.5 83t-20.5 92.5q-3 15 -5.5 31.5t-5.5 31t-5.5 25.5t-5.5 15l-11 72q-6 4 -10.5 4t-7.5 -0.5t-4.5 1t0.5 9.5h-4q-14 0 -20 11.5
t-6 30.5q0 18 6.5 30t20.5 12h29q1 3 3.5 1t6 -5.5t7 -6.5t6.5 -2h2l1 1h2h7q3 0 5.5 3.5t4 7t2.5 5t3 -3.5h31q14 0 21.5 -12.5t7.5 -31.5q0 -18 -8 -29t-22 -11h-11q6 -20 12.5 -46t4.5 -43v-10t1 -11l43 -166q4 0 12 -6q7 -18 -1 -33l31 -92q5 -5 8 -9q-1 -3 -1 -10
q1 -10 3.5 -22t5.5 -20t6 -11t6 5q3 -2 9.5 2.5t8.5 4.5q0 5 2 9l-1 -1q-2 -2 0 2.5t3 6.5q3 5 4.5 10t3.5 11q5 10 11 12t11 -1l-2 52q-6 5 -7.5 14t3.5 20l2 3q4 4 7 5q-2 -6 -3 -11.5t-2 -10.5q2 -11 7.5 -12t9.5 8q2 14 9 29.5t16 22.5q7 6 3 15t-11 5q-2 -1 -5 -4
l17 48q8 10 14.5 26t1.5 30l22 129q-2 1 -1.5 15t-0.5 18q-5 8 -6 11t-2.5 3.5t-4.5 -0.5t-11 0h-9q-14 0 -17 11.5t-3 30.5q0 18 9.5 27.5t23.5 9.5h6q0 -2 -4.5 -4t-9 -3t-7.5 -2t-1 -1q5 0 15 2q-2 -5 4 -2t13 1z" />
    <glyph glyph-name="W" unicode="W" 
d="M41 356q-2 5 4 11t4 6q-2 4 -7 5.5t-6 5.5q-2 3 1 6t2 3h-5l-2 20q-2 8 2 14t3 14q-2 8 -5.5 11.5t-2.5 12.5v9.5t2 9.5q-1 34 -1 54.5t0.5 32.5t1 20t0.5 19q0 1 -8.5 0.5t-8.5 1.5h-4q-6 0 -8 4t-2 11t1 16t1 18q0 18 7 28q0 -1 4.5 1t9.5 4.5t9.5 4.5t5.5 1l49 -1
l10.5 -3.5t15.5 -4t14 -1.5t5 5l6 3q9 4 14.5 1t8.5 -9.5t4 -13t1 -8.5q-2 -8 -0.5 -17t2.5 -16.5t-0.5 -12.5t-7.5 -6l-33 -6q-2 -9 -0.5 -12t1 -3t-4 0.5t-15.5 -0.5q-3 0 -3 -2q-1 -5 -2 -11t-2 -11l15 -227q1 -4 3 -10q3 -8 4.5 -14t3 -11t2.5 -11t2 -15q0 -13 -6 -20
l4 -10q3 8 9 11q-3 -20 -3 -40l-1 -2q-5 -5 -3.5 -12.5t8.5 -9.5q7 2 10 9.5t4 17t1 19.5t1 17q5 33 14 52t14 37q0 1 -0.5 1t-0.5 1v1l5 25q-5 2 -5 4t1.5 5t3.5 8t1 12v2l11 23q-3 5 -4.5 1.5t-2.5 -7t0.5 -2.5t4.5 14l9 33l8 37q5 25 25 25h20q18 0 24 -24l41 -181
q1 -1 2 -3t3 -4v-4q0 1 2 -0.5t4 -5.5q3 -19 6.5 -37.5t5.5 -37.5q-2 8 -4.5 14.5t-4.5 14.5q-6 10 -7 3.5t2 -16.5q4 -13 7.5 -17.5t9.5 -15.5q2 -4 1 -10.5t2 -4.5q9 -7 12 12q-2 14 -3 26t-3 25l3.5 -7t4.5 -7q1 17 5.5 31.5t4.5 31.5q1 8 0.5 17.5t4.5 11.5l15 162
q-5 1 -9 6.5t-6 13.5q-4 12 -3 24t-1 26q-1 5 -1 10t-2 10q-5 1 -6 0.5t-5 -0.5q-8 1 -12.5 8t-4.5 15l-7 1q-13 0 -11 8t2 27t-2 30t11 11l19 -1q0 -3 2 -5q3 -3 4 -3t1.5 1t1.5 1.5t3 -1.5q5 -5 8 -4.5t6 2.5t6 3t8 -3q3 4 10 4.5t5 5.5h59q26 0 26 -38t-26 -38
q2 -10 -1 -19t-13 -12h-4l-2 -198q-4 2 -4.5 -5.5t-1.5 -15.5q0 -26 -4.5 -48.5t-10 -44t-10 -44t-4.5 -47.5v-2l-14 -154q-1 -12 -9 -22.5t-17 -10.5h-16q-4 0 -7.5 2.5t-7.5 5.5q-8 7 -11 18l-59 268q-8 -4 -14 1.5t-8 21.5q-1 11 -1 23.5t-1 23.5q-7 -10 -16 -9l-9 -44
q-2 1 -6 -1q-2 -9 -3.5 -26t-3.5 -37t-5.5 -41t-9.5 -37l-39 -142q-2 -9 -10 -19q-4 -3 -8 -5.5t-7 -2.5h-18q-8 0 -15 11t-11 22l-21 95q0 8 -1 20t-2.5 24.5t-2.5 24.5t-2 21q-2 17 -3 27t-3 27q0 3 -4.5 10t-4.5 12q6 0 8 12z" />
    <glyph glyph-name="X" unicode="X" 
d="M50 700q13 0 25.5 0.5t25.5 -8.5q5 -4 9 -0.5t5 8.5l32 1q15 0 23.5 -7.5t8.5 -27.5q0 -19 -0.5 -35.5t-14.5 -18.5l-14 -2q3 -9 7 -12t7.5 -4.5t6.5 -3.5t5 -8l10 -20l7 -12q4 4 8 -5.5t13 -16.5q5 -11 7 -16t-3 -12h10q1 0 2.5 -3t3 -7t3.5 -7.5t3 -3.5q5 -3 5 -3.5
t-1.5 -2t-2.5 -4.5t2 -10q0 -3 3.5 -7t2.5 -6l1 -4l80 121q-1 2 -2 4.5t-1 5.5q2 2 2 6q0 3 3.5 6.5l5.5 5.5q10 15 15 17t-6 7q0 1 -0.5 3t-0.5 5q-2 11 -5 7t-4 -15q-2 -2 -7 3t-3 3q-6 3 -5.5 16.5t0.5 24.5q0 38 29 38l1 -4q0 -2 7.5 -1.5t8.5 0.5q8 1 18 2l20 2
t19.5 0.5t16.5 -2.5q2 -1 3 0.5t2 2.5h9q15 0 22.5 -7t7.5 -27q0 -19 -3 -35.5t-18 -19.5l-15 -3l-117 -183q0 -2 -5 -2t-5 -3q0 -5 -1.5 -9t-3.5 -9q-1 -1 -1 -5q-7 -23 -18 -18l-3 -11l10 -25q3 -6 4.5 -6t2.5 1.5t2 1.5t2 -6l8 -14q5 6 7 6.5t10 -6.5q3 -5 5.5 -10.5
t0.5 -12.5q2 -10 8.5 -19.5t14 -19t14.5 -19.5t9 -22q0 -3 2 -7t5 -8t5 -7.5t1 -4.5l54 -98l15 3q7 1 12 -3.5t7.5 -12.5t3.5 -18.5t1 -19.5q0 -39 -31 -39h-24q-1 5 -6 7q-8 -6 -14.5 -7t-12.5 0t-12.5 2t-13.5 -1q-4 -2 -3 -2l-22 -2q-15 -2 -23.5 8.5t-8.5 30.5
q0 19 4.5 37.5t19.5 17.5l27 -3q0 4 -6.5 9t-13 9t-10 7t1.5 3h7q0 -1 2 -1l-111 183l-46 -79q0 -2 2 -4v-5q-2 -15 -8.5 -21.5t-14.5 -4.5l-46 -62q5 -1 -2 -4.5t-5 -13.5v-3q0 -6 -1 -9l18 -1q15 0 17.5 -11.5t2.5 -30.5q0 -20 -2 -34t-17 -14l-24 -1q0 3 -10.5 -0.5
t-13.5 -2.5q-18 0 -27 3.5t-27 0.5q-6 -1 -11.5 -1h-10.5q-25 3 -25 39q0 19 2 34.5t17 17.5l13 2l22 33q3 -2 7 4t7 12q2 4 6.5 9.5t6.5 10.5q5 12 14 24.5t18 24.5t16.5 22.5t10.5 18.5q1 4 7 10t5 10q-2 0 -2 3l34 55q1 5 7.5 8.5t5.5 12.5l-7 25l-1 3q0 1 1 3q2 8 -1 15
t-8 14t-11.5 14t-10.5 16q-12 23 -21 49t-29 53q-2 0 -7.5 8t-11.5 17.5t-10.5 17t-5.5 6.5l-25 16l-21 1q-15 1 -16 18.5t-1 36.5q0 17 6.5 23.5t17.5 9.5q1 -3 7.5 -0.5t8.5 1.5zM306 249q5 -6 12.5 -8.5t12.5 -10.5q5 -3 8.5 1t-0.5 11q-6 8 -13 10.5t-13 9.5
q-5 5 -8.5 -0.5t1.5 -12.5zM311 592q-1 3 -1 5.5v4.5q8 -4 7 -7q-2 -2 -3 -3.5t-3 -3.5v4zM365 609q2 -2 2.5 -5t0.5 -4l4 9h-7zM46 3h5h-5zM56 4q-1 -1 -5 -1q2 0 2.5 0.5t2.5 0.5zM313 412q0 -1 -4.5 -7t-3.5 -5zM69 122l-13 -28l15 2z" />
    <glyph glyph-name="Y" unicode="Y" 
d="M268 428q0 1 4.5 7.5t3.5 8.5q4 4 6.5 10.5t5.5 13.5q10 9 16 18t10.5 19t10 21.5t14.5 26.5q1 4 6.5 15.5t4.5 14.5q2 6 0.5 9.5t-1.5 8.5q-4 0 -4 2q-6 2 -6 0t-2 4q-14 1 -15 16.5t-1 33.5q0 19 2 28.5t17 11.5q1 -4 5 -4q2 0 -2 0t-2 -1q3 4 9 6h50q10 -5 6 -16h19
q2 6 1 11q-1 1 -2 4h34q14 0 18 -11t4 -30t-4 -34t-18 -15h-23l-15 -48q-1 3 -4 6t-6.5 4t-5 0.5t0.5 -3.5q7 -9 8.5 -16t-0.5 -13t-5.5 -12.5t-7.5 -13.5l-14 -27q-2 -3 -10.5 -19.5t-21 -38.5t-27 -43.5t-27.5 -33.5v-53q0 -27 -1 -55.5t1 -54.5q4 2 9 1t10 -6q4 -8 4 -16
t-2.5 -14t-7.5 -9t-11 0q1 -8 -3.5 -14t-4.5 -13q0 -6 5 -11t1 -8q7 -5 7 -9t8 -5q2 -1 3.5 -2.5l3.5 -3.5l-3 -1q31 0 31 -38t-31 -38l-54 1q-14 3 -17.5 5t-5 2.5t-5.5 -0.5t-17 -4q-5 0 -7.5 -0.5t-4.5 -0.5h-5.5h-10.5h-12q-31 0 -31 38t31 38l1 -2q2 13 3 22.5t16 9.5
h1l2 -2l-3 53q1 16 -1 26t-3.5 19.5t-1 20t5.5 26.5q4 12 1.5 16.5t-5.5 1.5l-10 19q2 -2 4.5 6t4 19t3 21.5t2.5 14.5q-21 22 -39.5 48.5t-33.5 52.5t-25 50.5t-15 42.5l-29 63q-3 2 -4.5 1t-2.5 -2t-2 -0.5t-3 4.5l-7 -1q-15 0 -17 11.5t-2 30.5q0 12 6.5 27t11.5 21
q23 -4 40 -0.5t26 2.5q5 1 11.5 -1.5t6.5 1.5l-6 -9q0 -5 7 -2.5t11 1.5l12 -5q6 1 8 11q26 -4 26 -41q0 -19 1 -31.5t-14 -12.5l-11 3q-2 -7 -2 -9.5t-6 -3.5q-2 0 -3.5 -1.5t-4.5 0.5l22 -23q-2 -2 -4 -8q11 -10 14.5 -12t4.5 -6.5t3 -16t11 -39.5q1 -2 5 -7.5t9 -11.5
t9.5 -10t6.5 -4q5 -11 11.5 -22t11.5 -20l5 -9q3 -8 10 -1.5t9 18.5z" />
    <glyph glyph-name="Z" unicode="Z" 
d="M500 124q-2 -10 -2.5 -7t-3 6t-9 0t-20.5 -25q3 -3 2 -13.5t3 -11.5q11 -5 15.5 -5.5t-6.5 6.5q-2 0 -2 3.5t2.5 6t8 3t14.5 -4.5q-2 -1 -1 -4l2 -6t1 -5t-3 0q-1 1 -1 -6t-1 -6v-16q0 -15 -12 -26.5t-28 -11.5h-84q-1 5 -9 7q-31 -7 -71.5 -8t-77.5 0.5t-64 5t-32 5.5
t-6 -2.5t-3 -7.5h-68q-43 0 -43 32q0 14 9 28l80 112q-1 1 -1 4q0 1 0.5 1t0.5 2q2 2 3.5 4.5t3.5 5.5q32 37 60.5 75.5t57.5 77.5q4 7 2.5 13.5t-5.5 11.5v2q11 11 22 21t25 20l125 178q-3 1 -2.5 2.5t2 3l2.5 2.5t-2 3h-29q8 2 10 6v1q1 1 1 4q0 2 -0.5 2.5t-0.5 2.5l-1 1
q0 3 -4 3v2q-1 0 -3 1h-1q1 -10 -18 -15.5t-47 -7.5t-60.5 -2t-58.5 1t-41.5 1.5t-9.5 -0.5q-5 -2 -9 -1t-6.5 2.5t-3.5 2t-1 -3.5q-5 4 -7 1t-2 -8t2.5 -10.5t6.5 -6.5v-15q0 -2 -6.5 -3t-13 -1h-11t-1.5 0q-20 0 -32.5 -2t-12.5 6l-4 7q-3 2 -3 4t-1 7q-8 -4 -13.5 -4.5
t-2.5 10.5q0 2 1 2q1 4 4 7q5 -3 7.5 -2.5t4.5 9.5l-12 25q-2 6 -5 6v11q0 8 8 18t19.5 19t23.5 15t20 5l9 -1q0 -5 8.5 -4.5t12.5 -0.5t23 0t45.5 2.5t57 2.5t58.5 1t49 -2t29 -6q1 0 5.5 -1.5t9.5 -3t9.5 -3t4.5 -0.5h4v2q9 4 6 13l60 1q22 0 30 -8t8 -25q0 -3 -0.5 -13
t-2 -20.5t-3 -20.5t-4.5 -13l-53 -67q-1 0 -2 -4t-2.5 -9t-3.5 -10.5t-3 -6.5q-12 -14 -19.5 -28.5t-12.5 -30.5l-4 -6q-5 4 -11.5 -1t-8.5 -14q-4 -20 -15.5 -38t-26.5 -34.5t-30 -32.5t-26 -34q-3 -5 -1 -11l-29 -41q-11 -10 -20.5 -23t-20.5 -22q-5 -3 -6 -5t-1 -4.5
t0.5 -6t-0.5 -9.5q5 -12 13 -12l-9 -12q5 -5 7 -8q-5 1 -8.5 -2t-4.5 -7q-3 2 -8 2q-18 -2 -26.5 -8t-8.5 -12.5t8 -12t24 -6.5q11 2 13.5 7t-8.5 9q-2 0 -4.5 2t-4.5 3q2 1 11 1.5t10 2.5q0 -1 2 -1q3 -1 4 -2t2 -2.5t3 -2.5t7 -1l1 -1q7 -2 11.5 -1.5t8.5 1.5t8.5 2
t11.5 1q18 -6 29 -2q12 4 19 2t13.5 -4.5t14.5 -3t22 5.5q3 5 10.5 3t15 -5t13.5 -4t6 6q4 -9 14 -4.5t12 16.5v16q-2 7 -7 7v12q0 10 1.5 12.5t5.5 1.5t10.5 -3t16.5 -2t18 2t14 3t9.5 -1.5t3.5 -12.5v-4q-3 -2 0.5 -8.5t1.5 -10.5zM400 125q0 8 2.5 15t4.5 15v-48
q-7 7 -7 18zM315 586q-13 -5 -27 -13q2 5 2 8.5t2 5.5h11q3 0 5.5 -0.5t6.5 -0.5zM492 96q-1 4 -7 1t-7 0q4 0 12 5t10 6l-1 -14q-1 0 -7 2zM265 585l2 1q-1 -4 -1 -7.5v-6.5q-4 5 -4 12zM166 76q0 -2 -1 -2.5t-1 -2.5h2q1 1 1 3h-1v2zM250 552q2 -2 1 -2.5t-1 2.5zM394 108
v2v1v-3z" />
    <glyph glyph-name="asciicircum" unicode="^" horiz-adv-x="601" 
d="M416 443q2 -4 0 -5.5t-5 2.5l-3 2l2 3q0 -3 -2 -3l-158 -160q-2 -2 -5.5 -3.5t-5.5 -3.5q-1 -3 0 -5l-7 -7l-1.5 1.5l-2.5 2.5q0 2 -4 2q-12 0 -22.5 -9.5t-18.5 -17.5q-2 -2 1 -4.5t6 -1.5l15 15t18 10l2 -2q1 -1 2 -1l-54 -58h125q3 0 11.5 -2t17.5 -7.5t16 -14.5
t7 -23q0 -6 -1.5 -15t-7 -17.5t-15.5 -14.5t-28 -6h-220q-4 -1 -11 -1t-14.5 0.5t-13.5 2t-9 2.5q0 1 1.5 -1t0.5 0q-2 2 -0.5 7.5t3.5 11.5t3.5 11.5t-0.5 8.5q-2 1 -6 -1t-7.5 -6t-6.5 -8t-2 -6q3 -3 2.5 -6.5t1.5 -7.5l-3 3q-8 8 -11 18.5t-4 21.5t-1 21t-1 16v213
q0 -1 1.5 6.5t6.5 17t14.5 18t25.5 9.5q28 3 40 -15t12 -36v-128l75 76q6 8 14.5 11.5t16.5 8.5q12 8 19 10.5t12.5 4t11.5 4.5t16 13q3 2 -4 8t-10 4q-10 -9 -15 -13t-9 -6.5t-9.5 -6t-17.5 -11.5h-2l202 202q8 9 4 20q4 2 6 4q3 -4 3 -10q4 3 11.5 6t17 3.5t20 -2
t19.5 -11.5q12 -12 15 -22.5t1.5 -20t-6.5 -16.5t-9 -11l-20 -27q1 3 1.5 5t1.5 4q0 4 -3 6.5t-5 -1.5q-3 -12 -10 -22t-15 -18l-19 -18zM448 611q-4 -3 -7 0.5t0 6.5l1 1q4 3 7 -0.5t0 -6.5z" />
    <glyph glyph-name="underscore" unicode="_" horiz-adv-x="601" 
d="M235 663q2 -5 3.5 -10t1.5 -12q22 6 48 6q65 0 123 -27t102 -93q16 -25 28 -41t19.5 -33.5t11.5 -41.5t4 -65q0 -42 -2.5 -63.5t-9 -37t-18.5 -31.5t-30 -45l-2 -2q-1 -1 -1 -2q11 -5 7 -13t-14 -19l-5 -5q-9 -5 -12 -9t-10 -1q-5 -5 -13 -7t-13 -6q5 -10 3 -16t-8.5 -10
t-16 -6.5t-18.5 -4.5q-1 0 -5 2q-26 -14 -57 -17.5t-63 -3.5q-66 0 -119.5 26.5t-104.5 93.5q-21 27 -33.5 42.5t-19.5 31.5t-9 38.5t-2 64.5q0 41 3.5 65t12 42t21.5 36.5t32 48.5q13 21 27.5 34t30.5 22.5t33 16.5t34 15q-2 3 -4 5t-3 4q13 -7 22 8q0 9 10 9q12 5 13 12z
M322 384h93h34t30 0.5t21 1t8 1.5q-1 9 -1.5 14.5t-1.5 10.5t-3.5 10.5t-7.5 13.5q-7 11 -12 21.5t-10.5 20t-13.5 19.5t-20 21q-10 10 -16.5 11t-13.5 12q-5 9 -17 17t-28 8q-3 0 -9.5 2t-13.5 4t-12.5 2.5t-5.5 -2.5v-188zM324 133q14 1 38 10t47.5 21t41.5 25t20 22
q2 7 1.5 12t-0.5 8t2 5t9 3q2 2 6.5 6t6.5 4q0 2 -4 6.5t-2 9.5q2 4 7 0t5 -1q4 6 7 15t4.5 17.5t0 13.5t-6.5 3h-183v-180zM71 312q-6 0 -5 -5.5t6.5 -15t13 -22t15.5 -26.5q8 -16 13 -23t9 -11l8 -8t10 -14q2 -3 8.5 -5.5t13.5 -5t13 -4.5t6 -3q5 -5 10 -5.5t8 -3.5
q1 3 1 1.5t0.5 -4t2 -4.5t4.5 0q2 -2 2 -2.5t2 -2.5q8 -5 19.5 -10.5t21.5 -7.5l-2 183zM253 566q0 10 -17 6t-38 -13.5t-39.5 -21.5t-22.5 -19q-8 -13 -13 -18t-10 -12t-11 -21t-16 -44l-14 -39h181v182zM559 170q-7 -6 -6 -12t3 -14q-4 -4 -8 -7q-1 1 -2 1.5t-4 2.5
q-9 7 -11 15t2 15t12 11t19 3q-1 -3 -1 -7v-6q-1 -1 -2 -1t-2 -1zM451 630q-9 0 -13.5 7.5t-6.5 10.5q1 -2 5.5 -5l9 -6t6.5 -5t-1 -2zM471 643q2 0 3 0.5l3 1.5v-15q-1 2 -3 6.5t-3 6.5z" />
    <glyph glyph-name="a" unicode="a" horiz-adv-x="601" 
d="M125 160q-2 -5 -4.5 -12.5t-3.5 -15.5q2 -16 9 -12q3 -13 8 -16q8 -5 11 5q2 1 2 2t1 3q6 -8 6 -22q0 -2 -9 -4t-9 -4l-3 -6h36q26 0 26 -39t-26 -39h-43q0 5 -5 7q-15 0 -29 -0.5t-29 -1.5q-19 3 -30 13q-6 4 -9.5 -2.5t-1.5 -14.5h-4q-18 6 -18 38q0 39 26 39h26
q-2 79 7.5 160t29.5 162q5 11 6 24.5t3 27t6 26t15 22.5q0 3 -1 5.5t-2 4.5l93 189h11t5.5 -0.5l5 -1t10.5 -1.5q14 -2 29.5 0t29.5 4l1 -7h1q0 -1 2.5 -5t5.5 -9l8 -12q18 -25 35.5 -56t31.5 -65.5t23.5 -70.5t11.5 -70q-2 9 3 18t13 8q-2 -13 -3.5 -26.5t2.5 -22.5
q-2 0 -4.5 1.5t-4.5 3.5q0 1 0 -2t1 -6.5t1 -6v-2.5q20 -45 24 -117.5t6 -172.5l17 -2q14 -2 20 -10.5t6 -28.5q0 -39 -26 -39h-56q0 5 -2 8.5t-7 3.5q-8 -1 -17 -3t-17.5 -4t-14.5 -3.5t-7 -1.5h-20q-26 0 -26 39t26 39h1q-2 2 -2 3q-4 4 -5 8.5t-3 9.5q9 -1 16.5 2
t11.5 17l1 -1q5 -11 3 -22t-7 -17h27q0 5 1 8.5t2 8.5q2 4 4.5 7.5t4.5 6.5l-16 106q-3 -2 -6 0q-4 0 -9 4q-6 4 -9 13l-199 1l-6 -19v1q0 1 -0.5 1t-0.5 1h-1q-5 4 -7 -1l-3 -3l-1 -2v-5q-1 -7 2.5 -14t0.5 -14q-9 0 -9 -11v-7zM250 582q-3 -2 -3 -6v-2q0 -2 -2 -8q0 6 1 8
q0 6 -3.5 6.5t-4.5 -4.5q-6 0 -7 -6q0 -1 -1 -1q-9 -23 -25.5 -54t-21.5 -66q-2 -5 -3.5 -10.5t-3.5 -10.5q-1 -3 -3.5 -11t-5.5 -17.5t-4 -19.5t1 -17q-13 -29 -7 -39t23 -8h99q10 -1 25.5 5.5t20.5 14.5q4 -7 13 -14q6 -1 9 6t-2 15q-4 8 -4.5 15.5t-3.5 16.5
q-2 8 -0.5 21.5t-6.5 27.5q-1 0 -3 9.5t-4 21.5l-6 32q-2 18 -4.5 27.5t-5.5 16.5t-8.5 15t-13.5 23q-3 10 -8.5 10t-8.5 -9q-5 11 -11 18t-13 12q-5 2 -6.5 -3t2.5 -8zM215 440q1 4 2 7.5t1 6.5q0 -3 1 -4q-1 -3 -2 -5.5t-2 -4.5zM246 381v-1h2q0 -1 -0.5 -1t-0.5 -1l-1 -1
l-2 2v2q1 1 1 3zM211 384q-1 -2 -3 -3q2 1 2 4zM346 317v-1h5z" />
    <glyph glyph-name="b" unicode="b" 
d="M90 93v48t-1 48q9 36 6.5 69.5t-6.5 70.5q0 5 -0.5 9.5t-0.5 9.5v86l-1 1q0 3 0.5 5t0.5 6q-4 4 -4 6v103q-11 16 -21 31.5t-14 35.5h-16q-32 0 -32 39q0 38 32 38h21q10 -5 16 -6.5t11.5 -0.5t11.5 3.5t17 4.5q2 1 8 0.5t13 -1.5t12 -1.5t5 1.5h131q87 0 137 -54
q48 -51 48 -130q0 -92 -51 -143q86 -46 86 -172q0 -91 -49 -145q-55 -55 -154 -55h-264q-32 0 -32 39q0 38 32 38h27v1l3 3t4 3v4q3 3 5 7v-4q3 -13 10.5 -12t8.5 14zM164 239q-1 -28 -1.5 -50.5t-0.5 -51.5q0 -6 3 -8.5t5 -2.5q-2 -8 -3 -13.5t-5 -12.5q5 -5 3.5 -8.5
t0.5 -9.5v-5h105q34 0 56 7q26 5 49.5 24.5t28.5 53.5v5h3q2 8 2.5 16t0.5 17q0 21 -4.5 33t-11.5 26q-8 -8 -12 -8q-1 -1 -1 -2t-2 -3q-2 7 1 12t-2 2q-2 2 -5 4.5t-4 3.5q-8 4 -10 -2q0 8 4 14.5t12 7.5q0 4 1 6q-1 1 -3 1.5t-4 2.5q-2 0 -2.5 -1t-2.5 -1h-5q-11 2 -18 11
q-15 5 -41.5 4t-49.5 -1h-84q0 -5 5 -10.5t5 -10.5q-5 2 -8.5 -3.5t-0.5 -14.5t6 -21q-10 0 -10 -11zM314 410q1 -2 1 -4q66 25 66 108q0 7 5 15t3 16q-6 -7 -16 -6q5 -11 1.5 -20.5t-9.5 -13.5q2 4 2 9v27q-1 9 -7 10q-5 9 -8 18t4 14q-1 0 -1 1l-1 2l-3 3q-12 -11 -23 0
q-9 9 -9 20q-26 12 -61 12l-86 1q-1 -37 -12 -73v-61q2 -8 0 -13.5t0 -13.5q7 -16 10.5 -31.5t10.5 -29.5l77 -1h12.5t10.5 1q3 11 12.5 15t20.5 -5zM230 127q-10 8 -9 19t9 17q3 -9 8.5 -16t14.5 -9q4 0 5 1q-1 -12 -9 -17.5t-19 5.5zM344 115q10 14 19 26t23 20
q-5 -17 -16 -28t-26 -18zM329 507q0 -5 2 -7q-1 1 -3 4q-6 5 -7.5 11.5t0 12.5t5.5 10.5t10 5.5q-2 -1 -4 -3t-3 -7v-27zM256 161q-5 3 -6 5l6 -4v-1z" />
    <glyph glyph-name="c" unicode="c" horiz-adv-x="601" 
d="M146 466q-2 -11 -13.5 -14t-18.5 -1q-6 -26 -10 -55t-4 -60v-2q1 -2 2.5 -4.5t3.5 -6.5q0 -10 2 -19l4 -18q-2 -14 -5 -27.5t1 -27.5q3 -15 6.5 -26t9 -20t12.5 -18t17 -21q0 -2 -0.5 -2.5t-0.5 -1.5q8 -9 17 -17l8 -8q2 -2 6 -2q20 -12 42 -13.5t48 -1.5q12 0 21.5 -0.5
t19.5 0.5q1 8 10 19l26 18t29 12q14 0 20 -11q9 7 20 11.5t25 16.5q8 7 17 7q7 0 13.5 -5t11.5 -13t8.5 -17t3.5 -16q0 -19 -15 -31q-34 -27 -57 -44t-37 -23q-48 -24 -116 -24q-61 0 -108 21.5t-85 74.5q-18 23 -33 49.5t-24 54.5q-7 0 -13 5q-11 10 -9 22t13 17
q-5 23 -6.5 46.5t-1.5 48.5q0 72 19 133.5t54 112.5q74 116 197 116q61 0 107 -25q0 4 3 4t7.5 -1.5t9.5 -3t10 -1.5l20 20l22 7q17 0 27 -9.5t10 -28.5v-8q0 -19 -1 -32.5t-3 -28.5q-3 -17 -6 -18.5t-6 0.5t-5 1t-3 -19l-18 -6q-2 -1 -10 -3.5t-19 8.5q-5 5 -8.5 2.5
t-2.5 2.5q-3 4 -5.5 7.5t-5.5 5.5q-20 21 -53.5 23t-69.5 2q-32 0 -56 -10.5t-47 -32.5q-1 -2 -1.5 -3.5t-3.5 -3.5q-10 -12 -14.5 -20t-5.5 -16.5t-1 -19.5t-1 -28zM320 561q4 -5 4.5 -10.5t0.5 -11.5q-5 2 -10.5 2h-10.5q-6 -2 -9 -6t-2 -9q-7 7 -7 16t4.5 15.5t12.5 8.5
t17 -5zM127 229q-2 0 -2 5l2 -3v-2z" />
    <glyph glyph-name="d" unicode="d" 
d="M500 350q0 -42 -5 -78t-13 -68q-7 0 -9 -1q-4 -8 -6 -11q8 0 12 1q-17 -59 -50 -102q-30 -38 -70.5 -60t-90.5 -28q-6 1 -18.5 4t-17.5 10q3 0 6 0.5t6 0.5q4 2 3 7.5t-6 5.5q-1 -2 -5 -2q0 -3 -4 -3h-6q-1 0 -1.5 -1t-2.5 -2h1l1 1q0 -1 -1 -1.5t-1 -1.5q3 -16 14 -21
h-76q-6 -1 -11.5 -1.5t-9.5 1.5h-106q-32 0 -32 39q0 37 32 37h1l1 9q2 -2 6 -4t6 -4q2 3 5 4l6 2q-5 3 -9.5 6t-9.5 7q2 3 5 6t5 7q5 5 0.5 9t0.5 3v12q3 2 3 10q0 51 5 99t6 98q3 16 4 35.5t-6 33.5l-1 2v10v15.5t-0.5 11.5t-1.5 11.5t-2 15.5q0 2 -1 3.5t-2 3.5
q0 15 -4 24v85q-3 0 -4 3q-4 3 -6 7q-8 -2 -6.5 0.5t-0.5 16.5h-1q-32 0 -32 37q0 17 7.5 30t20.5 15q10 2 23.5 2t36 -0.5t57 -1.5t88.5 0q64 1 114 -27.5t86 -78.5q67 -94 67 -244zM228 605q-7 5 -12.5 9t-11.5 9h-3q-7 -1 -12 -4q5 -2 9 -5.5t9 -7.5h-8.5t-7.5 1l-20 1h7
q1 -11 -3 -23.5t-9 -24.5q-11 5 -14 -10q0 -20 -5.5 -40.5t-6.5 -40.5q2 -17 12 -12v-164q-6 -5 -6 -10v-35q0 -9 6 -11v-22q-2 -2 -2.5 -3t-1.5 -2q-5 -17 -4 -35t2 -38q0 -8 6 -10v-50l74 -1q20 0 38 3q-3 3 -4 8v5q9 -3 17.5 -9t16.5 -12l8 2q2 0 3 0.5t2 0.5
q-8 5 -16 12t-16 12q6 0 10 5q1 7 -1 13q2 -1 3.5 -2.5t4.5 -2.5h-4l-2 1q5 -3 6 -4v3q3 -3 4 -7q-1 1 -2 1l2 -3v1v1q3 -3 3.5 -7.5t0.5 -9.5q18 6 31 14.5t22.5 20.5t17.5 27t16 33q5 1 9 2t9 2q0 6 4 12q-8 0 -17 -3q5 13 8.5 30t6.5 33q9 12 8.5 30.5t1.5 36.5
q9 28 8.5 47t-5 34t-10 29.5t-6.5 34.5q0 1 2 2q-12 30 -28 50t-35 36t-40 29t-43 29q-1 -2 -3.5 -3t-4.5 -2q-5 -1 -8.5 -1t-7.5 -2l-1 -2l-1 -2q-2 1 -6 1zM22 59q2 2 8.5 2.5t15.5 0.5v2v3q-1 2 -1 6l1 1q-9 1 -17.5 0.5t-13.5 -6.5q-2 -5 1.5 -8.5t5.5 -0.5zM388 406v-3
q0 -10 10 -10h1l1 -1q-4 -8 -11 -11t-16 5zM332 52q0 1 0.5 2.5t-0.5 2.5q-3 -1 -7.5 -1t-8.5 -1q4 -3 6 -3q4 1 5 3q3 3 5 -3zM186 634q-4 1 -12 1h-10l4 -2q5 1 10 1h10h-2zM264 106q0 -2 2 -4q-1 0 -1.5 0.5t-2.5 0.5q0 1 1 1.5t1 1.5zM389 410q0 2 5 5l-6 -9z" />
    <glyph glyph-name="e" unicode="e" horiz-adv-x="599" 
d="M237 98q11 -1 22.5 -2t23.5 -3q11 -2 19.5 -2.5t19.5 -0.5h9t9 1q4 1 11.5 0.5t14.5 0t13 2t8 6.5q1 3 1 11q10 8 14 9t6 -1t3.5 -5.5t7.5 -3.5h5v2q3 15 12 18v16q0 39 33 39q32 0 32 -39l-1 -107q0 -16 -9.5 -27.5t-22.5 -11.5h-326l1 1q-2 12 -8 14t-13.5 -0.5
t-15.5 -7t-13 -6.5q-1 -1 -3 -1h-58q-32 0 -32 39q0 37 32 37h22q4 13 12.5 23t18.5 18v55q4 -2 9 0.5t6 12.5q0 62 -0.5 123t-3.5 125q-2 21 -2.5 43t-8.5 42v75q-7 -2 -13 4t-8 17v-1q0 -3 -4 5h-25q-32 0 -32 38q0 39 32 39h87q2 -4 9 -5h1q20 0 40 1t40 7q8 2 14 5.5
t14 4.5h1q7 -5 8 -13h92q0 6 2.5 12t7.5 9.5t11 3.5t13 -6q6 -8 4 -19l61 5q6 0 16 -6t20 -15.5t17 -20t7 -18.5l3 -64q1 -20 -8 -29t-24 -9q-33 0 -33 38l2 12q-2 6 -2 5q-1 4 -0.5 4.5t0.5 0t-1 -1t-4 2.5q-3 0 -7 2q-8 0 -13 5q-8 6 -9 13l-52 -17q-2 0 -2.5 1.5
t-2.5 2.5q-7 6 -12.5 10.5t-12.5 6.5q-6 1 -11 -8t-11 -9q-12 0 -17.5 2t-7.5 3.5t-3.5 0.5t-6.5 -6q-2 -5 -9 -2t-6 1q-1 -1 -1 -3v-2h-28q-2 -2 -6 4t-5 5q-2 -3 -3 -6.5t-3 -6.5q-2 -14 -4 -26t-3 -23q-3 -26 -1.5 -51.5t3.5 -51.5q8 -4 12.5 -10.5t9.5 -14.5v-5l25 2
q23 -2 35.5 16.5t20.5 51.5q5 22 30 22q32 0 32 -38v-177q0 -39 -32 -39t-32 39v18q-12 -2 -20 15q-2 5 -3.5 8l-3.5 7l-67 -2q1 -1 1 -5q-1 -19 -13 -24q0 -3 -0.5 -6t-0.5 -5q-1 -7 -6 -10v-55q9 3 14 3q-8 -22 -5.5 -53t10.5 -52q-2 -5 -2.5 -8t-2.5 -7q3 -5 8.5 -5
t11 1.5t10 1.5t7.5 -4l-10 2q-4 -11 9 -13zM307 117q-8 6 -9 15t4 16l1 -3q3 -1 4 -4q1 0 1.5 -0.5t2.5 -0.5h2q3 -17 12 -26q-9 -6 -18 3zM216 173q-1 3 -1 8v10q3 -3 7 -1l-2 -10t-4 -7zM218 214h-2q0 2 1 4zM187 173h3q-1 1 -3 2v-2z" />
    <glyph glyph-name="f" unicode="f" 
d="M351 407q3 -13 5.5 -4.5t4.5 21.5v7q2 0 3 1v-26q2 0 0.5 -5t-3 -12t-3 -13t0.5 -8q8 -15 10.5 -22t-8.5 -6l-1 -49q-2 -38 -31 -38q-32 0 -32 38v14q-6 3 -18 15.5t-31 20.5h-53q2 -8 5 -14t-4 -11q-2 -4 -2.5 -4.5t-2.5 -6.5q-6 -9 -15 -9v-48q0 -2 -0.5 -4.5
t-0.5 -4.5q-4 7 -10 4.5t-7 -11.5q0 -26 1 -50.5t1 -50.5q5 -15 13 -12q0 -2 -0.5 -2t-0.5 -2h5q13 -5 8.5 -17.5t-9.5 -21.5h56q31 0 31 -37q0 -39 -31 -39h-70q-3 1 -6 4q-25 7 -47.5 4.5t-46.5 -4.5q-3 0 -4.5 -1.5t-3.5 -2.5h-21q-32 0 -32 39l32 37l23 3q0 7 1 11
q4 10 3.5 19.5t-2 19t-2.5 19.5t4 21q3 5 8 9v122q0 4 1 6q0 56 1.5 110t1.5 111q-1 2 -1.5 4t-2.5 3v33q-2 3 -3 5t-2 5q-4 5 -7 11t-8 13q-5 2 -11 7q-2 1 1.5 2.5t8 4t8.5 4.5t4 5l-24 -3q-32 0 -32 38q0 39 32 39h60q-3 -5 -1 -10.5t10 -6.5q15 1 30 5.5t31 6.5q3 0 6 5
h131q0 8 4 15q0 -6 4 -11q7 -5 11.5 1t2.5 13h14q6 3 7 5q13 -7 11 -23h112q13 0 22.5 -11t9.5 -28v-12q-4 3 -8 0.5t-6 -9.5v-3q0 -6 2 -8q0 -2 0.5 -0.5t1 3.5l0.5 2v-6q-2 -11 -4 -12.5t-2 -1t2.5 1.5t11.5 -4l1 -7q0 -10 -2.5 -14t-7 -5.5t-11 -1t-14.5 0.5h-11.5
t-5.5 1.5t-4.5 5.5t-7.5 13l-11 19q-13 2 -20 0t-19 3q-14 3 -28 2.5t-28 -0.5q-5 1 -8.5 -1.5t-6 -5t-4 -3t-1.5 3.5h-21q-16 11 -38 13q-8 1 -16 1.5t-15 -2.5q-5 -1 -9.5 -3t-7.5 -3q-7 -3 -16.5 -1t-7.5 -2q-1 -3 0.5 -7t2.5 -8.5t0.5 -8.5t-3.5 -5q-3 -2 2.5 -6.5
t3.5 -8.5q-2 -12 -1.5 -23t-3.5 -22l-4 -4l-4 -4v-35q2 -9 3 -18t2 -17q3 -2 5 -5.5t5 -8.5q0 2 0 -0.5t2 -4.5q1 -4 3 -6t4 -5q1 -2 -4 -4.5t-4 -4.5h66q9 -2 16 1.5t12 8.5t8.5 9.5t6.5 5.5h1v28q0 38 32 38q12 0 23 -9q13 -6 13 -18t1 -17q0 -5 -0.5 -8.5t1.5 -8.5
q-12 5 -16 -10v-31zM188 313q1 0 2 2q-2 0 -2.5 -1t0.5 -1zM194 316q-1 -1 -2 -1h2v1zM188 434h-1h1z" />
    <glyph glyph-name="g" unicode="g" 
d="M459 119q0 -4 6 -14.5t13.5 -21.5t13.5 -19t8 -7v-24q0 -25 -13 -28t-33 2t-44 11.5t-45 0.5q-29 -10 -55.5 -14.5t-46.5 -4.5q-115 0 -189 102q-75 97 -75 243q0 78 16 140.5t48 111.5q67 103 186 103h33t37.5 -1.5t34 -4.5t24.5 -8q10 -6 18 -8.5t13 -3t8.5 -0.5
t6.5 -2q3 -3 5.5 -1t5 5t4.5 5.5t5 1.5q8 14 27 14q29 0 29 -35v-28q-4 2 -10 -4q2 -8 5 -16t3.5 -16.5t-2 -17.5t-11.5 -19q1 -10 6.5 -11.5t8.5 3.5v-11q0 -16 -14.5 -22t-28.5 -6q-15 0 -24 12q-7 6 -14.5 8.5t-7.5 11.5v7q-5 0 -8 4q-10 6 -16.5 11.5t-13 9.5t-15 6.5
t-21.5 2.5q-1 0 -1 1v2l-8 3q-2 1 -3 -1t-2.5 -5.5t-3 -6.5t-3.5 -2q-4 12 -11.5 14.5t-15.5 2.5q-4 1 -9 2.5t-10 1.5q-3 1 -4.5 -0.5l-3 -3t-4.5 -1t-8 5.5q-5 -1 -13 -1t-15 -4q-5 0 -8.5 0.5t-8.5 0.5q0 11 -6.5 13.5t-9.5 -6.5q-4 -8 -8.5 -8t-9.5 -6q-1 -1 -1 -3v-2
q-9 -5 -17.5 -11.5t-12.5 -14.5q-2 -1 -2 -1.5t-2 -0.5q-3 -2 -11 -2q-10 -7 -6 -16l-6 -6t-5 -7q-8 -11 -8 -19t6 -24v-1q-10 -30 -14.5 -65.5t-4.5 -76.5q5 -7 8 -19l5 -20q2 -10 0 -14t-8 -6l3 -17q5 -6 7 -13q3 -3 6.5 -11.5t8.5 -18l10 -19t11 -13.5q8 -17 1 -29
q4 -3 6 -9q15 -19 27 -31t24.5 -18.5t28 -8.5t37.5 -2q15 0 26.5 -1t21 -1.5t18 1t19.5 6.5q-3 5 2 7t7 10q11 0 12 5t-0.5 11.5t-3 12t4.5 6.5h1v54q5 25 -10 34.5t-34 14.5l-54 -2q-15 0 -21.5 17.5t-6.5 35.5q0 37 29 37h81q1 0 3 -1q2 -7 9 -7q11 0 25 -3h4
q6 -8 16 -11.5t20.5 -2t18.5 7.5t10 16v1h10q30 0 30 -37q0 -18 -5 -26.5t-10 -22.5l-6 -15q3 -5 0 -5.5t-9 -7.5v-1q-1 -4 -2 -7t-1 -6q-2 -8 -6 -12l10 -47q-3 2 -7 -0.5t-5 -10.5v-21zM362 471q4 -5 4.5 -10.5t0.5 -10.5q-8 5 -13 -3t-1 -15q-8 -2 -14 5q-11 9 -8.5 22
t12.5 16v-2q1 -11 8.5 -11.5t9.5 10.5zM194 571q2 3 8 3q-5 -2 -7.5 -3.5t-7.5 -3.5l4 3z" />
    <glyph glyph-name="h" unicode="h" 
d="M38 700q11 -8 15.5 -6.5t16.5 6.5q11 3 20 -0.5t21 -1.5h19l4 2h54q31 0 31 -39q0 -19 -1 -28t-16 -9h-38q-5 -5 -10 -8.5t-12 -5.5v-65q2 -2 2.5 -5t2.5 -6v-3v-2h1q8 -19 0 -32q4 -2 3 -6.5t1 -10.5q0 -7 -2 -10t-4 -4.5t-3 -3.5t1 -8q5 3 2.5 3t5.5 -5q2 4 1 3
t-2.5 -5t-1 -9.5t5.5 -9.5q3 -7 -3 -15.5t-8 -15.5h188q-2 5 -2.5 12.5t1.5 14.5q2 10 10 17l1 1q2 3 4 4v1q1 4 3 3q4 2 6 2v126q-3 6 -5.5 9.5t-5.5 7.5q-2 2 -2.5 2t-2.5 1q-9 -6 -10 1t-3 20h-13q-31 0 -31 39t31 39h156q31 0 31 -39t-31 -39l6 4q-7 -21 -20 -36v-21
q-2 -5 -2.5 -10t-0.5 -12q-4 2 -8 -0.5t-5 -8.5l12 -31v-8v-13.5v-14v-7.5q0 -47 -3 -87t1 -86q0 -2 -0.5 -2t-0.5 -1v-1v-134q1 -9 7 -10v-34q5 -2 9.5 -2.5t9.5 -0.5q8 -3 1.5 -12t-7.5 -17q31 0 31 -38q0 -39 -31 -39h-159q-31 0 -31 39q0 36 31 38l23 1q4 13 9 17.5
t14 8.5v201h-2q-2 -11 -2.5 -16t-10.5 5q-7 7 -8 13h-19q-12 2 -21 7q1 2 1.5 -1t-1 -7t-3.5 -8t-5 -3q-33 -1 -49.5 -2.5t-37.5 -2.5q-3 0 -5 4.5t-3 9t-1 7.5t0 1q-2 -2 -2 -3h-40q7 -8 6 -24t-9 -21l-1 -26q3 0 6 -4q5 -12 3.5 -23t-9.5 -16v-73q10 0 19.5 -6t14.5 -20
q2 -6 4 -17h24q15 0 16 -10.5t1 -29.5q0 -39 -31 -39h-159q-31 0 -31 39q0 38 31 38l12 1q2 6 7 10v106q4 20 2.5 46.5t-0.5 47.5q0 22 1 40.5t1 36.5t-1 37t-3 40v158q-9 4 -9 8.5t-5 13.5h-5q-31 0 -31 39q0 27 16 34q0 -2 3 -0.5t6.5 3t7.5 2.5t5 0zM184 184q9 -3 13 -10
t3.5 -14.5t-5 -14.5t-13.5 -8h-3q-10 1 -14.5 8.5t-4.5 16t5.5 15.5t15.5 7h3zM149 304q-1 0 -1 1z" />
    <glyph glyph-name="i" unicode="i" horiz-adv-x="599" 
d="M260 204q-1 0 -1 3l-7 366q-11 -3 -20 4t-17 17q-8 6 -9 11h-77q-19 0 -24 17t-5 37q0 39 38 39l38 2q1 7 9 13q12 -11 31 -12q3 1 -3 1.5t-14 1.5t-15 2.5t-7 3.5q5 -2 9 -2.5t9 -0.5q8 -1 16 -9h27q0 -4 6 -5q-4 -5 -4 -10q23 -1 45.5 -1.5t46.5 -0.5h1q5 2 6 7t-1 10
h125q37 0 37 -39q0 -20 -13.5 -37t-32.5 -17l-90 4q-3 -8 -9 -14t-12 -14l9 -49q3 5 5 7q-6 -16 2 -35q-5 1 -7 7l9 -89q-9 -2 -11 -11q0 -41 -1 -79t-2 -75.5t-1 -75.5t2 -79q2 -13 12 -12.5t12 13.5q0 2 -0.5 4t-0.5 4q2 -3 3.5 -5t2.5 -4q6 -6 15 -4l2 -10q2 -9 14 -10
q8 -1 13.5 -3t10.5 -3t9 1t9 8l11 5q19 0 29 -16.5t10 -35.5q0 -39 -37 -39h-28q-6 -9 -18 -12h-15q-15 1 -20 12h-4q-2 0 -6 -2h-1h1q-2 -2 -5 -2h-1q-9 -2 -12 0t-4.5 2.5t-3.5 1.5h-169q-9 7 -10.5 8.5t-2 1t-3 -2.5t-13.5 -3q-4 0 -6 -1.5t-4 -2.5q-38 0 -38 39
q0 19 8.5 35.5t27.5 16.5h73q15 28 50 36v13q-1 0 -2.5 1t-3.5 1q-13 5 -15 19q-5 3 -6 4l-2 2q2 8 3 14.5t-2 13.5q-4 3 -4 4q6 4 11 6q3 -10 10 -9.5t10 7.5l1 -1v4q0 1 0.5 1t0.5 2zM188 111q-3 3 -5 5.5t-3 7.5q5 2 10.5 2.5t12.5 3.5q10 5 18 16q4 -9 3 -18t-6.5 -15
t-13 -7t-16.5 5zM382 501q-2 7 -3.5 15.5t0.5 16.5v1q0 -11 13 -12h1q0 -16 -11 -21zM312 698q-7 -4 -12 -4l-1 4h13zM377 151q5 -10 6 -17q-2 4 -3.5 7.5t-2.5 9.5zM187 147q1 3 7 7l-2 -3q-1 -1 -2.5 -1.5t-2.5 -2.5z" />
    <glyph glyph-name="j" unicode="j" 
d="M200 77q23 3 49.5 11t46.5 25q4 2 2.5 4.5t-4.5 5t-5.5 5t0.5 5.5l-2 2q4 3 8 3h7t5.5 2t3.5 9q4 -3 6 -3q3 8 5.5 16.5t4.5 18.5q2 1 6 7q7 47 4 91.5t-4 89.5l-3 6v11q-3 5 -4 14v7q-2 8 -2 15.5t-1 14.5q2 11 7 15v35q-5 7 -7 21q0 2 0.5 3t0.5 3q3 -8 10.5 -6.5
t9.5 13.5q-5 19 -3 31.5t4.5 22.5t2 19.5t-12.5 22.5q-6 6 -11 6t-5 -7q-6 0 -11 -7l-26 8q-34 0 -34 37q0 19 7 31.5t24 12.5h15q2 -4 9 -7h17l-4 0.5l-4 0.5h17q8 2 10 10l88 -2q6 3 4 6.5t-5.5 5t-5.5 0.5t3 -6l2 -2q0 -1 1 -1h37q34 0 34 -38q0 -18 -7 -31t-24 -13
l-19 -2q-5 -4 -9.5 -7t-8.5 -5v-199q-1 -27 1.5 -51t4 -47.5t-0.5 -48t-12 -51.5q2 -6 1 -15.5t4 -9.5q-2 -9 -3 -17t-4 -16q8 -5 10 -9q-13 -5 -16 -16.5t-8 -23.5v-8q-4 0 -6 1q-5 -10 -11 -18.5t-13 -16.5q1 -10 0 -20q-7 -9 -15.5 -13t-18.5 -8l-9 -4.5t-3 0.5
q-10 -6 -19 -1q-38 -18 -91 -18q-55 0 -109 23q-14 7 -31 15t-31 21t-24 31.5t-11 45.5q-13 3 -14 22v7q1 14 14 20q3 32 34 32q17 0 34.5 -7.5t17.5 -25.5v-12q5 -12 2 -16.5t-6.5 -7.5t-3 -7.5t12.5 -17.5q5 0 7 3q3 -3 11 -7q0 -10 11 -12q14 -2 26.5 -9t29.5 -10
q2 -6 10 -8z" />
    <glyph glyph-name="k" unicode="k" 
d="M142 410q1 -8 4.5 -10.5t7.5 -0.5q2 -6 5.5 -8.5t9.5 2.5q4 6 6 18q0 4 -2 8q3 0 5.5 0.5t4.5 0.5q6 0 9 -1l6 7q5 2 9 4.5t8 6.5q4 -1 8 3q6 7 13.5 16.5t18.5 20.5q2 0 2 2q2 3 3.5 4.5t2.5 3.5q10 7 19.5 20t18.5 26.5t17.5 24.5t16.5 15q4 3 7.5 10.5t5 15t0.5 12
t-5 1.5h-1q-3 2 -6 2h-5.5t-4 1.5t-2.5 6.5v2q-11 2 -15.5 17t-4.5 32q0 6 1 9q4 0 7 5q2 0 3.5 3t3.5 5q5 5 11 5q-2 -10 9 -15q14 2 19 3.5t19 1.5q6 2 14.5 3.5t6.5 6.5h73q29 0 29 -39q0 -38 -29 -38h-14l-94 -133q-11 -21 -26 -36.5t-29.5 -27t-26.5 -19t-18 -10.5
q-1 -11 -5 -16q2 -2 8.5 -5t13.5 -6.5t13 -8t7 -7.5v-4q0 -1 0.5 -2t0.5 -3q14 -15 29 -31t26 -39l87 -187l28 -12q13 -5 21.5 -11.5t8.5 -25.5q0 -39 -30 -39h-47q-6 0 -11 4q-2 -1 -4 -2.5t-4 -1.5q-5 0 -8.5 -0.5t-8.5 -0.5q-9 1 -13.5 7.5t-4.5 15.5q-8 9 -10 22t-2 27
q1 11 10 20l-34 78q-4 -3 -9 -2.5t-10 5.5q-10 8 -8.5 20.5t9.5 17.5l-12 29q-13 32 -30 49q-2 14 -13 10q-3 7 -11 16t-17.5 16.5t-18.5 11t-13 0.5q-5 -3 -5 -9q-6 3 -10 15l-9 3l-25 -31q1 -4 0.5 -7t-0.5 -7q-3 -5 0 -13t7 -17t8 -17.5t3 -13.5h-2q-2 5 -6 7.5t-9 -2.5
q-7 -15 -7.5 -29t-0.5 -29q0 -7 3 -10v-57q20 -6 27 -13.5t5 -23.5h27q15 0 21.5 -15t6.5 -34q0 -39 -30 -39h-175q-29 0 -29 39q0 9 2.5 21.5t4.5 17.5q8 0 14 1t11 3q-4 -12 9 -16q5 1 6 3t1 4t0.5 4t4.5 2q9 3 8 6.5t-10 5.5v10q3 1 3 3q4 -3 8.5 -1t6.5 12q0 4 1 15
t1.5 25t1 29t0.5 27q-1 33 -1.5 63.5t-0.5 60.5v61v66q-1 4 2 8t5 8.5t1 10t-9 11.5v102q-4 -2 -8 -2h-7q-16 3 -19 20l-7 3q-29 0 -29 38q0 25 13 34q4 -2 9 -1q2 2 4 2t4 1q1 0 2 -1q22 0 43 3q5 -2 9 -2h9q15 -2 31.5 -1.5t32.5 4.5h44q30 0 30 -39q0 -38 -30 -38h-30
q0 -14 -11 -22q-4 -1 -7 -1.5t-6 -0.5v-156q11 -9 9 -21q-4 5 -8.5 2.5t-6.5 -11.5v-3zM213 464q-5 -7 -11 -10q0 2 -0.5 3.5t-0.5 2.5q6 -2 10 3zM277 540q-2 -5 -4.5 -9t-4.5 -7q1 2 1 6zM243 496q-1 -1 -0.5 -1t-1.5 -2q1 3 2 3l1 3zM220 393v4l-2 -3z" />
    <glyph glyph-name="l" unicode="l" 
d="M96 693q6 2 7 7h47q-2 -12 10 -16h34q11 5 9 16h88q30 0 30 -39q0 -14 -4 -27.5t-11 -16.5q1 -2 1 -2.5t1 -2.5v-4q-1 -11 -5.5 -17.5t-10.5 -8t-11.5 2t-8.5 11.5q5 5 4 11.5t-7 10.5q-14 0 -27.5 -2.5t-15.5 -2.5h-2q-3 8 -11 7q-17 -3 -27 -22q-2 -1 -6 -1v-1v-13
q-2 -5 -3.5 -6t-1.5 -8q0 -8 5 -10v-320q3 0 5.5 -2t5.5 -4q8 -13 3 -27t-14 -14v-63q2 2 5.5 1.5t8.5 -1.5l3.5 -3.5t5.5 -4.5q21 -12 7 -26q0 -1 2 -3h17q2 -5 8 -6q26 1 49.5 2t49.5 1q3 2 4 3h43v1q10 2 14 0t7 -4t6.5 -2t12.5 6q10 -4 13 9q1 8 0.5 10t-1.5 2t-2.5 1.5
t-2.5 7.5q-1 3 1.5 6t4.5 5t3.5 3t-0.5 0v10q8 20 28 20q31 0 31 -37v-20q8 0 13 -5q7 -14 2 -28t-15 -14v-22q0 -15 -9 -26.5t-22 -11.5h-117q-8 -4 -17 -4q-4 0 -10 4h-45q-10 -17 -25 -4h-1h-8q-5 0 -11 4h-3q-4 -9 -14 -12q-9 0 -18.5 -2t-18.5 -2q-8 1 -12 5.5t-6 10.5
h-130q-31 0 -31 38q0 12 3 21q2 -5 8 -5q8 0 14.5 7t10.5 15l-4 -1q4 16 15 25q9 4 18 11v-8q2 -11 10 -11t10 13v13t1 12v30q4 53 1.5 105.5t-1.5 103.5q0 22 -1.5 43t-3.5 43q-1 19 5.5 38t3.5 38q-1 6 -4 7v29q-2 1 -3.5 3t-3.5 4q-3 4 -1.5 5.5t3.5 2t3 1.5t-3 4
q-2 0 -4 7t-4 7q-8 1 -11.5 1.5t-5.5 7.5h-25q-15 0 -23 14.5t-8 33.5q0 29 17 37q2 -3 8 -5h71zM212 596q2 0 3 1h1v-2q-1 0 -2 0.5t-2 0.5z" />
    <glyph glyph-name="m" unicode="m" 
d="M476 310q0 -3 0.5 -17t0.5 -29.5t0.5 -28.5t1.5 -16v-50q-1 -3 -1.5 -5t-1.5 -4q-2 -9 -2 -18v-18q0 -5 1.5 -7.5t3.5 -4.5v-25l10 -12q13 -1 12 -9t-1 -27q0 -38 -27 -38h-137q-27 0 -27 38t27 38h25q9 6 11.5 24t-5.5 36q-2 5 0.5 10.5t4.5 11.5v4q0 10 1 14q2 5 2.5 9
t2.5 9q-2 2 -4 13l2 52t1 53q2 12 7 16v23q-8 -14 -19 0q-6 7 -6.5 16t2.5 15.5t9.5 9t13.5 -3.5l2 93q-5 0 -12 9q0 2 -2 2q-2 -4 -5 -11.5t-6.5 -16t-7.5 -15t-8 -8.5q-3 -1 -8 -1l-45 -116q-2 -10 -10 -18q-11 -9 -15 -9h-30q-4 0 -15 9q-9 10 -10 17l-54 115q-1 1 -2 3
q-5 13 -5 17.5t-6 18.5q1 9 -2 12.5t-7 0t-6 -15t2 -33.5q-3 -3 -4 -10l2 -32t2 -31v-53q-3 4 -6.5 1.5t-4.5 -10.5v-28t-0.5 -21.5t-0.5 -22v-27.5q0 -13 -0.5 -28t10.5 -19q5 -5 2 -13.5t-1 -18.5q2 -5 3 -12.5t2 -12.5q2 -2 2 -4q1 -2 2 -4.5t2 -4.5q5 -8 6 -14h13
q27 0 27 -38t-27 -38h-134q-27 0 -27 38q0 20 0.5 34t14.5 14h7q1 7 7 11q2 3 2.5 18.5t0.5 40v56v65.5l2 122l1 15.5t2.5 34.5t3 34.5l1.5 15.5l10 87q-8 8 -11.5 17.5t-8.5 21.5q-7 4 -19.5 15.5t-12.5 25.5q0 22 11.5 27.5t34.5 5.5h63q4 0 14 -10q8 -7 10 -15l71 -138
q7 1 15 -6q5 -11 3 -22.5t-7 -16.5l15 -34q0 -8 4.5 -16t5.5 -17q1 -11 6.5 -12.5t7.5 6.5q5 -6 11 0q3 2 6.5 9.5t6.5 17t5.5 20.5t3.5 20l1 14q2 12 2.5 13t1 -0.5t2.5 -1t6 11.5q2 5 5 12t5 9l51 128q4 11 11 17q8 10 14 10l80 1q13 0 23.5 -8t10.5 -34q0 -17 -8.5 -24.5
t-15.5 -15.5q-4 -4 -4.5 -7t-0.5 -7q-3 -6 -4 -9.5t-6 -7.5q-5 -3 -11 -1l13 -86q0 -1 1 -16t2.5 -33t2.5 -34t1 -17zM338 288q2 -3 1 -2l-3.5 3.5t-5.5 5t-5 2.5q-8 4 -13 -1.5t-3 -11.5q-3 7 -0.5 14t9 11.5t15.5 5t19 -5.5q8 -11 6.5 -20.5t-7.5 -16.5q2 12 -11 16h-2z
M315 275q-2 2 -4 3t-2 3l5 -3v-3h1zM153 454q0 -1 0.5 -1.5t0.5 -2.5zM34 101v-1q1 1 0 1z" />
    <glyph glyph-name="n" unicode="n" 
d="M138 159q1 -13 2 -17.5t3 -9.5q-6 -3 -8.5 -11.5t6.5 -9.5q3 -1 5 -4.5t3.5 -8t3.5 -8.5t5 -5q1 -3 6 -3q6 -2 5.5 0.5t4.5 2.5q3 2 3 0t6 1q15 0 23.5 -14t8.5 -33q0 -39 -30 -39l-155 1q-30 0 -30 39q0 19 6.5 33t21.5 14l-2 8l17 16q1 0 0.5 6.5t-1.5 14t-1.5 14.5
t0.5 8q4 10 5 25.5t0 33.5l-2 36t-1 33q-2 8 -2.5 15t-4.5 2q-1 4 -1 7.5v6.5q1 10 1 18t2 17q0 13 0.5 25.5t1.5 24.5q0 2 0.5 2.5t0.5 2.5q2 7 -1 13q1 45 1.5 88.5t0.5 88.5q2 9 1 11.5t-2.5 3t-3.5 0.5t-3 4l-3 1.5t-3 2.5l-1 -5q-15 0 -21 15t-6 34q0 38 28 39l3 -5
q6 -4 6.5 -4.5l0.5 -0.5l1 1t7 0q5 2 12.5 3.5t4.5 6.5h82q1 0 5.5 -3.5t9.5 -8.5t10.5 -9.5t7.5 -5.5l200 -454q2 7 0.5 25.5t-3 39t-2 37.5t4.5 23v15q1 12 0.5 15.5t-2 5.5t-2 5.5t1.5 14.5q3 16 3 24.5t-1.5 16.5t-3.5 17.5t-3 27.5q0 3 1 13t1.5 21t1 19.5t-1.5 8.5
l-8 25q-3 0 3 5t4 6t-1.5 5.5t2 8.5t2 6.5t-1.5 -0.5l-13 -16q-3 3 -3 5t1 4.5l2 5t-1 6.5h-29q-30 0 -30 38q0 20 7.5 35t22.5 15h14q-3 -11 9 -15q1 -1 4 -1q1 0 -1 3t-4 6.5t-4 6.5t-1 3q23 7 41.5 2.5t41.5 -6.5q3 1 6 4h35q15 0 22 -15t7 -35q0 -38 -29 -38h-7
q-3 0 -2 -1.5t2.5 -3t2.5 -3.5t-1 -4l-2 -563q0 -16 -4 -24t-10.5 -11t-16 -2.5t-20.5 0.5h-18q-5 0 -14 6q-8 6 -12 13l-220 537q-2 -1 -3 -2t-3 -1h-8v-110q2 1 0 -1.5t-5 -5.5t-5 -7t1 -6q4 -8 8.5 -14t7 -9.5t1.5 -3.5t-8 3v-228l6 -6q-2 -2 -2 -3.5t-1 -2.5zM29 210
q0 4 -2.5 8t-4 8t-0.5 8t6 9q1 -2 3 -2q-1 -7 -1.5 -15t-0.5 -16zM385 149v7q-3 0 -3 2zM156 89v4l2 -4h-2z" />
    <glyph glyph-name="o" unicode="o" 
d="M182 674q1 -2 5.5 1.5t9 8t8.5 8t4 0.5q9 3 21 5.5t23 2.5q28 0 51 -2t44 -9t42 -20t46 -35q42 -38 53 -84t11 -100v-101q0 -25 2.5 -49.5t-2.5 -47.5q1 -33 -8.5 -65.5t-20.5 -64.5q-13 -15 -23 -26q-5 -5 -9 -9.5t-7 -8.5q-4 -4 -7 -8q-10 -7 -21.5 -16t-22 -16.5
t-18.5 -12.5t-11 -3q-1 0 -5 2q-23 -11 -46.5 -17.5t-50.5 -6.5t-55 8t-52.5 19t-43 23t-25.5 21t-19.5 26t-24.5 40.5t-21 52.5t-9 62q0 11 -0.5 31.5t-1 43t-0.5 43t2 30.5l-1 49q0 39 11 75.5t32 67.5t53 54t74 35l-3.5 3.5l-3.5 3.5q12 -6 19 6q0 8 9 8q5 2 7 -1.5
t3 -0.5zM200 91q1 7 12 14l2 -2l2 -2q7 -4 15 -2t16 1v-6q3 1 5 2.5t5 2.5q8 0 13.5 1t10.5 3q2 -8 12 -9q12 4 26 12.5t25.5 17.5t18 17t4.5 13q11 3 15 13t4.5 21.5t1 21.5t4.5 14q3 -1 5 -1q0 2 3 10q3 6 3 10q2 7 1.5 9.5t-2 3.5t-2.5 3.5t0 11.5l-1 50l8 45v4
q-2 15 -4 31.5t-11 29.5q-1 8 4 9.5t3 9.5q2 29 -3.5 57t-25.5 56q-9 8 -21 11t-24 4q1 4 -3 7.5t-11 6t-15 4t-15 3.5q-9 0 -20 0.5t-22 0.5t-21 -2.5t-17 -8.5q-14 -1 -27 -2t-24 -8q-3 -2 -9 -11t-12.5 -19.5t-12 -20t-7.5 -11.5q-11 -16 -12.5 -28.5t0 -25t4 -27.5
t-0.5 -36v-53l-13 -19q3 -1 5 -14.5t3.5 -30t2.5 -31.5t2 -18q1 -29 5.5 -46.5t14 -29t24.5 -20.5t37 -22q5 -2 5 -6v-7q6 -6 14 -12zM42 669q-5 -5 -4.5 -10t2.5 -11q-4 -4 -7 -6q-1 1 -2 1t-3 2q-8 6 -9.5 12.5t1.5 12.5t10.5 9.5t16.5 2.5q-1 -2 -1 -5.5v-5.5
q-1 -1 -2 -1t-2 -1zM396 683q-5 2 -6.5 5t-3.5 5q2 -2 4.5 -5t5.5 -5zM421 689q1 0 5 2q0 -2 -1 -3.5t-1 -2.5q-2 2 -3 4z" />
    <glyph glyph-name="p" unicode="p" 
d="M223 93q16 0 24.5 -17t8.5 -37q0 -38 -32 -38h-193q-14 0 -21.5 15.5t-9.5 29.5q2 5 4.5 9t5.5 8q1 -1 1 3t-0.5 9t-0.5 9t3 3q11 4 13 12.5t-3 10.5l-6 2q-3 1 -1.5 1.5t2.5 1.5h12q-2 3 -2 9q9 3 9 10q3 3 4 5v-22q-10 -3 -7 -8.5t10.5 -9t16 -4.5t8.5 5
q0 15 -1.5 28.5t-0.5 36.5q2 14 2 28v28v1l-1 1v25q3 35 2.5 70.5t-2.5 71.5v110q-1 -2 -2 -2.5t-2 -2.5q-1 8 -1 14.5v14.5q-3 10 -10 10t-9 -11v-23q-7 7 -7.5 16t3.5 15.5t11.5 9t16.5 -3.5v55q-3 2 -5.5 2.5t-4.5 2.5l-1 1q-2 2 -2.5 2t-0.5 2h-1l-3 4q-4 3 -8.5 6.5
t-9.5 7.5q-5 6 -6 11l8 -9q-28 0 -32 27q6 0 10 9q0 5 2.5 13.5t7.5 8.5q12 3 8 16q3 -3 8 -4q20 0 33 1.5t25 3.5t25 3t33 1q3 1 11 0t17 -2.5t15.5 -2t6.5 2.5h73q100 0 159 -56q64 -58 64 -158q0 -99 -63 -159q-58 -58 -148 -58h-8q-1 -6 -9 -3.5t-16 0.5q-4 0 -7 -2
t-6 -5t-5.5 -5t-5.5 0q-7 -7 -15 -6q6 -14 2 -26l-3 5v1q-1 0 -1 1t-1 3q-4 6 -8 6h-1q-4 2 -7.5 4t-7.5 4q-1 0 -1 0.5t-1 0.5q3 4 7.5 6.5t10.5 0.5q-5 5 -7 16h-27v-42q-2 2 -3 3.5t-3 3.5q-5 1 -6 -2.5t0 -9t4 -12t6 -10.5q-5 -23 -7.5 -39t-1.5 -37q2 -13 10 -13t9 14
v1q1 -1 4 -9q0 -2 1 -4q6 -8 10.5 -8t6.5 -10v-1zM326 367q0 -7 4 -5t10 7q5 5 7 7.5t4 4t4.5 3.5t7.5 7q3 -10 14 -3q20 29 23.5 60t-0.5 71q-1 6 -2 14t-6 7q-6 22 -20 30q-5 2 -11 -2q-5 7 -11 11t-13 9q-13 4 -16.5 6t-6 3.5t-8.5 2t-24 0.5h-35l-5.5 0.5t-12 0.5h-11.5
t-5 -1q-26 -1 -38 -5t-16 -12.5t-3.5 -23t-0.5 -35.5q0 -10 5 -15q-3 -24 -2.5 -48.5t0.5 -44.5q0 -8 5 -16q0 -2 0.5 -4t0.5 -4q3 -8 -1.5 -13.5t0.5 -7.5q1 -1 7 -1.5t13.5 -1t13.5 -1l6 -0.5q11 -12 18 -8t20 5l3.5 1t7.5 2l8 2l4 1l36 -4zM189 612q2 3 4 5.5t5 5.5h-12
q3 -6 3 -11zM191 213q-3 2 -5 7l2 1q2 -1 4 -3l4 -4v-5q-2 0 -5 4z" />
    <glyph glyph-name="q" unicode="q" 
d="M182 674q1 -2 5.5 1.5t9 8t8.5 8t4 0.5q9 3 21 5.5t23 2.5q28 0 51.5 -2.5t45.5 -10t43 -21t44 -35.5q38 -37 50.5 -80t12.5 -101v-101q0 -25 2.5 -51t-2.5 -49q1 -60 -22 -127l-8 -10q-8 -10 -22 -19l44 -41q4 -1 6 -7t2 -13.5t-3.5 -14.5t-10.5 -9q-6 -5 -17 -5.5
t-22.5 2t-20.5 6.5t-12 7l-30 30q-1 0 -6.5 -4t-12 -8.5t-12 -8t-6.5 -3.5q-23 -11 -46.5 -17.5t-50.5 -6.5t-54 6t-51 16t-42.5 23t-28.5 26q-9 12 -21.5 29.5t-24 40.5t-20 50.5t-8.5 57.5q0 11 -0.5 29t-1 37.5t-0.5 37.5t2 28v69q0 40 10.5 76.5t31.5 67t53 53t74 34.5
l-3.5 3.5l-3.5 3.5q12 -6 19 6q0 6 7 6q5 2 8 -0.5t4 0.5zM200 91q1 7 12 14l2 -2l2 -2q7 -4 15 -2t16 1v-6q3 1 5 2.5t5 2.5q8 0 13.5 1t10.5 3q2 -8 12 -9q5 2 12 3.5t12.5 3.5t7.5 4.5t-3 6.5l-36 30q-11 10 -8 24.5t12 21.5q6 5 20.5 10.5t31.5 -6.5l37 -34q4 -3 7 -1.5
t4.5 5t1.5 7t-3 3.5l2 52q3 -1 5 -1q0 2 3 10q3 6 3 10q2 7 1.5 9.5t-2 3.5t-2.5 3.5t0 11.5v50l8 45v4q-2 15 -4 32t-11 30q-1 7 3.5 8.5t3.5 9.5q3 33 -4 61t-26 51q-11 9 -23 12t-22 3q1 4 -3 7.5t-10.5 6t-14.5 4.5t-15 4q-9 0 -20 0.5t-22 0.5t-21 -2.5t-17 -8.5
q-7 0 -16 0.5t-17 0.5t-15.5 -1.5t-11.5 -6.5q-3 -1 -7.5 -10.5t-9.5 -20.5t-9 -21.5t-6 -12.5q-11 -16 -12.5 -28.5t0 -25t4 -27.5t-0.5 -36v-53l-13 -19q3 -1 5 -14.5t3.5 -30t2.5 -31.5t2 -18q1 -29 5.5 -46.5t14 -29t24.5 -20.5t37 -22q5 -2 5 -6v-7q6 -6 14 -12z
M42 669q-5 -5 -4.5 -10t2.5 -11q-4 -4 -7 -6q-1 1 -2 1t-3 2q-8 6 -9.5 12.5t1.5 12.5t10.5 9.5t16.5 2.5q-1 -2 -1 -5.5v-5.5q-1 -1 -2 -1t-2 -1zM405 677q-5 2 -6.5 5t-3.5 5q2 -2 4.5 -5t5.5 -5zM430 683q1 0 5 2q0 -2 -1 -3.5t-1 -2.5q-2 2 -3 4z" />
    <glyph glyph-name="r" unicode="r" 
d="M51 70q6 2 7.5 7.5t-1.5 9.5q1 1 -3.5 2t-10 2t-10 2t-3.5 1q6 2 7.5 9t-2.5 11q3 2 6.5 3.5t6.5 2.5v9q4 -2 3.5 3t-0.5 12q-1 57 -0.5 109.5t-2.5 107.5v170q-4 10 -4 19.5t1.5 19t3.5 19.5t3 22v1h-24q-29 0 -29 38q0 19 6.5 34.5t20.5 15.5h14q1 -8 9 -11h46
q5 2 6 4.5t2 6.5h17q3 5 7 8.5t11 3.5h14q5 -2 7.5 -5t5.5 -7h135q36 0 69 -15.5t57 -38.5q56 -49 56 -146q0 -108 -75 -157v-4q0 -4 -11 -7.5t-24 -7.5t-24 -8t-11 -8q4 -3 10 -6t12 -6.5t10.5 -8.5t4.5 -12q0 -9 -3 -15q7 -14 14 -28.5t15 -31.5q-4 -7 -1 -16.5t8.5 -19
t11 -17.5t7.5 -12q3 -7 7 -7l18 -37l20 -15q10 -8 19 -13t9 -24q0 -38 -28 -38h-50q-5 0 -14 6l-6.5 6.5t-4.5 5.5l-42 90q-7 -6 -17 3q-8 9 -7 18.5t6 17.5l-37 78q-9 19 -14 31t-10.5 20t-12 13t-18.5 10h-107l1 -196q1 -4 5 -6q4 -4 8.5 -5t8.5 -2.5t7.5 -4.5t6.5 -10h-1
q27 0 27 -37q0 -38 -27 -38h-145q-28 0 -28 38q0 31 17 35q1 0 1 -0.5t1 -0.5h1h2q7 -2 15 -2.5t14 -0.5zM131 548q1 -29 2 -57.5t2 -57.5q0 -8 3 -9l-1 -46l71 3q3 0 13.5 -0.5t22.5 -1.5t23 -1h14q60 8 89.5 39.5t29.5 82.5q-5 9 -5 18t-5 17q-3 9 -5.5 17.5t-7.5 16.5
l-3 4q-1 2 -6 7q-1 0 -1 0.5t-1 0.5l-9.5 9.5t-6.5 11.5q-2 10 -8.5 10t-8.5 -11v-3q-14 11 -29 16q-2 -18 -16 -21h-8q-5 0 -14.5 3t-20 6.5l-19.5 6.5t-13 3h-75v-54q-5 -2 -7 -10zM288 159q5 -12 3 -24t-9 -16q4 9 4.5 20t0.5 21zM261 154q2 6 9 9v-19q-3 4 -9 10z" />
    <glyph glyph-name="s" unicode="s" 
d="M258 107l-1 1q8 0 13 2.5t9 5.5q4 -8 3 -15t-3 -12q15 1 27 1.5t22.5 2t20 5t18.5 10.5q5 5 10 9t9 9q-2 2 -3 2q-9 6 -10 14.5t3.5 15t13 9.5t18.5 -2q3 8 8.5 16.5t5.5 18.5q0 8 -1 15t-3 13q-11 -5 -21 0.5t-12 19.5v10t1 10q-11 8 -24.5 20t-33.5 18q-8 5 -14 3.5
t-14 4.5q-5 2 -14 6t-16 9q-1 4 -7.5 3.5t-4.5 4.5h-2q-1 -1 -4 -3q-32 2 -69 8t-63 22q-6 0 -10 -6h-2q-10 7 -20.5 13.5t-22.5 11.5q-1 1 -1 1.5t-2 2.5q-5 5 -9 5q-41 42 -41 110q0 91 64 143q64 55 174 55q17 0 31 1t27.5 1t26.5 -3t27 -11q3 5 7.5 6t10 -0.5t11 -4
t9.5 -5.5q3 11 15 13.5t26 2.5q37 0 37 -36q-5 -2 -5 -9t2 -15.5t3.5 -17t-0.5 -14.5q1 -12 -0.5 -23t0.5 -22l2 -12q0 -9 -3 -12.5t-9 -3.5t-13.5 1.5t-16.5 1.5t-15 -1.5t-9.5 -1.5t-5 3.5t-1.5 12.5t-9.5 10t-14.5 9q-8 -12 -15 -11.5t-10 19.5l-16 9q1 5 3.5 8.5
t5.5 7.5q-2 1 -3 2q-24 17 -45.5 19.5t-52.5 2.5q-41 0 -72.5 -8.5t-53.5 -27.5q-26 -23 -35 -54l1 -2q0 -2 -0.5 -3t-0.5 -2q1 -2 1.5 -4t2.5 -4l-3 -3q-1 -3 -1.5 -6t-0.5 -8v-6.5t1 -7.5v-1q2 -10 10 -11t12 9q2 -2 4 -2.5t4 -2.5q0 -1 -0.5 -1.5t-0.5 -2.5
q1 -2 2.5 -4.5t2.5 -4.5v-4q0 -9 -4 -14t-9 -8q5 -5 15.5 -6.5t23 -2l25 -1t21.5 -4.5q-3 -3 -3 -5q-3 -11 4.5 -15t13.5 3h10q4 0 11 0.5t12 1.5t5.5 0.5t-8.5 -3.5q20 -11 45.5 -14t47.5 -11q15 -5 24.5 -11.5t18 -13t18.5 -13t26 -11.5q2 -10 10 -10q1 -3 5 -3
q5 -2 9 -2.5t7 -2.5q6 -3 12.5 -11.5t12.5 -19t11.5 -22t9.5 -21.5q2 -9 3 -19t1 -21q0 -98 -76 -152q-69 -49 -172 -49q-32 0 -60 0.5t-51 10.5q-6 2 -10 2h-5q-9 2 -17 2t-10 6l2 4l2 4v-2q-1 -6 -1 -9.5t-6.5 -1t-22.5 12.5l-48 30q1 1 -1 4t-5 7t-5.5 7.5t-2.5 5.5
q1 0 0 -2l-2.5 -5t-2.5 -5.5t0 -1.5q-5 4 -5.5 4t1.5 2.5t5.5 10t7.5 25.5q-6 8 -14 6l-2 32q-2 19 11 25.5t31 6.5t34.5 -5.5t16.5 -24.5q0 -16 13 -26.5t32 -17t40.5 -10t38.5 -6t25.5 -4t1.5 -4.5q-4 6 -6 10q5 -6 12 -2.5t8 11.5zM68 284q6 2 8.5 5.5t1.5 6.5h4
q0 -6 -3 -12t-7.5 -9t-11 -3t-13.5 5q-9 7 -9 16q5 -6 13.5 -7.5t16.5 -1.5zM104 332q3 3 9 5v-5l-1 -2q-4 2 -8 2zM99 267q-2 2 -4.5 3.5t-3.5 5.5l1 -2q4 -2 6.5 -5t6.5 -7q-1 2 -2.5 2.5t-3.5 2.5zM90 290q0 2 1 3v-1z" />
    <glyph glyph-name="t" unicode="t" 
d="M135 707q7 -9 25 -12.5t38.5 -5t40 -1t30.5 0.5q7 1 9 11h189q7 0 17.5 2.5t15.5 -2.5t2 -16.5t-2 -19.5q-1 0 -1 -1q-5 -15 -1.5 -39.5t2.5 -43.5q4 -7 1 -12t-9 -8t-12.5 -3.5t-9.5 1.5l-17.5 5l-17.5 5q3 12 0.5 15t-6.5 4t-7.5 2.5t-3.5 10.5q0 1 -4 2.5t-8 2.5
t-7.5 2l-3.5 1h-48q-12 -5 -24.5 -10.5t-22.5 -12.5l7 -4q4 -2 7 -4q-4 -6 -8 -7l-6 -5v-25q-5 -1 -7 -9q-1 -12 3 -24t4 -23q-3 0 -6 -1q0 -1 -1 -1q-5 -6 -5 -11.5t4 -7.5q2 -7 4 -12.5t4 -12.5q-1 -18 -0.5 -34.5t0.5 -33.5q0 -3 -3 -14.5t-5 -24t-1 -24t9 -15.5v-37
q1 -1 2 -1.5t3 -2.5q4 -8 4 -16q1 -1 2 -3q8 -12 3.5 -25t-14.5 -15v-85q12 -4 23 -7.5t21 -5.5q8 -2 3.5 -0.5t-2.5 -5.5l23 -2q17 0 24.5 -16t7.5 -34q0 -38 -33 -38l-12 2l-6 4q-14 1 -23 1.5t-17 0t-17 -1.5t-22 -4q-1 0 -6 0.5t-10.5 1t-10.5 0.5t-5 -1h-27h-18
t-17.5 -0.5t-25.5 -0.5q-5 0 -15.5 1.5t-11.5 -0.5q-23 6 -23 37q0 18 8.5 34t25.5 16h36q3 12 8.5 14.5t14.5 8.5q4 2 3 4.5t4 3.5v333v140l-5 4h-5q-7 2 -4.5 0.5t0.5 3.5q-4 3 -7.5 6t-5.5 7h-46q-3 -4 -5.5 -6.5t-5.5 -6.5q-16 -2 -25 -4.5t-14.5 -7t-7.5 -11.5t-3 -19
v-2v-1q-2 0 -7 -1.5t-11.5 -3t-12 -2.5t-6.5 1q-2 2 -5.5 2t-7.5 -0.5t-8 1t-7 6.5v3l-1 -1v1q1 30 0.5 57t-0.5 56q2 -12 12 -9.5t11 16.5l-4 16q3 1 5.5 2t4.5 1h91q1 10 11 16q0 -5 4 -9zM341 118q-11 8 -10 18t8 16q4 -11 13 -15.5t11 -11.5q1 -2 1.5 -2.5t1.5 -2.5
q-5 -7 -11.5 -8t-13.5 6zM447 528q-3 4 -9 6v2q6 0 12 1t11 3q4 -4 5 -6q-1 -3 -1.5 -5.5t-0.5 -6.5q-10 6 -17 6zM367 152q0 -1 1 -2q-3 1 -6 6q2 0 5 -4zM494 495l1 1v-1h-1z" />
    <glyph glyph-name="u" unicode="u" 
d="M437 463q10 -48 8.5 -99.5t-8.5 -102.5q1 -8 5 -10.5t8 -0.5q-1 -125 -52.5 -187.5t-147.5 -62.5q-43 0 -87 18.5t-70 53.5q-13 17 -20.5 28.5t-11 23.5t-4.5 29.5t-1 46.5q-2 1 -4 11t-4.5 21.5t-4 22t-1.5 14.5v3q-3 3 2.5 7.5t4.5 12.5v18.5v15t-0.5 15.5t-0.5 19
q1 3 0.5 9.5t-0.5 13v11.5t2 6v149l3 3q6 14 1.5 22t-6.5 14q1 3 1 10.5t1 9.5q6 10 8 16t-6 -2q-2 -2 -8 0.5t-8 -0.5q-5 4 -6.5 2.5t-8.5 4.5q-5 2 -2 1.5t2 -5.5q-4 3 -6 8q-7 4 -11.5 9t-4.5 18q0 38 29 38h3q0 5 3 2t8 0q0 -4 1 0.5t5 3.5q1 -1 2 -1q4 0 6 2h5
q7 -6 9 -7t4 -0.5t5 1.5t11 1q4 1 10.5 -0.5t12.5 -2.5t9.5 -1.5t0.5 2.5l26 -2q29 0 29 -38q0 -37 -27 -37h-4q-1 -3 8 -5t19.5 -3t18.5 -1.5t5 -1.5q-4 -1 -19 -2t-19 -2q-1 7 -8 7q-2 0 -2 -1q-2 0 -2 -0.5t-1 -0.5l-2 -4q-1 0 -1 -1v-2q-2 -2 -6 -2v-13q1 3 6 3v-82
q0 -6 3 -9q-3 -13 -9 -29l24 -64q-6 -2 -7 -10v-12q-1 -1 -1.5 -2.5t-1.5 -3.5v34q-2 10 -8.5 10t-8.5 -11q0 -50 1.5 -99t1.5 -100q0 -3 1.5 -6t4.5 -4q9 -11 5.5 -23.5t-9.5 -24.5t-9.5 -23.5t5.5 -20.5q0 -1 1 -1q6 -10 14 -17.5t20 -12.5q14 -1 1 13q-8 1 -12.5 7
t-7.5 13.5t-4.5 15t-4.5 12.5q8 -8 21 -20t28 -22.5t30 -18t28 -7.5q35 0 54 11t35 32q12 16 15 42.5t6 57.5q4 6 1 13v13q-2 -2 -6 -3q-1 2 -1 3.5t-1 2.5q0 1 0.5 1t0.5 2v31q-3 10 -9 10v9q-3 9 -10 9q-5 7 -5 17v8q3 17 14 21t18 -10l-2 255q-3 2 -4.5 6t-2.5 7
q-1 4 -2 7q-2 2 3 0t7 -2q-2 2 -3.5 5.5t-2.5 6.5l-2 -8q-29 0 -29 37q0 40 29 40l113 2q14 0 24 -10.5t10 -29.5l-8 -37q-2 -8 -7 -9.5t-10.5 -1t-11.5 1.5t-10 -2q-1 -2 -1 -10.5v-18.5t-0.5 -18t-1.5 -9v-83q-3 2 -7.5 0t-5.5 -10zM337 430q7 -14 3 -26t-13 -14
q-4 7 -6 14t-3 23q-2 4 -3 5q11 7 22 -2zM156 222q-1 35 -1.5 70.5t-1.5 72.5q2 -28 4.5 -54t4.5 -53v-16q1 -15 0 -29q-1 1 -1.5 2.5t-2.5 3.5t-2 3zM227 132q6 0 8 -4h1q9 -4 7.5 -14t-10.5 -8q-8 0 -11 4q-5 5 -3.5 11.5t6.5 8.5q2 0 2 2zM164 554q0 -11 -3 -14v41
q2 -2 3 -8v-19z" />
    <glyph glyph-name="v" unicode="v" 
d="M384 684q5 1 7.5 -0.5t8.5 -1.5q12 5 2 15h5.5t5.5 1l20 2q2 -1 4 -2.5t3 -2.5h35q10 0 15 -2.5t7.5 -11t2.5 -25.5v-46l-24 -10l-4 -30q-9 -73 -20.5 -136.5t-28.5 -125t-41.5 -126t-59.5 -138.5q-2 -4 -9.5 -14t-12.5 -14q-2 -2 -9 -4.5t-14.5 -5t-14.5 -4.5t-8 -2
q-13 0 -18.5 1t-7 2.5t-1 3t-1.5 3.5t-6.5 4t-9 3.5t-7.5 3t-3 3.5l3 18q2 0 -1 5t-7 11.5t-7.5 12.5t-3.5 9q-18 48 -32 89.5t-25 82t-21.5 83t-20.5 92.5q-3 15 -5.5 31.5t-5.5 31t-5.5 25.5t-5.5 15l-11 72q-6 4 -10.5 4t-7.5 -0.5t-4.5 1t0.5 9.5h-4q-14 0 -20 11.5
t-6 30.5q0 18 6.5 30t20.5 12h29q1 3 3.5 1t6 -5.5t7 -6.5t6.5 -2h2l1 1h2h7q3 0 5.5 3.5t4 7t2.5 5t3 -3.5h31q14 0 21.5 -12.5t7.5 -31.5q0 -18 -8 -29t-22 -11h-11q6 -20 12.5 -46t4.5 -43v-10t1 -11l43 -166q4 0 12 -6q7 -18 -1 -33l31 -92q5 -5 8 -9q-1 -3 -1 -10
q1 -10 3.5 -22t5.5 -20t6 -11t6 5q3 -2 9.5 2.5t8.5 4.5q0 5 2 9l-1 -1q-2 -2 0 2.5t3 6.5q3 5 4.5 10t3.5 11q5 10 11 12t11 -1l-2 52q-6 5 -7.5 14t3.5 20l2 3q4 4 7 5q-2 -6 -3 -11.5t-2 -10.5q2 -11 7.5 -12t9.5 8q2 14 9 29.5t16 22.5q7 6 3 15t-11 5q-2 -1 -5 -4
l17 48q8 10 14.5 26t1.5 30l22 129q-2 1 -1.5 15t-0.5 18q-5 8 -6 11t-2.5 3.5t-4.5 -0.5t-11 0h-9q-14 0 -17 11.5t-3 30.5q0 18 9.5 27.5t23.5 9.5h6q0 -2 -4.5 -4t-9 -3t-7.5 -2t-1 -1q5 0 15 2q-2 -5 4 -2t13 1z" />
    <glyph glyph-name="w" unicode="w" 
d="M41 356q-2 5 4 11t4 6q-2 4 -7 5.5t-6 5.5q-2 3 1 6t2 3h-5l-2 20q-2 8 2 14t3 14q-2 8 -5.5 11.5t-2.5 12.5v9.5t2 9.5q-1 34 -1 54.5t0.5 32.5t1 20t0.5 19q0 1 -8.5 0.5t-8.5 1.5h-4q-6 0 -8 4t-2 11t1 16t1 18q0 18 7 28q0 -1 4.5 1t9.5 4.5t9.5 4.5t5.5 1l49 -1
l10.5 -3.5t15.5 -4t14 -1.5t5 5l6 3q9 4 14.5 1t8.5 -9.5t4 -13t1 -8.5q-2 -8 -0.5 -17t2.5 -16.5t-0.5 -12.5t-7.5 -6l-33 -6q-2 -9 -0.5 -12t1 -3t-4 0.5t-15.5 -0.5q-3 0 -3 -2q-1 -5 -2 -11t-2 -11l15 -227q1 -4 3 -10q3 -8 4.5 -14t3 -11t2.5 -11t2 -15q0 -13 -6 -20
l4 -10q3 8 9 11q-3 -20 -3 -40l-1 -2q-5 -5 -3.5 -12.5t8.5 -9.5q7 2 10 9.5t4 17t1 19.5t1 17q5 33 14 52t14 37q0 1 -0.5 1t-0.5 1v1l5 25q-5 2 -5 4t1.5 5t3.5 8t1 12v2l11 23q-3 5 -4.5 1.5t-2.5 -7t0.5 -2.5t4.5 14l9 33l8 37q5 25 25 25h20q18 0 24 -24l41 -181
q1 -1 2 -3t3 -4v-4q0 1 2 -0.5t4 -5.5q3 -19 6.5 -37.5t5.5 -37.5q-2 8 -4.5 14.5t-4.5 14.5q-6 10 -7 3.5t2 -16.5q4 -13 7.5 -17.5t9.5 -15.5q2 -4 1 -10.5t2 -4.5q9 -7 12 12q-2 14 -3 26t-3 25l3.5 -7t4.5 -7q1 17 5.5 31.5t4.5 31.5q1 8 0.5 17.5t4.5 11.5l15 162
q-5 1 -9 6.5t-6 13.5q-4 12 -3 24t-1 26q-1 5 -1 10t-2 10q-5 1 -6 0.5t-5 -0.5q-8 1 -12.5 8t-4.5 15l-7 1q-13 0 -11 8t2 27t-2 30t11 11l19 -1q0 -3 2 -5q3 -3 4 -3t1.5 1t1.5 1.5t3 -1.5q5 -5 8 -4.5t6 2.5t6 3t8 -3q3 4 10 4.5t5 5.5h59q26 0 26 -38t-26 -38
q2 -10 -1 -19t-13 -12h-4l-2 -198q-4 2 -4.5 -5.5t-1.5 -15.5q0 -26 -4.5 -48.5t-10 -44t-10 -44t-4.5 -47.5v-2l-14 -154q-1 -12 -9 -22.5t-17 -10.5h-16q-4 0 -7.5 2.5t-7.5 5.5q-8 7 -11 18l-59 268q-8 -4 -14 1.5t-8 21.5q-1 11 -1 23.5t-1 23.5q-7 -10 -16 -9l-9 -44
q-2 1 -6 -1q-2 -9 -3.5 -26t-3.5 -37t-5.5 -41t-9.5 -37l-39 -142q-2 -9 -10 -19q-4 -3 -8 -5.5t-7 -2.5h-18q-8 0 -15 11t-11 22l-21 95q0 8 -1 20t-2.5 24.5t-2.5 24.5t-2 21q-2 17 -3 27t-3 27q0 3 -4.5 10t-4.5 12q6 0 8 12z" />
    <glyph glyph-name="x" unicode="x" 
d="M50 700q13 0 25.5 0.5t25.5 -8.5q5 -4 9 -0.5t5 8.5l32 1q15 0 23.5 -7.5t8.5 -27.5q0 -19 -0.5 -35.5t-14.5 -18.5l-14 -2q3 -9 7 -12t7.5 -4.5t6.5 -3.5t5 -8l10 -20l7 -12q4 4 8 -5.5t13 -16.5q5 -11 7 -16t-3 -12h10q1 0 2.5 -3t3 -7t3.5 -7.5t3 -3.5q5 -3 5 -3.5
t-1.5 -2t-2.5 -4.5t2 -10q0 -3 3.5 -7t2.5 -6l1 -4l80 121q-1 2 -2 4.5t-1 5.5q2 2 2 6q0 3 3.5 6.5l5.5 5.5q10 15 15 17t-6 7q0 1 -0.5 3t-0.5 5q-2 11 -5 7t-4 -15q-2 -2 -7 3t-3 3q-6 3 -5.5 16.5t0.5 24.5q0 38 29 38l1 -4q0 -2 7.5 -1.5t8.5 0.5q8 1 18 2l20 2
t19.5 0.5t16.5 -2.5q2 -1 3 0.5t2 2.5h9q15 0 22.5 -7t7.5 -27q0 -19 -3 -35.5t-18 -19.5l-15 -3l-117 -183q0 -2 -5 -2t-5 -3q0 -5 -1.5 -9t-3.5 -9q-1 -1 -1 -5q-7 -23 -18 -18l-3 -11l10 -25q3 -6 4.5 -6t2.5 1.5t2 1.5t2 -6l8 -14q5 6 7 6.5t10 -6.5q3 -5 5.5 -10.5
t0.5 -12.5q2 -10 8.5 -19.5t14 -19t14.5 -19.5t9 -22q0 -3 2 -7t5 -8t5 -7.5t1 -4.5l54 -98l15 3q7 1 12 -3.5t7.5 -12.5t3.5 -18.5t1 -19.5q0 -39 -31 -39h-24q-1 5 -6 7q-8 -6 -14.5 -7t-12.5 0t-12.5 2t-13.5 -1q-4 -2 -3 -2l-22 -2q-15 -2 -23.5 8.5t-8.5 30.5
q0 19 4.5 37.5t19.5 17.5l27 -3q0 4 -6.5 9t-13 9t-10 7t1.5 3h7q0 -1 2 -1l-111 183l-46 -79q0 -2 2 -4v-5q-2 -15 -8.5 -21.5t-14.5 -4.5l-46 -62q5 -1 -2 -4.5t-5 -13.5v-3q0 -6 -1 -9l18 -1q15 0 17.5 -11.5t2.5 -30.5q0 -20 -2 -34t-17 -14l-24 -1q0 3 -10.5 -0.5
t-13.5 -2.5q-18 0 -27 3.5t-27 0.5q-6 -1 -11.5 -1h-10.5q-25 3 -25 39q0 19 2 34.5t17 17.5l13 2l22 33q3 -2 7 4t7 12q2 4 6.5 9.5t6.5 10.5q5 12 14 24.5t18 24.5t16.5 22.5t10.5 18.5q1 4 7 10t5 10q-2 0 -2 3l34 55q1 5 7.5 8.5t5.5 12.5l-7 25l-1 3q0 1 1 3q2 8 -1 15
t-8 14t-11.5 14t-10.5 16q-12 23 -21 49t-29 53q-2 0 -7.5 8t-11.5 17.5t-10.5 17t-5.5 6.5l-25 16l-21 1q-15 1 -16 18.5t-1 36.5q0 17 6.5 23.5t17.5 9.5q1 -3 7.5 -0.5t8.5 1.5zM306 249q5 -6 12.5 -8.5t12.5 -10.5q5 -3 8.5 1t-0.5 11q-6 8 -13 10.5t-13 9.5
q-5 5 -8.5 -0.5t1.5 -12.5zM311 592q-1 3 -1 5.5v4.5q8 -4 7 -7q-2 -2 -3 -3.5t-3 -3.5v4zM365 609q2 -2 2.5 -5t0.5 -4l4 9h-7zM46 3h5h-5zM56 4q-1 -1 -5 -1q2 0 2.5 0.5t2.5 0.5zM313 412q0 -1 -4.5 -7t-3.5 -5zM69 122l-13 -28l15 2z" />
    <glyph glyph-name="y" unicode="y" 
d="M268 428q0 1 4.5 7.5t3.5 8.5q4 4 6.5 10.5t5.5 13.5q10 9 16 18t10.5 19t10 21.5t14.5 26.5q1 4 6.5 15.5t4.5 14.5q2 6 0.5 9.5t-1.5 8.5q-4 0 -4 2q-6 2 -6 0t-2 4q-14 1 -15 16.5t-1 33.5q0 19 2 28.5t17 11.5q1 -4 5 -4q2 0 -2 0t-2 -1q3 4 9 6h50q10 -5 6 -16h19
q2 6 1 11q-1 1 -2 4h34q14 0 18 -11t4 -30t-4 -34t-18 -15h-23l-15 -48q-1 3 -4 6t-6.5 4t-5 0.5t0.5 -3.5q7 -9 8.5 -16t-0.5 -13t-5.5 -12.5t-7.5 -13.5l-14 -27q-2 -3 -10.5 -19.5t-21 -38.5t-27 -43.5t-27.5 -33.5v-53q0 -27 -1 -55.5t1 -54.5q4 2 9 1t10 -6q4 -8 4 -16
t-2.5 -14t-7.5 -9t-11 0q1 -8 -3.5 -14t-4.5 -13q0 -6 5 -11t1 -8q7 -5 7 -9t8 -5q2 -1 3.5 -2.5l3.5 -3.5l-3 -1q31 0 31 -38t-31 -38l-54 1q-14 3 -17.5 5t-5 2.5t-5.5 -0.5t-17 -4q-5 0 -7.5 -0.5t-4.5 -0.5h-5.5h-10.5h-12q-31 0 -31 38t31 38l1 -2q2 13 3 22.5t16 9.5
h1l2 -2l-3 53q1 16 -1 26t-3.5 19.5t-1 20t5.5 26.5q4 12 1.5 16.5t-5.5 1.5l-10 19q2 -2 4.5 6t4 19t3 21.5t2.5 14.5q-21 22 -39.5 48.5t-33.5 52.5t-25 50.5t-15 42.5l-29 63q-3 2 -4.5 1t-2.5 -2t-2 -0.5t-3 4.5l-7 -1q-15 0 -17 11.5t-2 30.5q0 12 6.5 27t11.5 21
q23 -4 40 -0.5t26 2.5q5 1 11.5 -1.5t6.5 1.5l-6 -9q0 -5 7 -2.5t11 1.5l12 -5q6 1 8 11q26 -4 26 -41q0 -19 1 -31.5t-14 -12.5l-11 3q-2 -7 -2 -9.5t-6 -3.5q-2 0 -3.5 -1.5t-4.5 0.5l22 -23q-2 -2 -4 -8q11 -10 14.5 -12t4.5 -6.5t3 -16t11 -39.5q1 -2 5 -7.5t9 -11.5
t9.5 -10t6.5 -4q5 -11 11.5 -22t11.5 -20l5 -9q3 -8 10 -1.5t9 18.5z" />
    <glyph glyph-name="z" unicode="z" 
d="M500 124q-2 -10 -2.5 -7t-3 6t-9 0t-20.5 -25q3 -3 2 -13.5t3 -11.5q11 -5 15.5 -5.5t-6.5 6.5q-2 0 -2 3.5t2.5 6t8 3t14.5 -4.5q-2 -1 -1 -4l2 -6t1 -5t-3 0q-1 1 -1 -6t-1 -6v-16q0 -15 -12 -26.5t-28 -11.5h-84q-1 5 -9 7q-31 -7 -71.5 -8t-77.5 0.5t-64 5t-32 5.5
t-6 -2.5t-3 -7.5h-68q-43 0 -43 32q0 14 9 28l80 112q-1 1 -1 4q0 1 0.5 1t0.5 2q2 2 3.5 4.5t3.5 5.5q32 37 60.5 75.5t57.5 77.5q4 7 2.5 13.5t-5.5 11.5v2q11 11 22 21t25 20l125 178q-3 1 -2.5 2.5t2 3l2.5 2.5t-2 3h-29q8 2 10 6v1q1 1 1 4q0 2 -0.5 2.5t-0.5 2.5l-1 1
q0 3 -4 3v2q-1 0 -3 1h-1q1 -10 -18 -15.5t-47 -7.5t-60.5 -2t-58.5 1t-41.5 1.5t-9.5 -0.5q-5 -2 -9 -1t-6.5 2.5t-3.5 2t-1 -3.5q-5 4 -7 1t-2 -8t2.5 -10.5t6.5 -6.5v-15q0 -2 -6.5 -3t-13 -1h-11t-1.5 0q-20 0 -32.5 -2t-12.5 6l-4 7q-3 2 -3 4t-1 7q-8 -4 -13.5 -4.5
t-2.5 10.5q0 2 1 2q1 4 4 7q5 -3 7.5 -2.5t4.5 9.5l-12 25q-2 6 -5 6v11q0 8 8 18t19.5 19t23.5 15t20 5l9 -1q0 -5 8.5 -4.5t12.5 -0.5t23 0t45.5 2.5t57 2.5t58.5 1t49 -2t29 -6q1 0 5.5 -1.5t9.5 -3t9.5 -3t4.5 -0.5h4v2q9 4 6 13l60 1q22 0 30 -8t8 -25q0 -3 -0.5 -13
t-2 -20.5t-3 -20.5t-4.5 -13l-53 -67q-1 0 -2 -4t-2.5 -9t-3.5 -10.5t-3 -6.5q-12 -14 -19.5 -28.5t-12.5 -30.5l-4 -6q-5 4 -11.5 -1t-8.5 -14q-4 -20 -15.5 -38t-26.5 -34.5t-30 -32.5t-26 -34q-3 -5 -1 -11l-29 -41q-11 -10 -20.5 -23t-20.5 -22q-5 -3 -6 -5t-1 -4.5
t0.5 -6t-0.5 -9.5q5 -12 13 -12l-9 -12q5 -5 7 -8q-5 1 -8.5 -2t-4.5 -7q-3 2 -8 2q-18 -2 -26.5 -8t-8.5 -12.5t8 -12t24 -6.5q11 2 13.5 7t-8.5 9q-2 0 -4.5 2t-4.5 3q2 1 11 1.5t10 2.5q0 -1 2 -1q3 -1 4 -2t2 -2.5t3 -2.5t7 -1l1 -1q7 -2 11.5 -1.5t8.5 1.5t8.5 2
t11.5 1q18 -6 29 -2q12 4 19 2t13.5 -4.5t14.5 -3t22 5.5q3 5 10.5 3t15 -5t13.5 -4t6 6q4 -9 14 -4.5t12 16.5v16q-2 7 -7 7v12q0 10 1.5 12.5t5.5 1.5t10.5 -3t16.5 -2t18 2t14 3t9.5 -1.5t3.5 -12.5v-4q-3 -2 0.5 -8.5t1.5 -10.5zM400 125q0 8 2.5 15t4.5 15v-48
q-7 7 -7 18zM315 586q-13 -5 -27 -13q2 5 2 8.5t2 5.5h11q3 0 5.5 -0.5t6.5 -0.5zM492 96q-1 4 -7 1t-7 0q4 0 12 5t10 6l-1 -14q-1 0 -7 2zM265 585l2 1q-1 -4 -1 -7.5v-6.5q-4 5 -4 12zM166 76q0 -2 -1 -2.5t-1 -2.5h2q1 1 1 3h-1v2zM250 552q2 -2 1 -2.5t-1 2.5zM394 108
v2v1v-3z" />
    <glyph glyph-name="asciitilde" unicode="~" horiz-adv-x="601" 
d="M235 660q3 -5 4.5 -10.5t1.5 -13.5q11 5 23 6.5t24 1.5q65 0 123 -27t101 -93q17 -25 29 -40.5t20 -32.5t11.5 -40.5t3.5 -64.5q0 -42 -2.5 -63.5t-9 -36.5t-18.5 -30.5t-30 -44.5l-2 -2q-1 -1 -1 -2q11 -6 7 -14t-14 -19l-5 -3q-9 -5 -12 -9.5t-9 -0.5q-4 -5 -13 -8
t-13 -7q6 -9 4 -15t-8.5 -9.5t-16.5 -6.5l-20 -6q-2 0 -6 3q-26 -14 -57 -17.5t-62 -3.5q-66 0 -120 27t-103 93q-21 27 -34 42t-20 30.5t-9 38t-2 64.5q0 41 3.5 64.5t12 41.5t21.5 35.5t32 47.5q12 20 26.5 33.5t31 23t34 16.5t34.5 15q-2 3 -4 4.5t-4 4.5q7 -4 13 -2t8 8
q0 12 11 12q11 3 13 11zM201 163q0 2 0.5 0.5t1 -4.5t1.5 -5t3 0q2 -2 2.5 -2t2.5 -3q4 -2 13 -4t19 -3t19 -2t14 -1v-7q4 1 6 2.5t5 3.5q8 0 15.5 1t12.5 3q0 -8 13 -10q14 1 35.5 11.5t42 24t36.5 27.5t18 23q4 14 9 22t13 18q4 -1 6 -1q0 2 -2 9t0 12q3 6 3 10
q7 27 10 32t4.5 4.5t1 1t-0.5 20.5l-3 28v6q-2 17 -5.5 28.5t-14.5 26.5q-11 23 -19.5 39t-33.5 37q-10 9 -16.5 9.5t-14.5 11.5q-2 4 -10.5 11t-19 13t-22 10.5t-18.5 4.5q-21 0 -46 1t-45 -7q-15 -6 -35.5 -18t-29.5 -23q-7 -2 -18.5 -10.5t-15.5 -13.5q-16 -25 -27 -36
t-18 -21.5t-11.5 -27.5t-6.5 -53l-3 -37q2 -12 3 -20t4.5 -16.5t10 -18.5t19.5 -25q12 -13 17 -20t8 -11.5l6 -9t10 -13.5q1 -3 6.5 -6t11 -5.5t10 -5t4.5 -3.5q5 -5 10 -5.5t9 -2.5zM559 172q-6 -6 -5.5 -12.5t3.5 -13.5q-5 -5 -9 -7l-6 3q-9 6 -11 14.5t2 15.5t12 11.5
t19 3.5q-1 -3 -1 -7v-6q0 -1 -1.5 -1t-2.5 -1zM453 627q-9 0 -14 8t-9 10q1 -1 6 -4t9.5 -6t7.5 -5.5t0 -2.5zM472 638q2 0 3 2t3 3v-16q-1 1 -3 5z" />
  </font>
</defs>
</svg>
